<?xml version="1.0" encoding="UTF-8" standalone="no"?>
<svg
   xmlns:dc="http://purl.org/dc/elements/1.1/"
   xmlns:cc="http://creativecommons.org/ns#"
   xmlns:rdf="http://www.w3.org/1999/02/22-rdf-syntax-ns#"
   xmlns:svg="http://www.w3.org/2000/svg"
   xmlns="http://www.w3.org/2000/svg"
   xmlns:sodipodi="http://sodipodi.sourceforge.net/DTD/sodipodi-0.dtd"
   xmlns:inkscape="http://www.inkscape.org/namespaces/inkscape"
   data-name="Layer 1"
   viewBox="0 0 67.544174 78.489998"
   x="0px"
   y="0px"
   version="1.1"
   id="ear-icon"
   sodipodi:docname="ear.svg"
   inkscape:version="1.0.1 (c497b03c, 2020-09-10)"
   width="67.544174"
   height="78.489998">
  <metadata
     id="metadata855">
    <rdf:RDF>
      <cc:Work
         rdf:about="">
        <dc:format>image/svg+xml</dc:format>
        <dc:type
           rdf:resource="http://purl.org/dc/dcmitype/StillImage" />
        <dc:title>50Icon_5px_grid</dc:title>
      </cc:Work>
    </rdf:RDF>
  </metadata>
  <defs
     id="defs853" />
  <sodipodi:namedview
     pagecolor="#ffffff"
     bordercolor="#666666"
     borderopacity="1"
     objecttolerance="10"
     gridtolerance="10"
     guidetolerance="10"
     inkscape:pageopacity="0"
     inkscape:pageshadow="2"
     inkscape:window-width="1920"
     inkscape:window-height="1035"
     id="namedview851"
     showgrid="false"
     inkscape:zoom="5.74"
     inkscape:cx="33.753237"
     inkscape:cy="51.77"
     inkscape:window-x="0"
     inkscape:window-y="23"
     inkscape:window-maximized="1"
     inkscape:current-layer="svg849"
     inkscape:document-rotation="0"
     fit-margin-top="0"
     fit-margin-left="0"
     fit-margin-right="0"
     fit-margin-bottom="0" />
  <title
     id="title833">50Icon_5px_grid</title>
  <path
     d="m 24.613237,60.77 a 9.12,9.12 0 0 1 -4,-4.1 9.61,9.61 0 0 1 -1.2,-5.16 1.95,1.95 0 0 0 -3.88,-0.35 13.41,13.41 0 0 0 1.64,7.32 13.06,13.06 0 0 0 5.84,5.79 1.9449036,1.9449036 0 0 0 1.59,-3.55 z"
     id="path835"
     style="fill:#d40000" />
  <path
     d="m 20.833237,67.07 a 15.66,15.66 0 0 1 -6.93,-7 16.22,16.22 0 0 1 -2,-8.84 1.9428973,1.9428973 0 1 0 -3.8700004,-0.35 20.11,20.11 0 0 0 2.4800004,11 19.59,19.59 0 0 0 8.78,8.75 1.9449036,1.9449036 0 0 0 1.59,-3.55 z"
     id="path837"
     style="fill:#ffff00;fill-opacity:1" />
  <path
     d="m 17.683237,74.22 c -4.12,-1.85 -8.0000004,-5.77 -10.6500004,-10.75 a 24.8,24.8 0 0 1 -3.11,-13.52 A 1.9428973,1.9428973 0 1 0 0.05323658,49.6 28.7,28.7 0 0 0 3.6032366,65.27 c 3,5.73 7.5900004,10.28 12.4900004,12.48 a 1.9449036,1.9449036 0 0 0 1.59,-3.55 z"
     id="path839"
     style="fill:#ffff00" />
  <path
     d="m 66.533237,64.27 a 2,2 0 0 0 -2.64,0.77 c -0.19,0.35 -0.4,0.85 -0.66,1.46 -1.24,3 -3.32,8.06 -10.32,8.06 -6.16,0.04 -7.27,-4.29 -8.54,-11.29 -0.58,-3.23 -1.18,-6.57 -2.72,-9.18 -2.58,-4.39 -6.44,-7.58 -10.17,-10.67 -3.55,-2.93 -6.89,-5.7 -9.12,-9.36 -2.77,-4.55 -3.06,-14.17 0.92,-21.24 2.29,-4.07 7,-8.93 16.34,-8.93 20.07,0 23.91,18.62 24.06,19.42 a 1.9445629,1.9445629 0 0 0 3.82,-0.73 c 0,-0.23 -4.55,-22.58 -27.88,-22.58 -11.23,0 -16.93,5.93 -19.73,10.91 -4.79,8.53 -4.18,19.7 -0.85,25.17 2.57,4.22 6.33,7.33 10,10.34 3.67,3.01 7.06,5.84 9.29,9.64 1.19,2 1.7,4.88 2.25,7.9 1.17,6.5 2.58,14.53 12.33,14.53 9.6,0 12.62,-7.34 13.92,-10.47 0.18,-0.44 0.33,-0.81 0.47,-1.06 a 2,2 0 0 0 -0.77,-2.69 z"
     id="path841"
     style="fill:#005600;fill-opacity:1" />
  <path
     d="m 54.753237,31.89 a 2,2 0 0 0 1.16,-1.87 c -0.55,-12.13 -3.79,-15.83 -13.9,-15.83 -8.28,0 -12.1,7.82 -13,11.95 a 1.9455205,1.9455205 0 0 0 3.81,0.79 c 0,-0.09 1.93,-8.85 9.15,-8.85 7.22,0 9.36,1.31 9.95,10.84 -2.63,1.37 -8.29,4.87 -8.29,9.72 0,6 5.15,10.69 9.93,11.61 a 2,2 0 0 0 0.37,0 1.94,1.94 0 0 0 0.37,-3.85 c -3.27,-0.63 -6.78,-3.92 -6.78,-7.79 0.01,-2.66 4.85,-5.68 7.23,-6.72 z"
     id="path843"
     style="fill:#78f400;fill-opacity:1" />
</svg>
