<?xml version="1.0" encoding="UTF-8" standalone="no"?>
<svg
   xmlns:dc="http://purl.org/dc/elements/1.1/"
   xmlns:cc="http://creativecommons.org/ns#"
   xmlns:rdf="http://www.w3.org/1999/02/22-rdf-syntax-ns#"
   xmlns:svg="http://www.w3.org/2000/svg"
   xmlns="http://www.w3.org/2000/svg"
   xmlns:sodipodi="http://sodipodi.sourceforge.net/DTD/sodipodi-0.dtd"
   xmlns:inkscape="http://www.inkscape.org/namespaces/inkscape"
   viewBox="0 0 100 125"
   x="0px"
   y="0px"
   version="1.1"
   id="svg196"
   class="service-icon"
   sodipodi:docname="Equalizer2.svg"
   inkscape:version="1.0.1 (c497b03c, 2020-09-10)"
   width="100"
   height="125">
  <metadata
     id="metadata202">
    <rdf:RDF>
      <cc:Work
         rdf:about="">
        <dc:format>image/svg+xml</dc:format>
        <dc:type
           rdf:resource="http://purl.org/dc/dcmitype/StillImage" />
        <dc:title></dc:title>
      </cc:Work>
    </rdf:RDF>
  </metadata>
  <defs
     id="defs200" />
  <sodipodi:namedview
     pagecolor="#ffffff"
     bordercolor="#666666"
     borderopacity="1"
     objecttolerance="10"
     gridtolerance="10"
     guidetolerance="10"
     inkscape:pageopacity="0"
     inkscape:pageshadow="2"
     inkscape:window-width="1920"
     inkscape:window-height="1035"
     id="namedview198"
     showgrid="false"
     inkscape:zoom="3.564"
     inkscape:cx="113.76086"
     inkscape:cy="72.995105"
     inkscape:window-x="3"
     inkscape:window-y="23"
     inkscape:window-maximized="0"
     inkscape:current-layer="svg196"
     inkscape:document-rotation="0"
     fit-margin-top="0"
     fit-margin-left="0"
     fit-margin-right="0"
     fit-margin-bottom="0" />
  <g
     id="g4196"
     transform="translate(5,27.812501)">
    <path
       d="m 0,67.5 h 11.25 v 1.874998 H 0 Z"
       color="#000000"
       id="path10"
       style="fill:#142616;fill-opacity:1" />
    <path
       d="m 0,63.75 h 11.25 v 1.874998 H 0 Z"
       color="#000000"
       id="path12"
       style="fill:#153a1b;fill-opacity:1" />
    <path
       d="m 0,60 h 11.25 v 1.874998 H 0 Z"
       color="#000000"
       id="path14"
       style="fill:#1d5025;fill-opacity:1" />
    <path
       d="m 0,56.25 h 11.25 v 1.874998 H 0 Z"
       color="#000000"
       id="path16"
       style="fill:#1d5025;fill-opacity:1" />
    <path
       d="m 0,52.5 h 11.25 v 1.874998 H 0 Z"
       color="#000000"
       id="path18"
       style="fill:#297134;fill-opacity:1" />
    <path
       d="m 0,48.75 h 11.25 v 1.874998 H 0 Z"
       color="#000000"
       id="path20"
       style="fill:#297134;fill-opacity:1" />
    <path
       d="m 0,45 h 11.25 v 1.874998 H 0 Z"
       color="#000000"
       id="path22"
       style="fill:#3ba14b;fill-opacity:1" />
    <path
       d="m 0,41.25 h 11.25 v 1.874998 H 0 Z"
       color="#000000"
       id="path24"
       style="fill:#3ba14b;fill-opacity:1" />
    <path
       d="m 0,37.5 h 11.25 v 1.874998 H 0 Z"
       color="#000000"
       id="path26"
       style="fill:#45bc5a;fill-opacity:1" />
    <path
       d="m 0,33.75 h 11.25 v 1.874998 H 0 Z"
       color="#000000"
       id="path28"
       style="fill:#45bc5a;fill-opacity:1" />
    <path
       d="m 0,30 h 11.25 v 1.874998 H 0 Z"
       color="#000000"
       id="path30"
       style="fill:#b1e24e;fill-opacity:1" />
    <path
       d="m 0,26.25 h 11.25 v 1.874998 H 0 Z"
       color="#000000"
       id="path32"
       style="fill:#b1e24e;fill-opacity:1" />
    <path
       d="m 13.125,67.5 h 11.25 v 1.874998 h -11.25 z"
       color="#000000"
       id="path34"
       style="fill:#142616;fill-opacity:1" />
    <path
       d="m 13.125,63.75 h 11.25 v 1.874998 h -11.25 z"
       color="#000000"
       id="path36"
       style="fill:#153a1b;fill-opacity:1" />
    <path
       d="m 13.125,60 h 11.25 v 1.874998 h -11.25 z"
       color="#000000"
       id="path38"
       style="fill:#1d5025;fill-opacity:1" />
    <path
       d="m 13.125,56.25 h 11.25 v 1.874998 h -11.25 z"
       color="#000000"
       id="path40"
       style="fill:#1d5025;fill-opacity:1" />
    <path
       d="m 13.125,52.5 h 11.25 v 1.874998 h -11.25 z"
       color="#000000"
       id="path42"
       style="fill:#297134;fill-opacity:1" />
    <path
       d="m 13.125,48.75 h 11.25 v 1.874998 h -11.25 z"
       color="#000000"
       id="path44"
       style="fill:#297134;fill-opacity:1" />
    <path
       d="m 13.125,45 h 11.25 v 1.874998 h -11.25 z"
       color="#000000"
       id="path46"
       style="fill:#3ba14b;fill-opacity:1" />
    <path
       d="m 13.125,41.25 h 11.25 v 1.874998 h -11.25 z"
       color="#000000"
       id="path48"
       style="fill:#3ba14b;fill-opacity:1" />
    <path
       d="m 13.125,37.5 h 11.25 v 1.874998 h -11.25 z"
       color="#000000"
       id="path50"
       style="fill:#45bc5a;fill-opacity:1" />
    <path
       d="m 13.125,33.75 h 11.25 v 1.874998 h -11.25 z"
       color="#000000"
       id="path52"
       style="fill:#45bc5a;fill-opacity:1" />
    <path
       d="M 26.25,67.5 H 37.5 v 1.874998 H 26.25 Z"
       color="#000000"
       id="path54"
       style="fill:#142616;fill-opacity:1" />
    <path
       d="M 26.25,63.75 H 37.5 v 1.874998 H 26.25 Z"
       color="#000000"
       id="path56"
       style="fill:#153a1b;fill-opacity:1" />
    <path
       d="M 26.25,60 H 37.5 v 1.874998 H 26.25 Z"
       color="#000000"
       id="path58"
       style="fill:#1d5025;fill-opacity:1" />
    <path
       d="M 26.25,56.25 H 37.5 v 1.874998 H 26.25 Z"
       color="#000000"
       id="path60"
       style="fill:#1d5025;fill-opacity:1" />
    <path
       d="M 26.25,52.5 H 37.5 v 1.874998 H 26.25 Z"
       color="#000000"
       id="path62"
       style="fill:#297134;fill-opacity:1" />
    <path
       d="M 26.25,48.75 H 37.5 v 1.874998 H 26.25 Z"
       color="#000000"
       id="path64"
       style="fill:#297134;fill-opacity:1" />
    <path
       d="M 26.25,45 H 37.5 v 1.874998 H 26.25 Z"
       color="#000000"
       id="path66"
       style="fill:#3ba14b;fill-opacity:1" />
    <path
       d="M 26.25,41.25 H 37.5 v 1.874998 H 26.25 Z"
       color="#000000"
       id="path68"
       style="fill:#3ba14b;fill-opacity:1" />
    <path
       d="M 26.25,37.5 H 37.5 v 1.874998 H 26.25 Z"
       color="#000000"
       id="path70"
       style="fill:#45bc5a;fill-opacity:1" />
    <path
       d="M 26.25,33.75 H 37.5 v 1.874998 H 26.25 Z"
       color="#000000"
       id="path72"
       style="fill:#45bc5a;fill-opacity:1" />
    <path
       d="m 39.375,67.5 h 11.25 v 1.874998 h -11.25 z"
       color="#000000"
       id="path74"
       style="fill:#142616;fill-opacity:1" />
    <path
       d="m 39.375,63.75 h 11.25 v 1.874998 h -11.25 z"
       color="#000000"
       id="path76"
       style="fill:#153a1b;fill-opacity:1" />
    <path
       d="m 39.375,60 h 11.25 v 1.874998 h -11.25 z"
       color="#000000"
       id="path78"
       style="fill:#1d5025;fill-opacity:1" />
    <path
       d="m 39.375,56.25 h 11.25 v 1.874998 h -11.25 z"
       color="#000000"
       id="path80"
       style="fill:#1d5025;fill-opacity:1" />
    <path
       d="m 39.375,52.5 h 11.25 v 1.874998 h -11.25 z"
       color="#000000"
       id="path82"
       style="fill:#297134;fill-opacity:1" />
    <path
       d="m 39.375,48.75 h 11.25 v 1.874998 h -11.25 z"
       color="#000000"
       id="path84"
       style="fill:#297134;fill-opacity:1" />
    <path
       d="m 39.375,45 h 11.25 v 1.874998 h -11.25 z"
       color="#000000"
       id="path86"
       style="fill:#3ba14b;fill-opacity:1" />
    <path
       d="m 39.375,41.25 h 11.25 v 1.874998 h -11.25 z"
       color="#000000"
       id="path88"
       style="fill:#3ba14b;fill-opacity:1" />
    <path
       d="m 39.375,37.5 h 11.25 v 1.874998 h -11.25 z"
       color="#000000"
       id="path90"
       style="fill:#45bc5a;fill-opacity:1" />
    <path
       d="m 39.375,33.75 h 11.25 v 1.874998 h -11.25 z"
       color="#000000"
       id="path92"
       style="fill:#45bc5a;fill-opacity:1" />
    <path
       d="M 26.25,30 H 37.5 v 1.874998 H 26.25 Z"
       color="#000000"
       id="path94"
       style="fill:#b1e24e;fill-opacity:1" />
    <path
       d="M 26.25,26.25 H 37.5 v 1.874998 H 26.25 Z"
       color="#000000"
       id="path96"
       style="fill:#b1e24e;fill-opacity:1" />
    <path
       d="M 26.25,22.5 H 37.5 v 1.874998 H 26.25 Z"
       color="#000000"
       id="path98"
       style="fill:#e2f5bd;fill-opacity:1" />
    <path
       d="M 26.25,18.75 H 37.5 v 1.874998 H 26.25 Z"
       color="#000000"
       id="path100"
       style="fill:#e2f5bd;fill-opacity:1" />
    <path
       d="m 39.375,30 h 11.25 v 1.874998 h -11.25 z"
       color="#000000"
       id="path102"
       style="fill:#b1e24e;fill-opacity:1" />
    <path
       d="m 39.375,26.25 h 11.25 v 1.874998 h -11.25 z"
       color="#000000"
       id="path104"
       style="fill:#b1e24e;fill-opacity:1" />
    <path
       d="m 39.375,22.5 h 11.25 v 1.874998 h -11.25 z"
       color="#000000"
       id="path106"
       style="fill:#e2f5bd;fill-opacity:1" />
    <path
       d="m 39.375,18.75 h 11.25 v 1.874998 h -11.25 z"
       color="#000000"
       id="path108"
       style="fill:#e2f5bd;fill-opacity:1" />
    <path
       d="m 39.375,15 h 11.25 v 1.874998 h -11.25 z"
       color="#000000"
       id="path110"
       style="fill:#eef8d9;fill-opacity:1" />
    <path
       d="m 39.375,11.25 h 11.25 v 1.874998 h -11.25 z"
       color="#000000"
       id="path112"
       style="fill:#eef8d9;fill-opacity:1" />
    <path
       d="m 39.375,7.5 h 11.25 v 1.874998 h -11.25 z"
       color="#000000"
       id="path114"
       style="fill:#f2fbe0;fill-opacity:1" />
    <path
       d="m 39.375,3.75 h 11.25 v 1.874998 h -11.25 z"
       color="#000000"
       id="path116"
       style="fill:#f2fbe0;fill-opacity:1" />
    <path
       d="m 39.375,0 h 11.25 v 1.874998 h -11.25 z"
       color="#000000"
       id="path118"
       style="fill:#f4fee3;fill-opacity:1" />
    <path
       d="m 52.5,67.5 h 11.25 v 1.874998 H 52.5 Z"
       color="#000000"
       id="path120"
       style="fill:#142616;fill-opacity:1" />
    <path
       d="m 52.5,63.75 h 11.25 v 1.874998 H 52.5 Z"
       color="#000000"
       id="path122"
       style="fill:#153a1b;fill-opacity:1" />
    <path
       d="m 52.5,60 h 11.25 v 1.874998 H 52.5 Z"
       color="#000000"
       id="path124"
       style="fill:#1d5025;fill-opacity:1" />
    <path
       d="m 52.5,56.25 h 11.25 v 1.874998 H 52.5 Z"
       color="#000000"
       id="path126"
       style="fill:#1d5025;fill-opacity:1" />
    <path
       d="m 52.5,52.5 h 11.25 v 1.874998 H 52.5 Z"
       color="#000000"
       id="path128"
       style="fill:#297134;fill-opacity:1" />
    <path
       d="m 52.5,48.75 h 11.25 v 1.874998 H 52.5 Z"
       color="#000000"
       id="path130"
       style="fill:#297134;fill-opacity:1" />
    <path
       d="m 52.5,45 h 11.25 v 1.874998 H 52.5 Z"
       color="#000000"
       id="path132"
       style="fill:#3ba14b;fill-opacity:1" />
    <path
       d="m 52.5,41.25 h 11.25 v 1.874998 H 52.5 Z"
       color="#000000"
       id="path134"
       style="fill:#3ba14b;fill-opacity:1" />
    <path
       d="m 52.5,37.5 h 11.25 v 1.874998 H 52.5 Z"
       color="#000000"
       id="path136"
       style="fill:#45bc5a;fill-opacity:1" />
    <path
       d="m 52.5,33.75 h 11.25 v 1.874998 H 52.5 Z"
       color="#000000"
       id="path138"
       style="fill:#45bc5a;fill-opacity:1" />
    <path
       d="m 65.625,67.5 h 11.25 v 1.874998 h -11.25 z"
       color="#000000"
       id="path140"
       style="fill:#142616;fill-opacity:1" />
    <path
       d="m 65.625,63.75 h 11.25 v 1.874998 h -11.25 z"
       color="#000000"
       id="path142"
       style="fill:#153a1b;fill-opacity:1" />
    <path
       d="m 65.625,60 h 11.25 v 1.874998 h -11.25 z"
       color="#000000"
       id="path144"
       style="fill:#1d5025;fill-opacity:1" />
    <path
       d="m 65.625,56.25 h 11.25 v 1.874998 h -11.25 z"
       color="#000000"
       id="path146"
       style="fill:#1d5025;fill-opacity:1" />
    <path
       d="m 65.625,52.5 h 11.25 v 1.874998 h -11.25 z"
       color="#000000"
       id="path148"
       style="fill:#297134;fill-opacity:1" />
    <path
       d="m 65.625,48.75 h 11.25 v 1.874998 h -11.25 z"
       color="#000000"
       id="path150"
       style="fill:#297134;fill-opacity:1" />
    <path
       d="m 65.625,45 h 11.25 v 1.874998 h -11.25 z"
       color="#000000"
       id="path152"
       style="fill:#3ba14b;fill-opacity:1" />
    <path
       d="m 65.625,41.25 h 11.25 v 1.874998 h -11.25 z"
       color="#000000"
       id="path154"
       style="fill:#3ba14b;fill-opacity:1" />
    <path
       d="m 65.625,37.5 h 11.25 v 1.874998 h -11.25 z"
       color="#000000"
       id="path156"
       style="fill:#45bc5a;fill-opacity:1" />
    <path
       d="m 65.625,33.75 h 11.25 v 1.874998 h -11.25 z"
       color="#000000"
       id="path158"
       style="fill:#45bc5a;fill-opacity:1" />
    <path
       d="m 52.5,30 h 11.25 v 1.874998 H 52.5 Z"
       color="#000000"
       id="path160"
       style="fill:#b1e24e;fill-opacity:1" />
    <path
       d="m 52.5,26.25 h 11.25 v 1.874998 H 52.5 Z"
       color="#000000"
       id="path162"
       style="fill:#b1e24e;fill-opacity:1" />
    <path
       d="m 65.625,30 h 11.25 v 1.874998 h -11.25 z"
       color="#000000"
       id="path164"
       style="fill:#b1e24e;fill-opacity:1" />
    <path
       d="m 65.625,26.25 h 11.25 v 1.874998 h -11.25 z"
       color="#000000"
       id="path166"
       style="fill:#b1e24e;fill-opacity:1" />
    <path
       d="m 65.625,22.5 h 11.25 v 1.874998 h -11.25 z"
       color="#000000"
       id="path168"
       style="fill:#e2f5bd;fill-opacity:1" />
    <path
       d="m 65.625,18.75 h 11.25 v 1.874998 h -11.25 z"
       color="#000000"
       id="path170"
       style="fill:#e2f5bd;fill-opacity:1" />
    <path
       d="m 65.625,15 h 11.25 v 1.874998 h -11.25 z"
       color="#000000"
       id="path172"
       style="fill:#eef8d9;fill-opacity:1" />
    <path
       d="M 78.75,67.5 H 90 v 1.874998 H 78.75 Z"
       color="#000000"
       id="path174"
       style="fill:#142616;fill-opacity:1" />
    <path
       d="M 78.75,63.75 H 90 v 1.874998 H 78.75 Z"
       color="#000000"
       id="path176"
       style="fill:#153a1b;fill-opacity:1" />
    <path
       d="M 78.75,60 H 90 v 1.874998 H 78.75 Z"
       color="#000000"
       id="path178"
       style="fill:#1d5025;fill-opacity:1" />
    <path
       d="M 78.75,56.25 H 90 v 1.874998 H 78.75 Z"
       color="#000000"
       id="path180"
       style="fill:#1d5025;fill-opacity:1" />
    <path
       d="M 78.75,52.5 H 90 v 1.874998 H 78.75 Z"
       color="#000000"
       id="path182"
       style="fill:#297134;fill-opacity:1" />
    <path
       d="M 78.75,48.75 H 90 v 1.874998 H 78.75 Z"
       color="#000000"
       id="path184"
       style="fill:#297134;fill-opacity:1" />
    <path
       d="M 78.75,45 H 90 v 1.874998 H 78.75 Z"
       color="#000000"
       id="path186"
       style="fill:#3ba14b;fill-opacity:1" />
    <path
       d="M 78.75,41.25 H 90 v 1.874998 H 78.75 Z"
       color="#000000"
       id="path188"
       style="fill:#3ba14b;fill-opacity:1" />
    <path
       d="M 78.75,37.5 H 90 v 1.874998 H 78.75 Z"
       color="#000000"
       id="path190"
       style="fill:#45bc5a;fill-opacity:1" />
  </g>
</svg>
