<svg
   xmlns:dc="http://purl.org/dc/elements/1.1/"
   xmlns:cc="http://creativecommons.org/ns#"
   xmlns:rdf="http://www.w3.org/1999/02/22-rdf-syntax-ns#"
   xmlns:svg="http://www.w3.org/2000/svg"
   xmlns="http://www.w3.org/2000/svg"
   xmlns:sodipodi="http://sodipodi.sourceforge.net/DTD/sodipodi-0.dtd"
   xmlns:inkscape="http://www.inkscape.org/namespaces/inkscape"
   viewBox="0 0 100 125"
   x="0px"
   y="0px"
   version="1.1"
   id="svg196"
   class="service-icon" 
   sodipodi:docname="noun_Equalizer_201741.svg"
   inkscape:version="1.0.1 (c497b03c, 2020-09-10)">
  <metadata
     id="metadata202">
    <rdf:RDF>
      <cc:Work
         rdf:about="">
        <dc:format>image/svg+xml</dc:format>
        <dc:type
           rdf:resource="http://purl.org/dc/dcmitype/StillImage" />
        <dc:title></dc:title>
      </cc:Work>
    </rdf:RDF>
  </metadata>
  <defs
     id="defs200" />
  <sodipodi:namedview
     pagecolor="#ffffff"
     bordercolor="#666666"
     borderopacity="1"
     objecttolerance="10"
     gridtolerance="10"
     guidetolerance="10"
     inkscape:pageopacity="0"
     inkscape:pageshadow="2"
     inkscape:window-width="1920"
     inkscape:window-height="1035"
     id="namedview198"
     showgrid="false"
     inkscape:zoom="7.128"
     inkscape:cx="41.161616"
     inkscape:cy="68.111672"
     inkscape:window-x="0"
     inkscape:window-y="23"
     inkscape:window-maximized="1"
     inkscape:current-layer="svg196" />
  <path
     d="m 5,93.125 11.25,0 0,1.874998 -11.25,0 z"
     color="#000"
     id="path10"
     style="fill-opacity:1;fill:#142616" />
  <path
     d="m 5,89.375 11.25,0 0,1.874998 -11.25,0 z"
     color="#000"
     id="path12"
     style="fill-opacity:1;fill:#153a1b" />
  <path
     d="m 5,85.625 11.25,0 0,1.874998 -11.25,0 z"
     color="#000"
     id="path14"
     style="fill-opacity:1;fill:#1d5025" />
  <path
     d="m 5,81.875 11.25,0 0,1.874998 -11.25,0 z"
     color="#000"
     id="path16"
     style="fill-opacity:1;fill:#1d5025" />
  <path
     d="m 5,78.125 11.25,0 0,1.874998 -11.25,0 z"
     color="#000"
     id="path18"
     style="fill-opacity:1;fill:#297134" />
  <path
     d="m 5,74.375 11.25,0 0,1.874998 -11.25,0 z"
     color="#000"
     id="path20"
     style="fill-opacity:1;fill:#297134" />
  <path
     d="m 5,70.625 11.25,0 0,1.874998 -11.25,0 z"
     color="#000"
     id="path22"
     style="fill-opacity:1;fill:#3ba14b" />
  <path
     d="m 5,66.875 11.25,0 0,1.874998 -11.25,0 z"
     color="#000"
     id="path24"
     style="fill-opacity:1;fill:#3ba14b" />
  <path
     d="m 5,63.125 11.25,0 0,1.874998 -11.25,0 z"
     color="#000"
     id="path26"
     style="fill-opacity:1;fill:#45bc5a" />
  <path
     d="m 5,59.375 11.25,0 0,1.874998 -11.25,0 z"
     color="#000"
     id="path28"
     style="fill-opacity:1;fill:#45bc5a" />
  <path
     d="m 5,55.625 11.25,0 0,1.874998 -11.25,0 z"
     color="#000"
     id="path30"
     style="fill-opacity:1;fill:#b1e24e" />
  <path
     d="m 5,51.875 11.25,0 0,1.874998 -11.25,0 z"
     color="#000"
     id="path32"
     style="fill-opacity:1;fill:#b1e24e" />
  <path
     d="m 18.125,93.125 11.25,0 0,1.874998 -11.25,0 z"
     color="#000"
     id="path34"
     style="fill-opacity:1;fill:#142616" />
  <path
     d="m 18.125,89.375 11.25,0 0,1.874998 -11.25,0 z"
     color="#000"
     id="path36"
     style="fill-opacity:1;fill:#153a1b" />
  <path
     d="m 18.125,85.625 11.25,0 0,1.874998 -11.25,0 z"
     color="#000"
     id="path38"
     style="fill-opacity:1;fill:#1d5025" />
  <path
     d="m 18.125,81.875 11.25,0 0,1.874998 -11.25,0 z"
     color="#000"
     id="path40"
     style="fill-opacity:1;fill:#1d5025" />
  <path
     d="m 18.125,78.125 11.25,0 0,1.874998 -11.25,0 z"
     color="#000"
     id="path42"
     style="fill-opacity:1;fill:#297134" />
  <path
     d="m 18.125,74.375 11.25,0 0,1.874998 -11.25,0 z"
     color="#000"
     id="path44"
     style="fill-opacity:1;fill:#297134" />
  <path
     d="m 18.125,70.625 11.25,0 0,1.874998 -11.25,0 z"
     color="#000"
     id="path46"
     style="fill-opacity:1;fill:#3ba14b" />
  <path
     d="m 18.125,66.875 11.25,0 0,1.874998 -11.25,0 z"
     color="#000"
     id="path48"
     style="fill-opacity:1;fill:#3ba14b" />
  <path
     d="m 18.125,63.125 11.25,0 0,1.874998 -11.25,0 z"
     color="#000"
     id="path50"
     style="fill-opacity:1;fill:#45bc5a" />
  <path
     d="m 18.125,59.375 11.25,0 0,1.874998 -11.25,0 z"
     color="#000"
     id="path52"
     style="fill-opacity:1;fill:#45bc5a" />
  <path
     d="m 31.25,93.125 11.25,0 0,1.874998 -11.25,0 z"
     color="#000"
     id="path54"
     style="fill-opacity:1;fill:#142616" />
  <path
     d="m 31.25,89.375 11.25,0 0,1.874998 -11.25,0 z"
     color="#000"
     id="path56"
     style="fill-opacity:1;fill:#153a1b" />
  <path
     d="m 31.25,85.625 11.25,0 0,1.874998 -11.25,0 z"
     color="#000"
     id="path58"
     style="fill-opacity:1;fill:#1d5025" />
  <path
     d="m 31.25,81.875 11.25,0 0,1.874998 -11.25,0 z"
     color="#000"
     id="path60"
     style="fill-opacity:1;fill:#1d5025" />
  <path
     d="m 31.25,78.125 11.25,0 0,1.874998 -11.25,0 z"
     color="#000"
     id="path62"
     style="fill-opacity:1;fill:#297134" />
  <path
     d="m 31.25,74.375 11.25,0 0,1.874998 -11.25,0 z"
     color="#000"
     id="path64"
     style="fill-opacity:1;fill:#297134" />
  <path
     d="m 31.25,70.625 11.25,0 0,1.874998 -11.25,0 z"
     color="#000"
     id="path66"
     style="fill-opacity:1;fill:#3ba14b" />
  <path
     d="m 31.25,66.875 11.25,0 0,1.874998 -11.25,0 z"
     color="#000"
     id="path68"
     style="fill-opacity:1;fill:#3ba14b" />
  <path
     d="m 31.25,63.125 11.25,0 0,1.874998 -11.25,0 z"
     color="#000"
     id="path70"
     style="fill-opacity:1;fill:#45bc5a" />
  <path
     d="m 31.25,59.375 11.25,0 0,1.874998 -11.25,0 z"
     color="#000"
     id="path72"
     style="fill-opacity:1;fill:#45bc5a" />
  <path
     d="m 44.375,93.125 11.25,0 0,1.874998 -11.25,0 z"
     color="#000"
     id="path74"
     style="fill-opacity:1;fill:#142616" />
  <path
     d="m 44.375,89.375 11.25,0 0,1.874998 -11.25,0 z"
     color="#000"
     id="path76"
     style="fill-opacity:1;fill:#153a1b" />
  <path
     d="m 44.375,85.625 11.25,0 0,1.874998 -11.25,0 z"
     color="#000"
     id="path78"
     style="fill-opacity:1;fill:#1d5025" />
  <path
     d="m 44.375,81.875 11.25,0 0,1.874998 -11.25,0 z"
     color="#000"
     id="path80"
     style="fill-opacity:1;fill:#1d5025" />
  <path
     d="m 44.375,78.125 11.25,0 0,1.874998 -11.25,0 z"
     color="#000"
     id="path82"
     style="fill-opacity:1;fill:#297134" />
  <path
     d="m 44.375,74.375 11.25,0 0,1.874998 -11.25,0 z"
     color="#000"
     id="path84"
     style="fill-opacity:1;fill:#297134" />
  <path
     d="m 44.375,70.625 11.25,0 0,1.874998 -11.25,0 z"
     color="#000"
     id="path86"
     style="fill-opacity:1;fill:#3ba14b" />
  <path
     d="m 44.375,66.875 11.25,0 0,1.874998 -11.25,0 z"
     color="#000"
     id="path88"
     style="fill-opacity:1;fill:#3ba14b" />
  <path
     d="m 44.375,63.125 11.25,0 0,1.874998 -11.25,0 z"
     color="#000"
     id="path90"
     style="fill-opacity:1;fill:#45bc5a" />
  <path
     d="m 44.375,59.375 11.25,0 0,1.874998 -11.25,0 z"
     color="#000"
     id="path92"
     style="fill-opacity:1;fill:#45bc5a" />
  <path
     d="m 31.25,55.625 11.25,0 0,1.874998 -11.25,0 z"
     color="#000"
     id="path94"
     style="fill-opacity:1;fill:#b1e24e" />
  <path
     d="m 31.25,51.875 11.25,0 0,1.874998 -11.25,0 z"
     color="#000"
     id="path96"
     style="fill-opacity:1;fill:#b1e24e" />
  <path
     d="m 31.25,48.125 11.25,0 0,1.874998 -11.25,0 z"
     color="#000"
     id="path98"
     style="fill-opacity:1;fill:#e2f5bd" />
  <path
     d="m 31.25,44.375 11.25,0 0,1.874998 -11.25,0 z"
     color="#000"
     id="path100"
     style="fill-opacity:1;fill:#e2f5bd" />
  <path
     d="m 44.375,55.625 11.25,0 0,1.874998 -11.25,0 z"
     color="#000"
     id="path102"
     style="fill-opacity:1;fill:#b1e24e" />
  <path
     d="m 44.375,51.875 11.25,0 0,1.874998 -11.25,0 z"
     color="#000"
     id="path104"
     style="fill-opacity:1;fill:#b1e24e" />
  <path
     d="m 44.375,48.125 11.25,0 0,1.874998 -11.25,0 z"
     color="#000"
     id="path106"
     style="fill-opacity:1;fill:#e2f5bd" />
  <path
     d="m 44.375,44.375 11.25,0 0,1.874998 -11.25,0 z"
     color="#000"
     id="path108"
     style="fill-opacity:1;fill:#e2f5bd" />
  <path
     d="m 44.375,40.625 11.25,0 0,1.874998 -11.25,0 z"
     color="#000"
     id="path110"
     style="fill-opacity:1;fill:#eef8d9" />
  <path
     d="m 44.375,36.875 11.25,0 0,1.874998 -11.25,0 z"
     color="#000"
     id="path112"
     style="fill-opacity:1;fill:#eef8d9" />
  <path
     d="m 44.375,33.125 11.25,0 0,1.874998 -11.25,0 z"
     color="#000"
     id="path114"
     style="fill-opacity:1;fill:#f2fbe0" />
  <path
     d="m 44.375,29.375 11.25,0 0,1.874998 -11.25,0 z"
     color="#000"
     id="path116"
     style="fill-opacity:1;fill:#f2fbe0" />
  <path
     d="m 44.375,25.625 11.25,0 0,1.874998 -11.25,0 z"
     color="#000"
     id="path118"
     style="fill-opacity:1;fill:#f4fee3" />
  <path
     d="m 57.5,93.125 11.25,0 0,1.874998 -11.25,0 z"
     color="#000"
     id="path120"
     style="fill-opacity:1;fill:#142616" />
  <path
     d="m 57.5,89.375 11.25,0 0,1.874998 -11.25,0 z"
     color="#000"
     id="path122"
     style="fill-opacity:1;fill:#153a1b" />
  <path
     d="m 57.5,85.625 11.25,0 0,1.874998 -11.25,0 z"
     color="#000"
     id="path124"
     style="fill-opacity:1;fill:#1d5025" />
  <path
     d="m 57.5,81.875 11.25,0 0,1.874998 -11.25,0 z"
     color="#000"
     id="path126"
     style="fill-opacity:1;fill:#1d5025" />
  <path
     d="m 57.5,78.125 11.25,0 0,1.874998 -11.25,0 z"
     color="#000"
     id="path128"
     style="fill-opacity:1;fill:#297134" />
  <path
     d="m 57.5,74.375 11.25,0 0,1.874998 -11.25,0 z"
     color="#000"
     id="path130"
     style="fill-opacity:1;fill:#297134" />
  <path
     d="m 57.5,70.625 11.25,0 0,1.874998 -11.25,0 z"
     color="#000"
     id="path132"
     style="fill-opacity:1;fill:#3ba14b" />
  <path
     d="m 57.5,66.875 11.25,0 0,1.874998 -11.25,0 z"
     color="#000"
     id="path134"
     style="fill-opacity:1;fill:#3ba14b" />
  <path
     d="m 57.5,63.125 11.25,0 0,1.874998 -11.25,0 z"
     color="#000"
     id="path136"
     style="fill-opacity:1;fill:#45bc5a" />
  <path
     d="m 57.5,59.375 11.25,0 0,1.874998 -11.25,0 z"
     color="#000"
     id="path138"
     style="fill-opacity:1;fill:#45bc5a" />
  <path
     d="m 70.625,93.125 11.25,0 0,1.874998 -11.25,0 z"
     color="#000"
     id="path140"
     style="fill-opacity:1;fill:#142616" />
  <path
     d="m 70.625,89.375 11.25,0 0,1.874998 -11.25,0 z"
     color="#000"
     id="path142"
     style="fill-opacity:1;fill:#153a1b" />
  <path
     d="m 70.625,85.625 11.25,0 0,1.874998 -11.25,0 z"
     color="#000"
     id="path144"
     style="fill-opacity:1;fill:#1d5025" />
  <path
     d="m 70.625,81.875 11.25,0 0,1.874998 -11.25,0 z"
     color="#000"
     id="path146"
     style="fill-opacity:1;fill:#1d5025" />
  <path
     d="m 70.625,78.125 11.25,0 0,1.874998 -11.25,0 z"
     color="#000"
     id="path148"
     style="fill-opacity:1;fill:#297134" />
  <path
     d="m 70.625,74.375 11.25,0 0,1.874998 -11.25,0 z"
     color="#000"
     id="path150"
     style="fill-opacity:1;fill:#297134" />
  <path
     d="m 70.625,70.625 11.25,0 0,1.874998 -11.25,0 z"
     color="#000"
     id="path152"
     style="fill-opacity:1;fill:#3ba14b" />
  <path
     d="m 70.625,66.875 11.25,0 0,1.874998 -11.25,0 z"
     color="#000"
     id="path154"
     style="fill-opacity:1;fill:#3ba14b" />
  <path
     d="m 70.625,63.125 11.25,0 0,1.874998 -11.25,0 z"
     color="#000"
     id="path156"
     style="fill-opacity:1;fill:#45bc5a" />
  <path
     d="m 70.625,59.375 11.25,0 0,1.874998 -11.25,0 z"
     color="#000"
     id="path158"
     style="fill-opacity:1;fill:#45bc5a" />
  <path
     d="m 57.5,55.625 11.25,0 0,1.874998 -11.25,0 z"
     color="#000"
     id="path160"
     style="fill-opacity:1;fill:#b1e24e" />
  <path
     d="m 57.5,51.875 11.25,0 0,1.874998 -11.25,0 z"
     color="#000"
     id="path162"
     style="fill-opacity:1;fill:#b1e24e" />
  <path
     d="m 70.625,55.625 11.25,0 0,1.874998 -11.25,0 z"
     color="#000"
     id="path164"
     style="fill-opacity:1;fill:#b1e24e" />
  <path
     d="m 70.625,51.875 11.25,0 0,1.874998 -11.25,0 z"
     color="#000"
     id="path166"
     style="fill-opacity:1;fill:#b1e24e" />
  <path
     d="m 70.625,48.125 11.25,0 0,1.874998 -11.25,0 z"
     color="#000"
     id="path168"
     style="fill-opacity:1;fill:#e2f5bd" />
  <path
     d="m 70.625,44.375 11.25,0 0,1.874998 -11.25,0 z"
     color="#000"
     id="path170"
     style="fill-opacity:1;fill:#e2f5bd" />
  <path
     d="m 70.625,40.625 11.25,0 0,1.874998 -11.25,0 z"
     color="#000"
     id="path172"
     style="fill-opacity:1;fill:#eef8d9" />
  <path
     d="m 83.75,93.125 11.25,0 0,1.874998 -11.25,0 z"
     color="#000"
     id="path174"
     style="fill-opacity:1;fill:#142616" />
  <path
     d="m 83.75,89.375 11.25,0 0,1.874998 -11.25,0 z"
     color="#000"
     id="path176"
     style="fill-opacity:1;fill:#153a1b" />
  <path
     d="m 83.75,85.625 11.25,0 0,1.874998 -11.25,0 z"
     color="#000"
     id="path178"
     style="fill-opacity:1;fill:#1d5025" />
  <path
     d="m 83.75,81.875 11.25,0 0,1.874998 -11.25,0 z"
     color="#000"
     id="path180"
     style="fill-opacity:1;fill:#1d5025" />
  <path
     d="m 83.75,78.125 11.25,0 0,1.874998 -11.25,0 z"
     color="#000"
     id="path182"
     style="fill-opacity:1;fill:#297134" />
  <path
     d="m 83.75,74.375 11.25,0 0,1.874998 -11.25,0 z"
     color="#000"
     id="path184"
     style="fill-opacity:1;fill:#297134" />
  <path
     d="m 83.75,70.625 11.25,0 0,1.874998 -11.25,0 z"
     color="#000"
     id="path186"
     style="fill-opacity:1;fill:#3ba14b" />
  <path
     d="m 83.75,66.875 11.25,0 0,1.874998 -11.25,0 z"
     color="#000"
     id="path188"
     style="fill-opacity:1;fill:#3ba14b" />
  <path
     d="m 83.75,63.125 11.25,0 0,1.874998 -11.25,0 z"
     color="#000"
     id="path190"
     style="fill-opacity:1;fill:#45bc5a" />
</svg>
