<?xml version="1.0" encoding="UTF-8" standalone="no"?>
<svg
   xmlns:dc="http://purl.org/dc/elements/1.1/"
   xmlns:cc="http://creativecommons.org/ns#"
   xmlns:rdf="http://www.w3.org/1999/02/22-rdf-syntax-ns#"
   xmlns:svg="http://www.w3.org/2000/svg"
   xmlns="http://www.w3.org/2000/svg"
   xmlns:sodipodi="http://sodipodi.sourceforge.net/DTD/sodipodi-0.dtd"
   xmlns:inkscape="http://www.inkscape.org/namespaces/inkscape"
   version="1.1"
   x="0px"
   y="0px"
   viewBox="0 0 512 640"
   xml:space="preserve"
   id="svg911"
   class="service-icon"
   sodipodi:docname="frequency2.svg"
   inkscape:version="1.0.1 (c497b03c, 2020-09-10)"
   style="enable-background:new 0 0 512 512;"><metadata
     id="metadata917"><rdf:RDF><cc:Work
         rdf:about=""><dc:format>image/svg+xml</dc:format><dc:type
           rdf:resource="http://purl.org/dc/dcmitype/StillImage" /><dc:title></dc:title></cc:Work></rdf:RDF></metadata><defs
     id="defs915" /><sodipodi:namedview
     pagecolor="#ffffff"
     bordercolor="#666666"
     borderopacity="1"
     objecttolerance="10"
     gridtolerance="10"
     guidetolerance="10"
     inkscape:pageopacity="0"
     inkscape:pageshadow="2"
     inkscape:window-width="1920"
     inkscape:window-height="1035"
     id="namedview913"
     showgrid="false"
     inkscape:zoom="0.92255338"
     inkscape:cx="-38.111576"
     inkscape:cy="194.75487"
     inkscape:window-x="0"
     inkscape:window-y="23"
     inkscape:window-maximized="1"
     inkscape:current-layer="g875"
     inkscape:document-rotation="0" /><g
     id="g843"
     style="fill:#005600;fill-opacity:1;stroke:#000000;stroke-width:1.00157;stroke-miterlimit:4;stroke-dasharray:none;stroke-opacity:1"><path
       d="m 156.05,295.006 c -1.657,0 -3,-1.343 -3,-3 v -68 c 0,-1.657 1.343,-3 3,-3 1.657,0 3,1.343 3,3 v 68 c 0,1.657 -1.343,3 -3,3 z"
       id="path841"
       style="fill:#005600;fill-opacity:1;stroke:#000000;stroke-width:1.00157;stroke-miterlimit:4;stroke-dasharray:none;stroke-opacity:1" /></g><g
     id="g847"
     style="fill:#008c00;fill-opacity:1;stroke:#000000;stroke-width:1.00157;stroke-miterlimit:4;stroke-dasharray:none;stroke-opacity:1"><path
       d="m 183.05,306.006 c -1.657,0 -3,-1.343 -3,-3 v -90 c 0,-1.657 1.343,-3 3,-3 1.657,0 3,1.343 3,3 v 90 c 0,1.657 -1.343,3 -3,3 z"
       id="path845"
       style="fill:#008c00;fill-opacity:1;stroke:#000000;stroke-width:1.00157;stroke-miterlimit:4;stroke-dasharray:none;stroke-opacity:1" /></g><g
     id="g851"
     style="fill:#00ad00;fill-opacity:1;stroke:#000000;stroke-width:1.00157;stroke-miterlimit:4;stroke-dasharray:none;stroke-opacity:1"><path
       d="m 210.05,322.006 c -1.657,0 -3,-1.343 -3,-3 v -121 c 0,-1.657 1.343,-3 3,-3 1.657,0 3,1.343 3,3 v 121 c 0,1.657 -1.343,3 -3,3 z"
       id="path849"
       style="fill:#00ad00;fill-opacity:1;stroke:#000000;stroke-width:1.00157;stroke-miterlimit:4;stroke-dasharray:none;stroke-opacity:1" /></g><g
     id="g855"
     style="fill:#00d200;fill-opacity:1;stroke:#000000;stroke-width:1.00157;stroke-miterlimit:4;stroke-dasharray:none;stroke-opacity:1"><path
       d="m 237.05,335.006 c -1.657,0 -3,-1.343 -3,-3 v -147 c 0,-1.657 1.343,-3 3,-3 1.657,0 3,1.343 3,3 v 147 c 0,1.657 -1.343,3 -3,3 z"
       id="path853"
       style="fill:#00d200;fill-opacity:1;stroke:#000000;stroke-width:1.00157;stroke-miterlimit:4;stroke-dasharray:none;stroke-opacity:1" /></g><g
     id="g863"
     style="fill:#b7f700;fill-opacity:1;stroke:#000000;stroke-width:1.00157;stroke-miterlimit:4;stroke-dasharray:none;stroke-opacity:1"><path
       d="m 292.05,309.006 c -1.657,0 -3,-1.343 -3,-3 v -95 c 0,-1.657 1.343,-3 3,-3 1.657,0 3,1.343 3,3 v 95 c 0,1.657 -1.343,3 -3,3 z"
       id="path861"
       style="fill:#b7f700;fill-opacity:1;stroke:#000000;stroke-width:1.00157;stroke-miterlimit:4;stroke-dasharray:none;stroke-opacity:1" /></g><g
     id="g867"
     style="fill:#d4ff5a;fill-opacity:1;stroke:#000000;stroke-width:1.00157;stroke-miterlimit:4;stroke-dasharray:none;stroke-opacity:1"><path
       d="m 319.05,296.006 c -1.657,0 -3,-1.343 -3,-3 v -70 c 0,-1.657 1.343,-3 3,-3 1.657,0 3,1.343 3,3 v 70 c 0,1.657 -1.343,3 -3,3 z"
       id="path865"
       style="fill:#d4ff5a;fill-opacity:1;stroke:#000000;stroke-width:1.00157;stroke-miterlimit:4;stroke-dasharray:none;stroke-opacity:1" /></g><g
     id="g871"
     style="fill:#effdc8;fill-opacity:1;stroke:#000000;stroke-width:1.00157;stroke-miterlimit:4;stroke-dasharray:none;stroke-opacity:1"><path
       d="m 346.05,283.006 c -1.657,0 -3,-1.343 -3,-3 v -44 c 0,-1.657 1.343,-3 3,-3 1.657,0 3,1.343 3,3 v 44 c 0,1.657 -1.343,3 -3,3 z"
       id="path869"
       style="fill:#effdc8;fill-opacity:1;stroke:#000000;stroke-width:1.00157;stroke-miterlimit:4;stroke-dasharray:none;stroke-opacity:1" /></g><g
     id="g859"
     style="fill:#0eff0e;fill-opacity:1;stroke:#000000;stroke-width:1.00157;stroke-miterlimit:4;stroke-dasharray:none;stroke-opacity:1"><path
       d="m 265.05,352.006 c -1.657,0 -3,-1.343 -3,-3 v -181 c 0,-1.657 1.343,-3 3,-3 1.657,0 3,1.343 3,3 v 181 c 0,1.657 -1.343,3 -3,3 z"
       id="path857"
       style="fill:#0eff0e;fill-opacity:1;stroke:#000000;stroke-width:1.00157;stroke-miterlimit:4;stroke-dasharray:none;stroke-opacity:1" /></g><g
     id="g875"
     style="fill:#000000;fill-opacity:1"><path
       d="m 450.05,261.006 h -398 c -1.657,0 -3,-1.343 -3,-3 0,-1.657 1.343,-3 3,-3 h 398 c 1.657,0 3,1.343 3,3 0,1.657 -1.343,3 -3,3 z"
       id="path873"
       style="fill:#005600;fill-opacity:1" /></g><g
     id="g839"
     style="fill:#00a000;fill-opacity:1"><path
       d="m 486.05,371.006 h -36 c -1.657,0 -3,-1.343 -3,-3 v -262 h -360 c -1.657,0 -3,-1.343 -3,-3 v -25 c 0,-1.657 1.343,-3 3,-3 h 399 c 1.657,0 3,1.343 3,3 v 290 c 0,1.657 -1.343,3 -3,3 z m -33,-6 h 30 v -284 h -393 v 19 h 360 c 1.657,0 3,1.343 3,3 z"
       id="path837"
       style="fill:#00a000;fill-opacity:1" /></g><g
     id="g835"
     style="fill:#005600;fill-opacity:1"><path
       d="m 450.05,395.006 h -398 c -1.657,0 -3,-1.343 -3,-3 v -289 c 0,-1.657 1.343,-3 3,-3 h 398 c 1.657,0 3,1.343 3,3 v 289 c 0,1.657 -1.343,3 -3,3 z m -395,-6 h 392 v -283 h -392 z"
       id="path833"
       style="fill:#005600;fill-opacity:1" /></g><g
     id="g879"
     style="fill:#005600;fill-opacity:1"><path
       d="m 450.05,143.006 h -377 c -1.657,0 -3,-1.343 -3,-3 0,-1.657 1.343,-3 3,-3 h 377 c 1.657,0 3,1.343 3,3 0,1.657 -1.343,3 -3,3 z"
       id="path877"
       style="fill:#005600;fill-opacity:1" /></g><g
     id="g883"
     style="fill:#00a000;fill-opacity:1"><path
       d="m 332.05,419.006 h -223 c -1.657,0 -3,-1.343 -3,-3 0,-1.657 1.343,-3 3,-3 h 223 c 1.657,0 3,1.343 3,3 0,1.657 -1.343,3 -3,3 z"
       id="path881"
       style="fill:#00a000;fill-opacity:1" /></g><g
     id="g887"
     style="fill:#00a000;fill-opacity:1"><path
       d="m 435.05,419.006 h -64 c -1.657,0 -3,-1.343 -3,-3 0,-1.657 1.343,-3 3,-3 h 64 c 1.657,0 3,1.343 3,3 0,1.657 -1.343,3 -3,3 z"
       id="path885"
       style="fill:#00a000;fill-opacity:1" /></g><g
     id="g891"
     style="fill:#005600;fill-opacity:1"><path
       d="m 356.05,437.006 h -144 c -1.657,0 -3,-1.343 -3,-3 0,-1.657 1.343,-3 3,-3 h 144 c 1.657,0 3,1.343 3,3 0,1.657 -1.343,3 -3,3 z"
       id="path889"
       style="fill:#005600;fill-opacity:1" /></g><g
     id="g895"
     style="fill:#005600;fill-opacity:1"><path
       d="m 93.05,437.006 h -63 c -1.657,0 -3,-1.343 -3,-3 0,-1.657 1.343,-3 3,-3 h 63 c 1.657,0 3,1.343 3,3 0,1.657 -1.343,3 -3,3 z"
       id="path893"
       style="fill:#005600;fill-opacity:1" /></g><g
     id="g899"
     style="fill:#005600;fill-opacity:1"><path
       d="m 178.05,437.006 h -29 c -1.657,0 -3,-1.343 -3,-3 0,-1.657 1.343,-3 3,-3 h 29 c 1.657,0 3,1.343 3,3 0,1.657 -1.343,3 -3,3 z"
       id="path897"
       style="fill:#005600;fill-opacity:1" /></g><g
     id="g903"
     style="fill:#005600;fill-opacity:1"><path
       d="m 26.05,207.006 c -1.657,0 -3,-1.343 -3,-3 v -118 c 0,-1.657 1.343,-3 3,-3 h 37 c 1.657,0 3,1.343 3,3 0,1.657 -1.343,3 -3,3 h -34 v 115 c 0,1.657 -1.343,3 -3,3 z"
       id="path901"
       style="fill:#005600;fill-opacity:1" /></g></svg>
