<?xml version="1.0" encoding="UTF-8" standalone="no"?>
<svg
   xmlns:dc="http://purl.org/dc/elements/1.1/"
   xmlns:cc="http://creativecommons.org/ns#"
   xmlns:rdf="http://www.w3.org/1999/02/22-rdf-syntax-ns#"
   xmlns:svg="http://www.w3.org/2000/svg"
   xmlns="http://www.w3.org/2000/svg"
   xmlns:sodipodi="http://sodipodi.sourceforge.net/DTD/sodipodi-0.dtd"
   xmlns:inkscape="http://www.inkscape.org/namespaces/inkscape"
   version="1.1"
   x="0px"
   y="0px"
   viewBox="0 0 512 640"
   style="enable-background:new 0 0 512 512;"
   xml:space="preserve"
   id="svg911"
   sodipodi:docname="noun_frequency_2298090.svg"
   inkscape:version="1.0.1 (c497b03c, 2020-09-10)"><metadata
     id="metadata917"><rdf:RDF><cc:Work
         rdf:about=""><dc:format>image/svg+xml</dc:format><dc:type
           rdf:resource="http://purl.org/dc/dcmitype/StillImage" /></cc:Work></rdf:RDF></metadata><defs
     id="defs915" /><sodipodi:namedview
     pagecolor="#ffffff"
     bordercolor="#666666"
     borderopacity="1"
     objecttolerance="10"
     gridtolerance="10"
     guidetolerance="10"
     inkscape:pageopacity="0"
     inkscape:pageshadow="2"
     inkscape:window-width="1920"
     inkscape:window-height="1035"
     id="namedview913"
     showgrid="false"
     inkscape:zoom="1.3046875"
     inkscape:cx="256"
     inkscape:cy="320"
     inkscape:window-x="0"
     inkscape:window-y="23"
     inkscape:window-maximized="1"
     inkscape:current-layer="svg911" /><g
     id="g905"><g
       id="g835"><path
         d="M450.05,395.006h-398c-1.657,0-3-1.343-3-3v-289c0-1.657,1.343-3,3-3h398c1.657,0,3,1.343,3,3v289    C453.05,393.663,451.707,395.006,450.05,395.006z M55.05,389.006h392v-283h-392V389.006z"
         id="path833" /></g><g
       id="g839"><path
         d="M486.05,371.006h-36c-1.657,0-3-1.343-3-3v-262h-360c-1.657,0-3-1.343-3-3v-25c0-1.657,1.343-3,3-3h399    c1.657,0,3,1.343,3,3v290C489.05,369.663,487.707,371.006,486.05,371.006z M453.05,365.006h30v-284h-393v19h360    c1.657,0,3,1.343,3,3V365.006z"
         id="path837" /></g><g
       id="g843"><path
         d="M156.05,295.006c-1.657,0-3-1.343-3-3v-68c0-1.657,1.343-3,3-3s3,1.343,3,3v68    C159.05,293.663,157.707,295.006,156.05,295.006z"
         id="path841" /></g><g
       id="g847"><path
         d="M183.05,306.006c-1.657,0-3-1.343-3-3v-90c0-1.657,1.343-3,3-3s3,1.343,3,3v90    C186.05,304.663,184.707,306.006,183.05,306.006z"
         id="path845" /></g><g
       id="g851"><path
         d="M210.05,322.006c-1.657,0-3-1.343-3-3v-121c0-1.657,1.343-3,3-3s3,1.343,3,3v121    C213.05,320.663,211.707,322.006,210.05,322.006z"
         id="path849" /></g><g
       id="g855"><path
         d="M237.05,335.006c-1.657,0-3-1.343-3-3v-147c0-1.657,1.343-3,3-3s3,1.343,3,3v147    C240.05,333.663,238.707,335.006,237.05,335.006z"
         id="path853" /></g><g
       id="g859"><path
         d="M265.05,352.006c-1.657,0-3-1.343-3-3v-181c0-1.657,1.343-3,3-3s3,1.343,3,3v181    C268.05,350.663,266.707,352.006,265.05,352.006z"
         id="path857" /></g><g
       id="g863"><path
         d="M292.05,309.006c-1.657,0-3-1.343-3-3v-95c0-1.657,1.343-3,3-3s3,1.343,3,3v95    C295.05,307.663,293.707,309.006,292.05,309.006z"
         id="path861" /></g><g
       id="g867"><path
         d="M319.05,296.006c-1.657,0-3-1.343-3-3v-70c0-1.657,1.343-3,3-3s3,1.343,3,3v70    C322.05,294.663,320.707,296.006,319.05,296.006z"
         id="path865" /></g><g
       id="g871"><path
         d="M346.05,283.006c-1.657,0-3-1.343-3-3v-44c0-1.657,1.343-3,3-3s3,1.343,3,3v44    C349.05,281.663,347.707,283.006,346.05,283.006z"
         id="path869" /></g><g
       id="g875"><path
         d="M450.05,261.006h-398c-1.657,0-3-1.343-3-3c0-1.657,1.343-3,3-3h398c1.657,0,3,1.343,3,3    C453.05,259.663,451.707,261.006,450.05,261.006z"
         id="path873" /></g><g
       id="g879"><path
         d="M450.05,143.006h-377c-1.657,0-3-1.343-3-3s1.343-3,3-3h377c1.657,0,3,1.343,3,3S451.707,143.006,450.05,143.006z"
         id="path877" /></g><g
       id="g883"><path
         d="M332.05,419.006h-223c-1.657,0-3-1.343-3-3s1.343-3,3-3h223c1.657,0,3,1.343,3,3S333.707,419.006,332.05,419.006z"
         id="path881" /></g><g
       id="g887"><path
         d="M435.05,419.006h-64c-1.657,0-3-1.343-3-3s1.343-3,3-3h64c1.657,0,3,1.343,3,3S436.707,419.006,435.05,419.006z"
         id="path885" /></g><g
       id="g891"><path
         d="M356.05,437.006h-144c-1.657,0-3-1.343-3-3s1.343-3,3-3h144c1.657,0,3,1.343,3,3S357.707,437.006,356.05,437.006z"
         id="path889" /></g><g
       id="g895"><path
         d="M93.05,437.006h-63c-1.657,0-3-1.343-3-3s1.343-3,3-3h63c1.657,0,3,1.343,3,3S94.707,437.006,93.05,437.006z"
         id="path893" /></g><g
       id="g899"><path
         d="M178.05,437.006h-29c-1.657,0-3-1.343-3-3s1.343-3,3-3h29c1.657,0,3,1.343,3,3S179.707,437.006,178.05,437.006z"
         id="path897" /></g><g
       id="g903"><path
         d="M26.05,207.006c-1.657,0-3-1.343-3-3v-118c0-1.657,1.343-3,3-3h37c1.657,0,3,1.343,3,3s-1.343,3-3,3h-34v115    C29.05,205.663,27.707,207.006,26.05,207.006z"
         id="path901" /></g></g></svg>
