<?xml version="1.0" encoding="UTF-8" standalone="no"?>
<svg
   xmlns:dc="http://purl.org/dc/elements/1.1/"
   xmlns:cc="http://creativecommons.org/ns#"
   xmlns:rdf="http://www.w3.org/1999/02/22-rdf-syntax-ns#"
   xmlns:svg="http://www.w3.org/2000/svg"
   xmlns="http://www.w3.org/2000/svg"
   xmlns:sodipodi="http://sodipodi.sourceforge.net/DTD/sodipodi-0.dtd"
   xmlns:inkscape="http://www.inkscape.org/namespaces/inkscape"
   version="1.1"
   x="0px"
   y="0px"
   viewBox="0 0 512 640"
   style="enable-background:new 0 0 512 512;"
   xml:space="preserve"
   id="svg865"
   sodipodi:docname="noun_Controller_2380787.svg"
   inkscape:version="1.0.1 (c497b03c, 2020-09-10)"><metadata
     id="metadata871"><rdf:RDF><cc:Work
         rdf:about=""><dc:format>image/svg+xml</dc:format><dc:type
           rdf:resource="http://purl.org/dc/dcmitype/StillImage" /></cc:Work></rdf:RDF></metadata><defs
     id="defs869" /><sodipodi:namedview
     pagecolor="#ffffff"
     bordercolor="#666666"
     borderopacity="1"
     objecttolerance="10"
     gridtolerance="10"
     guidetolerance="10"
     inkscape:pageopacity="0"
     inkscape:pageshadow="2"
     inkscape:window-width="1920"
     inkscape:window-height="1035"
     id="namedview867"
     showgrid="false"
     inkscape:zoom="1.3046875"
     inkscape:cx="256"
     inkscape:cy="320"
     inkscape:window-x="0"
     inkscape:window-y="23"
     inkscape:window-maximized="1"
     inkscape:current-layer="svg865" /><g
     id="g859"><g
       id="g857"><path
         d="M381,351V166h-30v310h50V356h-15C383.238,356,381,353.762,381,351z"
         id="path833" /><rect
         x="291"
         y="166"
         width="50"
         height="310"
         id="rect835" /><path
         d="M251,351c0,2.762-2.239,5-5,5h-15v120h50V166h-30V351z"
         id="path837" /><polygon
         points="421,166 391,166 391,346 406,346 421,346   "
         id="polygon839" /><path
         d="M431,351c0,2.762-2.238,5-5,5h-15v120h45.5c7.995,0,14.5-6.505,14.5-14.5V166h-40V351z"
         id="path841" /><polygon
         points="241,166 211,166 211,346 226,346 241,346   "
         id="polygon843" /><path
         d="M81,351V166H41v295.5c0,7.995,6.505,14.5,14.5,14.5H101V356H86C83.239,356,81,353.762,81,351z"
         id="path845" /><polygon
         points="121,166 91,166 91,346 106,346 121,346   "
         id="polygon847" /><path
         d="M131,351c0,2.762-2.239,5-5,5h-15v120h50V166h-30V351z"
         id="path849" /><rect
         x="71"
         y="96"
         width="70"
         height="30"
         id="rect851" /><path
         d="M201,351V166h-30v310h50V356h-15C203.239,356,201,353.762,201,351z"
         id="path853" /><path
         d="M456.5,36h-401C47.505,36,41,42.505,41,50.5V156h45h40h40h40h40h40h60h40h40h45V50.5C471,42.505,464.495,36,456.5,36z     M151,131c0,2.761-2.239,5-5,5H66c-2.761,0-5-2.239-5-5V91c0-2.761,2.239-5,5-5h80c2.761,0,5,2.239,5,5V131z M206,86h-5v35    c0,2.761-2.239,5-5,5s-5-2.239-5-5V86h-5c-2.761,0-5-2.239-5-5s2.239-5,5-5h5v-5c0-2.761,2.239-5,5-5s5,2.239,5,5v5h5    c2.761,0,5,2.239,5,5S208.761,86,206,86z M256,106h-5v15c0,2.761-2.239,5-5,5s-5-2.239-5-5v-15h-5c-2.761,0-5-2.239-5-5    s2.239-5,5-5h5V71c0-2.761,2.239-5,5-5s5,2.239,5,5v25h5c2.762,0,5,2.239,5,5S258.762,106,256,106z M306,96h-5v25    c0,2.761-2.238,5-5,5s-5-2.239-5-5V96h-5c-2.762,0-5-2.239-5-5s2.238-5,5-5h5V71c0-2.761,2.238-5,5-5s5,2.239,5,5v15h5    c2.762,0,5,2.239,5,5S308.762,96,306,96z M356,111h-20V91h20V111z M356,81h-20V61h20V81z M386,111h-20V91h20V111z M386,81h-20V61    h20V81z M416,111h-20V91h20V111z M416,81h-20V61h20V81z M446,111h-20V91h20V111z M446,81h-20V61h20V81z"
         id="path855" /></g></g></svg>
