<?xml version="1.0" encoding="UTF-8" standalone="no"?>
<svg
   xmlns:dc="http://purl.org/dc/elements/1.1/"
   xmlns:cc="http://creativecommons.org/ns#"
   xmlns:rdf="http://www.w3.org/1999/02/22-rdf-syntax-ns#"
   xmlns:svg="http://www.w3.org/2000/svg"
   xmlns="http://www.w3.org/2000/svg"
   xmlns:sodipodi="http://sodipodi.sourceforge.net/DTD/sodipodi-0.dtd"
   xmlns:inkscape="http://www.inkscape.org/namespaces/inkscape"
   width="210mm"
   height="297mm"
   viewBox="0 0 210 297"
   version="1.1"
   id="svg8"
   sodipodi:docname="osc.svg"
   inkscape:version="1.0.1 (c497b03c, 2020-09-10)">
  <defs
     id="defs2" />
  <sodipodi:namedview
     id="base"
     pagecolor="#ffffff"
     bordercolor="#666666"
     borderopacity="1.0"
     inkscape:pageopacity="0.0"
     inkscape:pageshadow="2"
     inkscape:zoom="0.49497475"
     inkscape:cx="-127.44106"
     inkscape:cy="218.47451"
     inkscape:document-units="mm"
     inkscape:current-layer="layer1"
     inkscape:document-rotation="0"
     showgrid="false"
     inkscape:object-paths="true"
     inkscape:snap-intersection-paths="true"
     inkscape:snap-bbox="true"
     inkscape:bbox-nodes="true"
     inkscape:window-width="1655"
     inkscape:window-height="869"
     inkscape:window-x="168"
     inkscape:window-y="132"
     inkscape:window-maximized="0" />
  <metadata
     id="metadata5">
    <rdf:RDF>
      <cc:Work
         rdf:about="">
        <dc:format>image/svg+xml</dc:format>
        <dc:type
           rdf:resource="http://purl.org/dc/dcmitype/StillImage" />
      </cc:Work>
    </rdf:RDF>
  </metadata>
  <g
     inkscape:label="Layer 1"
     inkscape:groupmode="layer"
     id="layer1">
    <g
       id="g943"
       transform="matrix(0.9931896,0,0,1.3384957,9.6615194,-4.0968919)"
       style="fill:#00e800;fill-opacity:1;stroke:none;stroke-width:1.00006;stroke-miterlimit:4;stroke-dasharray:none;stroke-dashoffset:0;stroke-opacity:1">
      <path
         d="m 73,63.5 c -3.541,0 -4.659,-5.833 -6.075,-13.218 -0.673,-3.508 -1.914,-9.984 -3.128,-10.757 -1.214,0.773 -2.456,7.249 -3.128,10.757 C 59.253,57.667 58.135,63.5 54.593,63.5 51.054,63.5 49.937,57.667 48.522,50.283 47.85,46.776 46.609,40.303 45.397,39.525 44.183,40.301 42.942,46.775 42.27,50.283 40.854,57.667 39.737,63.5 36.197,63.5 32.658,63.5 31.54,57.667 30.125,50.282 29.44,46.71 28.167,40.062 26.933,39.488 L 27,36.5 c 3.539,0 4.656,5.833 6.071,13.217 0.672,3.507 1.913,9.98 3.125,10.758 1.213,-0.777 2.454,-7.25 3.126,-10.757 1.416,-7.385 2.533,-13.218 6.073,-13.218 3.539,0 4.657,5.833 6.072,13.218 0.672,3.507 1.912,9.98 3.125,10.757 1.214,-0.774 2.456,-7.25 3.128,-10.758 1.416,-7.385 2.534,-13.217 6.075,-13.217 3.541,0 4.659,5.833 6.075,13.218 0.685,3.572 1.96,10.222 3.195,10.794 z"
         id="path941"
         style="fill:#00e800;fill-opacity:1;stroke:none;stroke-width:1.00006;stroke-miterlimit:4;stroke-dasharray:none;stroke-dashoffset:0;stroke-opacity:1" />
    </g>
    <g
       id="g973"
       transform="matrix(0.92479167,0,0,1.4492713,645.51308,-121.45238)"
       style="fill:#00e800;fill-opacity:1;stroke:none;stroke-opacity:1">
      <polygon
         points="-610.74,176.796 -610.74,179.796 -618.339,179.796 -618.339,156.296 -623.47,156.296 -623.47,179.796 -635.28,179.796 -635.28,156.296 -640.412,156.296 -640.412,180.296 -651.714,180.296 -651.714,156.296 -656.99,156.296 -656.99,153.296 -648.714,153.296 -648.714,177.296 -643.412,177.296 -643.412,153.296 -632.28,153.296 -632.28,176.796 -626.47,176.796 -626.47,153.296 -615.339,153.296 -615.339,176.796 "
         id="polygon971"
         style="fill:#00e800;fill-opacity:1;stroke:none;stroke-opacity:1" />
    </g>
    <g
       id="g935"
       transform="matrix(0.79359699,0,0,1.5540256,666.27005,-196.02615)"
       style="fill:#00e800;fill-opacity:1;stroke:none;stroke-opacity:1">
      <polygon
         points="-688.053,172.133 -679.21,153.917 -669.193,177.993 -671.963,179.145 -679.421,161.221 -688.053,179.005 -696.784,161.006 -705.624,179.223 -715.635,155.145 -712.865,153.994 -705.413,171.916 -696.784,154.133 "
         id="polygon933"
         style="fill:#00e800;fill-opacity:1;stroke:none;stroke-opacity:1" />
    </g>
    <g
       id="g939"
       transform="matrix(0.86058583,0,0,1.5138588,609.47369,-135.13339)"
       style="fill:#00e800;fill-opacity:1;stroke:none;stroke-opacity:1">
      <polygon
         points="-563.58,181.277 -577.834,163.277 -577.833,181.641 -595.58,156.84 -593.14,155.094 -580.833,172.292 -580.834,154.656 -566.58,172.657 -566.577,154.123 -549.457,179.119 -551.931,180.814 -563.579,163.81 "
         id="polygon937"
         style="fill:#00e800;fill-opacity:1;stroke:none;stroke-opacity:1" />
    </g>
    <path
       style="fill:none;stroke:#005600;stroke-width:1.85208;stroke-linecap:square;stroke-miterlimit:4;stroke-dasharray:none;stroke-opacity:1;paint-order:stroke fill markers"
       d="M 30.593818,34.101703 H 88.046195 V 91.55408 H 30.593818 Z"
       id="path1853" />
    <path
       style="fill:none;stroke:#005600;stroke-width:1.85208;stroke-linecap:square;stroke-miterlimit:4;stroke-dasharray:none;stroke-opacity:1;paint-order:stroke fill markers"
       d="M 88.046192,34.101703 H 145.49857 V 91.55408 H 88.046192 Z"
       id="path1851" />
    <path
       style="fill:none;stroke:#005600;stroke-width:1.85208;stroke-linecap:square;stroke-miterlimit:4;stroke-dasharray:none;stroke-opacity:1;paint-order:stroke fill markers"
       d="M 30.593818,91.554084 H 88.046195 V 149.00647 H 30.593818 Z"
       id="path1849" />
    <path
       style="fill:none;stroke:#005600;stroke-width:1.85208;stroke-linecap:square;stroke-miterlimit:4;stroke-dasharray:none;stroke-opacity:1;paint-order:stroke fill markers"
       d="M 88.046192,91.554084 H 145.49857 V 149.00647 H 88.046192 Z"
       id="rect1840" />
  </g>
</svg>
