<?xml version="1.0" encoding="UTF-8" standalone="no"?>
<svg
   xmlns:dc="http://purl.org/dc/elements/1.1/"
   xmlns:cc="http://creativecommons.org/ns#"
   xmlns:rdf="http://www.w3.org/1999/02/22-rdf-syntax-ns#"
   xmlns:svg="http://www.w3.org/2000/svg"
   xmlns="http://www.w3.org/2000/svg"
   xmlns:sodipodi="http://sodipodi.sourceforge.net/DTD/sodipodi-0.dtd"
   xmlns:inkscape="http://www.inkscape.org/namespaces/inkscape"
   version="1.1"
   x="0px"
   y="0px"
   viewBox="0 0 66 82.5"
   enable-background="new 0 0 66 66"
   xml:space="preserve"
   id="svg875"
   class="service-icon" 

   sodipodi:docname="post-prod2.svg"
   inkscape:version="1.0.1 (c497b03c, 2020-09-10)"><metadata
     id="metadata881"><rdf:RDF><cc:Work
         rdf:about=""><dc:format>image/svg+xml</dc:format><dc:type
           rdf:resource="http://purl.org/dc/dcmitype/StillImage" /><dc:title></dc:title></cc:Work></rdf:RDF></metadata><defs
     id="defs879" /><sodipodi:namedview
     pagecolor="#ffffff"
     bordercolor="#666666"
     borderopacity="1"
     objecttolerance="10"
     gridtolerance="10"
     guidetolerance="10"
     inkscape:pageopacity="0"
     inkscape:pageshadow="2"
     inkscape:window-width="1920"
     inkscape:window-height="1035"
     id="namedview877"
     showgrid="false"
     inkscape:zoom="10.121212"
     inkscape:cx="33.377943"
     inkscape:cy="41.249999"
     inkscape:window-x="0"
     inkscape:window-y="23"
     inkscape:window-maximized="1"
     inkscape:current-layer="svg875"
     inkscape:document-rotation="0" /><path
     d="m 7.1,58 h 14.3 v 0.1 c 0,0.6 0.4,1 1,1 0.6,0 1,-0.4 1,-1 V 58 h 7.4 c 0.6,0 1,-0.4 1,-1 0,-0.6 -0.4,-1 -1,-1 h -7.4 v -0.1 c 0,-0.6 -0.4,-1 -1,-1 -0.6,0 -1,0.4 -1,1 V 56 H 7.1 c -0.6,0 -1,0.4 -1,1 0,0.6 0.5,1 1,1 z"
     id="path833"
     style="fill:#00bd46;fill-opacity:1;stroke-width:1" /><path
     d="m 40.6,58 h 1.1 c 0.6,0 1,-0.4 1,-1 0,-0.6 -0.4,-1 -1,-1 h -1.1 c -0.6,0 -1,0.4 -1,1 0,0.6 0.4,1 1,1 z"
     id="path837"
     style="fill:#00bd46;fill-opacity:1;stroke-width:1" /><path
     d="m 30.2,36.8 -6.7,-4.2 c -0.3,-0.2 -0.7,-0.2 -1,0 -0.3,0.2 -0.5,0.5 -0.5,0.9 V 42 c 0,0.4 0.2,0.7 0.5,0.9 0.2,0.1 0.3,0.1 0.5,0.1 0.2,0 0.4,-0.1 0.5,-0.2 l 6.7,-4.2 c 0.3,-0.2 0.5,-0.5 0.5,-0.8 0,-0.5 -0.2,-0.8 -0.5,-1 z M 24,40.1 v -4.8 l 3.9,2.4 z"
     id="path841"
     style="fill:#c83737;fill-opacity:1" /><path
     d="m 25.4,28.2 c -5.2,0 -9.4,4.2 -9.4,9.4 0,5.2 4.2,9.4 9.4,9.4 5.2,0 9.4,-4.2 9.4,-9.4 0,-5.1 -4.3,-9.4 -9.4,-9.4 z m 0,16.9 c -4.1,0 -7.4,-3.3 -7.4,-7.4 0,-4.1 3.3,-7.4 7.4,-7.4 4.1,0 7.4,3.3 7.4,7.4 0,4.1 -3.4,7.4 -7.4,7.4 z"
     id="path845"
     style="fill:#c83737;fill-opacity:1" /><path
     d="M 55,12.4 V 4.9 c 0,-0.4 -0.3,-0.8 -0.7,-1 -0.4,-0.1 -0.9,0 -1.1,0.4 -0.3,0.4 -7.1,10.9 -23.5,7.8 -0.1,0 -1.1,-0.2 -1.9,0.5 -0.7,0.6 -1,1.5 -0.9,2.7 0,4.8 0,4.6 0,5 H 2 c -0.6,0 -1,0.4 -1,1 0,13.6 0,24.1 0,39.7 0,0.6 0.4,1 1,1 h 46.7 c 0.6,0 1,-0.4 1,-1 0,-12.8 0,-26.7 0,-34.1 2.3,1.8 3.4,3.5 3.5,3.7 0.2,0.4 0.7,0.6 1.1,0.4 0.4,-0.1 0.7,-0.5 0.7,-1 v -7.5 c 2.4,-0.5 4.2,-2.6 4.2,-5.1 0,-2.5 -1.8,-4.5 -4.2,-5 z m -26,1.9 c 0.1,-0.1 0.3,-0.1 0.3,-0.1 2.7,0.5 5.1,0.6 7.3,0.5 v 5.6 c -2.3,-0.1 -4.7,0.1 -7.3,0.5 0,0 -0.2,0 -0.3,-0.1 -0.4,-0.4 -0.3,-6.1 0,-6.4 z m 3.7,8.2 2.5,-0.1 c 0.1,1.5 0.6,4.1 2.7,5.9 0.5,0.4 1.6,1.5 1.4,2.2 -0.3,0.2 -1.6,0.9 -3.7,0.2 C 35,30 35.1,28.9 35,28.6 35,28.5 34.1,24.7 32.7,22.5 Z m 15,37.6 H 3 v -6.2 h 44.7 z m 0,-34.5 V 51.9 H 3 V 22.4 h 24.9 c 0.8,0.5 1.6,0.4 1.7,0.4 0.3,-0.1 0.7,-0.1 1,-0.2 0,0.1 0,0.4 0.2,0.7 1.2,1.7 2.1,5.1 2.2,5.7 0.1,1.4 0.7,3 1.7,3.4 5.9,2.1 9,-2.3 4.4,-5.7 -1.4,-1.2 -1.8,-3.2 -1.9,-4.3 0.1,0 0.3,0 0.4,0 0,0 0,0 0,0 0,0 0,0 0,0 4.4,0.3 7.7,1.7 10.1,3.2 0,0 0,0 0,0 z M 53,27.4 C 50.6,25 46,21.3 38.6,20.5 V 14.6 C 46,13.7 50.7,10.1 53,7.7 c 0,7.1 0,12.5 0,19.7 z m 2,-6.9 v -6.1 c 1.3,0.4 2.2,1.6 2.2,3 0,1.5 -0.9,2.7 -2.2,3.1 z"
     id="path849"
     style="fill:#005600;fill-opacity:1" /><path
     d="m 61.4,13.1 1.7,-0.7 c 0.5,-0.2 0.8,-0.8 0.5,-1.3 -0.2,-0.5 -0.8,-0.8 -1.3,-0.5 l -1.7,0.7 c -0.5,0.2 -0.8,0.8 -0.5,1.3 0.2,0.5 0.8,0.7 1.3,0.5 z"
     id="path853"
     style="fill:#ffff00" /><path
     d="m 64,16.5 h -1.9 c -0.6,0 -1,0.4 -1,1 0,0.6 0.4,1 1,1 H 64 c 0.6,0 1,-0.4 1,-1 0,-0.5 -0.4,-1 -1,-1 z"
     id="path857"
     style="fill:#ffff00" /><path
     d="m 63.2,22.6 -1.7,-0.7 c -0.5,-0.2 -1.1,0 -1.3,0.5 -0.2,0.5 0,1.1 0.5,1.3 l 1.7,0.7 c 0.5,0.2 1.1,0 1.3,-0.5 0.2,-0.5 0,-1.1 -0.5,-1.3 z"
     id="path861"
     style="fill:#ffff00" /><path
     d="m 32.1,18.5 h 0.5 c 0.6,0 1,-0.4 1,-1 0,-0.6 -0.4,-1 -1,-1 h -0.5 c -0.6,0 -1,0.4 -1,1 0,0.6 0.4,1 1,1 z"
     id="path865"
     style="fill:#ffff00" /></svg>
