<?xml version="1.0" encoding="UTF-8" standalone="no"?>
<svg
   xmlns:dc="http://purl.org/dc/elements/1.1/"
   xmlns:cc="http://creativecommons.org/ns#"
   xmlns:rdf="http://www.w3.org/1999/02/22-rdf-syntax-ns#"
   xmlns:svg="http://www.w3.org/2000/svg"
   xmlns="http://www.w3.org/2000/svg"
   xmlns:sodipodi="http://sodipodi.sourceforge.net/DTD/sodipodi-0.dtd"
   xmlns:inkscape="http://www.inkscape.org/namespaces/inkscape"
   version="1.1"
   x="0px"
   y="0px"
   viewBox="0 0 512 640"
   style="enable-background:new 0 0 512 512;"
   xml:space="preserve"
   id="svg879"
   sodipodi:docname="production.svg"
   inkscape:version="1.0.1 (c497b03c, 2020-09-10)"><metadata
     id="metadata885"><rdf:RDF><cc:Work
         rdf:about=""><dc:format>image/svg+xml</dc:format><dc:type
           rdf:resource="http://purl.org/dc/dcmitype/StillImage" /><dc:title></dc:title></cc:Work></rdf:RDF></metadata><defs
     id="defs883" /><sodipodi:namedview
     pagecolor="#ffffff"
     bordercolor="#666666"
     borderopacity="1"
     objecttolerance="10"
     gridtolerance="10"
     guidetolerance="10"
     inkscape:pageopacity="0"
     inkscape:pageshadow="2"
     inkscape:window-width="1920"
     inkscape:window-height="1035"
     id="namedview881"
     showgrid="false"
     inkscape:zoom="1.3046875"
     inkscape:cx="256"
     inkscape:cy="320"
     inkscape:window-x="0"
     inkscape:window-y="23"
     inkscape:window-maximized="1"
     inkscape:current-layer="svg879" /><g
     id="g873"><g
       id="g835"><path
         d="M331.05,229.006c-30.879,0-56-24.673-56-55c0-15.207,5.866-29.372,16.518-39.885    c10.528-10.392,24.551-16.115,39.482-16.115s28.954,5.723,39.482,16.115c10.651,10.513,16.518,24.678,16.518,39.885    C387.05,204.333,361.929,229.006,331.05,229.006z M331.05,124.006c-28.037,0-50,21.962-50,50c0,27.019,22.43,49,50,49    s50-21.981,50-49C381.05,145.968,359.087,124.006,331.05,124.006z"
         id="path833" /></g><g
       id="g839"><path
         d="M350.05,127.006c-0.318,0-0.639-0.051-0.948-0.154c-5.825-1.942-11.562-2.846-18.052-2.846s-12.227,0.904-18.052,2.846    c-0.916,0.303-1.92,0.151-2.702-0.413c-0.782-0.564-1.246-1.469-1.246-2.434v-93c0-1.657,1.343-3,3-3h38c1.657,0,3,1.343,3,3v93    c0,0.964-0.464,1.87-1.246,2.434C351.286,126.813,350.672,127.006,350.05,127.006z M331.05,118.006c5.693,0,10.87,0.635,16,1.978    V34.006h-32v85.978C320.18,118.641,325.356,118.006,331.05,118.006z"
         id="path837" /></g><g
       id="g843"><path
         d="M187.05,221.006c-10.654,0-19-8.346-19-19s8.346-19,19-19s19,8.346,19,19S197.705,221.006,187.05,221.006z     M187.05,189.006c-7.29,0-13,5.71-13,13s5.71,13,13,13s13-5.71,13-13S194.34,189.006,187.05,189.006z"
         id="path841" /></g><g
       id="g847"><path
         d="M331.05,446.006c-1.657,0-3-1.343-3-3v-269c0-1.657,1.343-3,3-3s3,1.343,3,3v269    C334.05,444.663,332.707,446.006,331.05,446.006z"
         id="path845" /></g><g
       id="g851"><path
         d="M379.05,446.006h-161c-0.816,0-1.597-0.332-2.163-0.921c-0.565-0.588-0.867-1.381-0.835-2.196l1.998-50.941    c-0.006-14.047-2.311-22.221-4.32-25.031c-5.34-5.759-11.043-6.943-17.952-6.943c-2.895,0-6.015,0.225-9.317,0.462    c-3.914,0.28-7.961,0.571-12.411,0.571c-0.389,0.008-0.825-0.012-1.271,0.012c-11.661,0-19.915-2.858-25.236-8.738    c-8.662-9.572-7.139-24.771-5.796-38.18c1.373-13.698,1.804-22.168-3.766-24.29c-0.093-0.036-0.185-0.076-0.274-0.12    c-1.366-0.684-1.366-0.684-3.658-0.684c-0.203,0-0.404-0.021-0.603-0.062c-12.248-2.512-18.491-6.024-20.244-11.388    c-2.399-7.341,4.572-15.025,13.398-24.755c4.993-5.503,10.651-11.741,14.921-18.413c4.374-6.833,4.262-17.762,4.121-31.597    c-0.165-16.165-0.37-36.282,7.044-57.605c8.686-24.98,25.895-46.445,52.613-65.619c26.545-19.223,61.424-29.813,98.201-29.813    c3.229,0,6.494,0.085,9.705,0.254c1.594,0.084,2.843,1.4,2.843,2.996v66.978c5.13-1.343,10.307-1.978,16-1.978    s10.87,0.635,16,1.978V60.006c0-0.957,0.457-1.857,1.229-2.422c0.773-0.565,1.769-0.727,2.68-0.437    c23.168,7.372,42.209,18.734,58.212,34.738c26.417,26.905,39.073,60.982,36.622,98.566c-2.299,35.259-18.112,70.622-44.527,99.576    c-0.03,0.034-0.063,0.067-0.095,0.1c-5.144,5.144-11.132,20.175-12.124,41.021l-7.003,112.045    C381.945,444.774,380.634,446.006,379.05,446.006z M221.17,440.006h155.061l6.824-109.188c0.926-19.444,6.478-37.48,13.821-44.882    c54.243-59.497,57.622-139.32,8.032-189.829c-14.384-14.383-31.387-24.865-51.859-31.945v59.844c0,0.964-0.464,1.87-1.246,2.434    c-0.782,0.564-1.787,0.717-2.702,0.413c-5.825-1.942-11.562-2.846-18.052-2.846s-12.227,0.904-18.052,2.846    c-0.916,0.303-1.92,0.151-2.702-0.413c-0.782-0.564-1.246-1.469-1.246-2.434V55.875c-37.249-1.359-74.505,9.201-101.24,28.561    c-57.948,41.586-57.496,85.922-57.166,118.295c0.151,14.835,0.271,26.552-5.067,34.893c-4.542,7.096-10.38,13.532-15.531,19.21    c-6.919,7.628-13.455,14.832-12.139,18.859c0.657,2.01,3.876,4.902,15.451,7.313c2.963,0.004,3.559,0.086,5.907,1.253    c10.105,3.977,8.817,16.832,7.454,30.439c-1.219,12.167-2.601,25.957,4.274,33.555c4.119,4.552,10.918,6.765,20.787,6.765    c0.394-0.038,0.808-0.004,1.216-0.011c4.29-0.001,8.228-0.284,12.036-0.558c3.413-0.245,6.637-0.477,9.747-0.477    c7.036,0,15.209,1.07,22.483,9.006c0.066,0.072,0.129,0.148,0.188,0.228c3.559,4.745,5.6,15.242,5.6,28.8    c0,0.039-0.001,0.078-0.002,0.117L221.17,440.006z"
         id="path849" /></g><g
       id="g855"><path
         d="M408.05,473.006h-236c-1.657,0-3-1.343-3-3s1.343-3,3-3h236c1.657,0,3,1.343,3,3S409.707,473.006,408.05,473.006z"
         id="path853" /></g><g
       id="g859"><path
         d="M270.05,489.006h-164c-1.657,0-3-1.343-3-3s1.343-3,3-3h164c1.657,0,3,1.343,3,3S271.707,489.006,270.05,489.006z"
         id="path857" /></g><g
       id="g863"><path
         d="M90.05,489.006h-21c-1.657,0-3-1.343-3-3s1.343-3,3-3h21c1.657,0,3,1.343,3,3S91.707,489.006,90.05,489.006z"
         id="path861" /></g><g
       id="g867"><path
         d="M418.05,488.006h-78c-1.657,0-3-1.343-3-3s1.343-3,3-3h78c1.657,0,3,1.343,3,3S419.707,488.006,418.05,488.006z"
         id="path865" /></g><g
       id="g871"><path
         d="M114.047,212.006c-0.553,0-1.113-0.153-1.614-0.474c-1.396-0.893-1.803-2.749-0.91-4.144    c4.39-6.859,4.356-17.824,4.313-31.705c-0.05-16.154-0.112-36.257,7.316-57.555c8.703-24.952,25.756-46.394,52.135-65.55    c29.823-20.877,69.521-31.642,108.919-29.569c1.655,0.087,2.926,1.499,2.839,3.154c-0.088,1.654-1.526,2.907-3.153,2.838    c-38.109-2.009-76.417,8.368-105.122,28.461c-57.171,41.518-57.034,85.839-56.934,118.202c0.046,14.868,0.082,26.612-5.259,34.958    C116.004,211.518,115.036,212.006,114.047,212.006z"
         id="path869" /></g></g></svg>
