<svg
   xmlns:dc="http://purl.org/dc/elements/1.1/"
   xmlns:cc="http://creativecommons.org/ns#"
   xmlns:rdf="http://www.w3.org/1999/02/22-rdf-syntax-ns#"
   xmlns:svg="http://www.w3.org/2000/svg"
   xmlns="http://www.w3.org/2000/svg"
   xmlns:xlink="http://www.w3.org/1999/xlink"
   xmlns:sodipodi="http://sodipodi.sourceforge.net/DTD/sodipodi-0.dtd"
   xmlns:inkscape="http://www.inkscape.org/namespaces/inkscape"
   version="1.1"
   x="0px"
   y="0px"
   viewBox="0 0 512 640"
   style="enable-background:new 0 0 512 512;"
   xml:space="preserve"
   id="svg865"
   class="service-icon" 

   sodipodi:docname="midi_controller2.svg"
   inkscape:version="1.0.1 (c497b03c, 2020-09-10)"><metadata
     id="metadata871"><rdf:RDF><cc:Work
         rdf:about=""><dc:format>image/svg+xml</dc:format><dc:type
           rdf:resource="http://purl.org/dc/dcmitype/StillImage" /><dc:title></dc:title></cc:Work></rdf:RDF></metadata><defs
     id="defs869"><linearGradient
       inkscape:collect="always"
       id="linearGradient2338"><stop
         style="stop-color:#ffff00;stop-opacity:1;"
         offset="0"
         id="stop2334" /><stop
         style="stop-color:#21b300;stop-opacity:1"
         offset="1"
         id="stop2336" /></linearGradient><linearGradient
       inkscape:collect="always"
       id="linearGradient2332"><stop
         style="stop-color:#ffff00;stop-opacity:1;"
         offset="0"
         id="stop2328" /><stop
         style="stop-color:#21b300;stop-opacity:1"
         offset="1"
         id="stop2330" /></linearGradient><linearGradient
       inkscape:collect="always"
       id="linearGradient2326"><stop
         style="stop-color:#ffff00;stop-opacity:1;"
         offset="0"
         id="stop2322" /><stop
         style="stop-color:#21b300;stop-opacity:1"
         offset="1"
         id="stop2324" /></linearGradient><linearGradient
       inkscape:collect="always"
       id="linearGradient2320"><stop
         style="stop-color:#ffff00;stop-opacity:1;"
         offset="0"
         id="stop2316" /><stop
         style="stop-color:#21b300;stop-opacity:1"
         offset="1"
         id="stop2318" /></linearGradient><linearGradient
       inkscape:collect="always"
       id="linearGradient2314"><stop
         style="stop-color:#ffff00;stop-opacity:1;"
         offset="0"
         id="stop2310" /><stop
         style="stop-color:#21b300;stop-opacity:1"
         offset="1"
         id="stop2312" /></linearGradient><linearGradient
       inkscape:collect="always"
       id="linearGradient2308"><stop
         style="stop-color:#ffff00;stop-opacity:1;"
         offset="0"
         id="stop2304" /><stop
         style="stop-color:#21b300;stop-opacity:1"
         offset="1"
         id="stop2306" /></linearGradient><linearGradient
       inkscape:collect="always"
       id="linearGradient2282"><stop
         style="stop-color:#ffff00;stop-opacity:1;"
         offset="0"
         id="stop2278" /><stop
         style="stop-color:#21b300;stop-opacity:1"
         offset="1"
         id="stop2280" /></linearGradient><linearGradient
       inkscape:collect="always"
       xlink:href="#linearGradient2314"
       id="linearGradient2284"
       x1="351"
       y1="321"
       x2="401"
       y2="321"
       gradientUnits="userSpaceOnUse" /><linearGradient
       inkscape:collect="always"
       xlink:href="#linearGradient2308"
       id="linearGradient2286"
       x1="291"
       y1="321"
       x2="341"
       y2="321"
       gradientUnits="userSpaceOnUse" /><linearGradient
       inkscape:collect="always"
       xlink:href="#linearGradient2338"
       id="linearGradient2288"
       x1="231"
       y1="321"
       x2="281"
       y2="321"
       gradientUnits="userSpaceOnUse" /><linearGradient
       inkscape:collect="always"
       xlink:href="#linearGradient2282"
       id="linearGradient2290"
       x1="411"
       y1="321"
       x2="471"
       y2="321"
       gradientUnits="userSpaceOnUse" /><linearGradient
       inkscape:collect="always"
       xlink:href="#linearGradient2332"
       id="linearGradient2292"
       x1="41"
       y1="321"
       x2="101"
       y2="321"
       gradientUnits="userSpaceOnUse" /><linearGradient
       inkscape:collect="always"
       xlink:href="#linearGradient2326"
       id="linearGradient2294"
       x1="111"
       y1="321"
       x2="161"
       y2="321"
       gradientUnits="userSpaceOnUse" /><linearGradient
       inkscape:collect="always"
       xlink:href="#linearGradient2320"
       id="linearGradient2296"
       x1="171"
       y1="321"
       x2="221"
       y2="321"
       gradientUnits="userSpaceOnUse" /></defs><sodipodi:namedview
     pagecolor="#ffffff"
     bordercolor="#666666"
     borderopacity="1"
     objecttolerance="10"
     gridtolerance="10"
     guidetolerance="10"
     inkscape:pageopacity="0"
     inkscape:pageshadow="2"
     inkscape:window-width="1920"
     inkscape:window-height="1035"
     id="namedview867"
     showgrid="false"
     inkscape:zoom="1.3046875"
     inkscape:cx="197.43568"
     inkscape:cy="327.22594"
     inkscape:window-x="0"
     inkscape:window-y="23"
     inkscape:window-maximized="1"
     inkscape:current-layer="svg865"
     inkscape:document-rotation="0" /><path
     d="M 381,351 V 166 h -30 v 310 h 50 V 356 h -15 c -2.762,0 -5,-2.238 -5,-5 z"
     id="path833"
     style="fill-opacity:1;fill:url(#linearGradient2284)" /><rect
     x="291"
     y="166"
     width="50"
     height="310"
     id="rect835"
     style="fill-opacity:1;fill:url(#linearGradient2286)" /><path
     d="m 251,351 c 0,2.762 -2.239,5 -5,5 h -15 v 120 h 50 V 166 h -30 z"
     id="path837"
     style="fill-opacity:1;fill:url(#linearGradient2288)" /><polygon
     points="391,346 406,346 421,346 421,166 391,166 "
     id="polygon839"
     style="fill:#003a00;fill-opacity:1" /><path
     d="m 431,351 c 0,2.762 -2.238,5 -5,5 h -15 v 120 h 45.5 c 7.995,0 14.5,-6.505 14.5,-14.5 V 166 h -40 z"
     id="path841"
     style="fill-opacity:1;fill:url(#linearGradient2290)" /><polygon
     points="211,346 226,346 241,346 241,166 211,166 "
     id="polygon843"
     style="fill:#003a00;fill-opacity:1" /><path
     d="M 81,351 V 166 H 41 v 295.5 c 0,7.995 6.505,14.5 14.5,14.5 H 101 V 356 H 86 c -2.761,0 -5,-2.238 -5,-5 z"
     id="path845"
     style="fill-opacity:1;fill:url(#linearGradient2292)" /><polygon
     points="91,346 106,346 121,346 121,166 91,166 "
     id="polygon847"
     style="fill:#003a00;fill-opacity:1" /><path
     d="m 131,351 c 0,2.762 -2.239,5 -5,5 h -15 v 120 h 50 V 166 h -30 z"
     id="path849"
     style="fill-opacity:1;fill:url(#linearGradient2294)" /><rect
     x="71"
     y="96"
     width="70"
     height="30"
     id="rect851"
     style="fill:#003a00;fill-opacity:1" /><path
     d="M 201,351 V 166 h -30 v 310 h 50 V 356 h -15 c -2.761,0 -5,-2.238 -5,-5 z"
     id="path853"
     style="fill-opacity:1;fill:url(#linearGradient2296)" /><path
     d="M 456.5,36 H 55.5 C 47.505,36 41,42.505 41,50.5 V 156 h 45 40 40 40 40 40 60 40 40 45 V 50.5 C 471,42.505 464.495,36 456.5,36 Z M 151,131 c 0,2.761 -2.239,5 -5,5 H 66 c -2.761,0 -5,-2.239 -5,-5 V 91 c 0,-2.761 2.239,-5 5,-5 h 80 c 2.761,0 5,2.239 5,5 z m 55,-45 h -5 v 35 c 0,2.761 -2.239,5 -5,5 -2.761,0 -5,-2.239 -5,-5 V 86 h -5 c -2.761,0 -5,-2.239 -5,-5 0,-2.761 2.239,-5 5,-5 h 5 v -5 c 0,-2.761 2.239,-5 5,-5 2.761,0 5,2.239 5,5 v 5 h 5 c 2.761,0 5,2.239 5,5 0,2.761 -2.239,5 -5,5 z m 50,20 h -5 v 15 c 0,2.761 -2.239,5 -5,5 -2.761,0 -5,-2.239 -5,-5 v -15 h -5 c -2.761,0 -5,-2.239 -5,-5 0,-2.761 2.239,-5 5,-5 h 5 V 71 c 0,-2.761 2.239,-5 5,-5 2.761,0 5,2.239 5,5 v 25 h 5 c 2.762,0 5,2.239 5,5 0,2.761 -2.238,5 -5,5 z m 50,-10 h -5 v 25 c 0,2.761 -2.238,5 -5,5 -2.762,0 -5,-2.239 -5,-5 V 96 h -5 c -2.762,0 -5,-2.239 -5,-5 0,-2.761 2.238,-5 5,-5 h 5 V 71 c 0,-2.761 2.238,-5 5,-5 2.762,0 5,2.239 5,5 v 15 h 5 c 2.762,0 5,2.239 5,5 0,2.761 -2.238,5 -5,5 z m 50,15 H 336 V 91 h 20 z m 0,-30 H 336 V 61 h 20 z m 30,30 H 366 V 91 h 20 z m 0,-30 H 366 V 61 h 20 z m 30,30 H 396 V 91 h 20 z m 0,-30 H 396 V 61 h 20 z m 30,30 H 426 V 91 h 20 z m 0,-30 H 426 V 61 h 20 z"
     id="path855"
     style="fill:#003a00;fill-opacity:1" /></svg>
