<?xml version="1.0" encoding="UTF-8"?>
<svg data-name="Layer 1" version="1.1" viewBox="0 0 24 30" xmlns="http://www.w3.org/2000/svg" xmlns:cc="http://creativecommons.org/ns#" xmlns:dc="http://purl.org/dc/elements/1.1/" xmlns:rdf="http://www.w3.org/1999/02/22-rdf-syntax-ns#" xmlns:xlink="http://www.w3.org/1999/xlink">
 <metadata>
  <rdf:RDF>
   <cc:Work rdf:about="">
    <dc:format>image/svg+xml</dc:format>
    <dc:type rdf:resource="http://purl.org/dc/dcmitype/StillImage"/>
    <dc:title>Adjustor settings, equalizer, equalizer settings, parameters, sound settings</dc:title>
   </cc:Work>
  </rdf:RDF>
 </metadata>
 <defs>
  <linearGradient id="linearGradient1460" x1="11.585" x2="11.585" y1="39.937" y2="-20.934" gradientUnits="userSpaceOnUse">
   <stop stop-color="#00a000" offset="0"/>
   <stop stop-color="#ff0" stop-opacity=".31048" offset="1"/>
  </linearGradient>
 </defs>
 <title>Adjustor settings, equalizer, equalizer settings, parameters, sound settings</title>
 <g>
  <path d="M10,8a2,2,0,0,1,4,0V9h3V7H15.87a4,4,0,0,0-.44-1l.81-.81L14.83,3.76l-.8.8a4,4,0,0,0-1-.42V3H11V4.14a4,4,0,0,0-1,.42l-.8-.8L7.76,5.17,8.56,6a4,4,0,0,0-.44,1H7V9h3Z" fill="url(#linearGradient1460)"/>
  <polygon points="10 11 8 11 8 12 2 12 2 14 8 14 8 15 10 15 10 14 22 14 22 12 10 12" fill="#00a000"/>
  <polygon points="16 17 14 17 14 18 2 18 2 20 14 20 14 21 16 21 16 20 22 20 22 18 16 18" fill="#005600"/>
 </g>
</svg>
