<svg xmlns="http://www.w3.org/2000/svg">

<svg version="1.1" viewBox="0 0 100 125" xmlns="http://www.w3.org/2000/svg" xmlns:cc="http://creativecommons.org/ns#" xmlns:dc="http://purl.org/dc/elements/1.1/" xmlns:rdf="http://www.w3.org/1999/02/22-rdf-syntax-ns#">
<metadata>
<rdf:RDF>
<cc:Work rdf:about="">
<dc:format>image/svg+xml</dc:format>
<dc:type rdf:resource="http://purl.org/dc/dcmitype/StillImage"/>
<dc:title/>
</cc:Work>
</rdf:RDF>
</metadata>
<path d="m5 93.125h11.25v1.875h-11.25z" fill="#142616"/>
<path d="m5 89.375h11.25v1.875h-11.25z" fill="#153a1b"/>
<path d="m5 85.625h11.25v1.875h-11.25z" fill="#1d5025"/>
<path d="m5 81.875h11.25v1.875h-11.25z" fill="#1d5025"/>
<path d="m5 78.125h11.25v1.875h-11.25z" fill="#297134"/>
<path d="m5 74.375h11.25v1.875h-11.25z" fill="#297134"/>
<path d="m5 70.625h11.25v1.875h-11.25z" fill="#3ba14b"/>
<path d="m5 66.875h11.25v1.875h-11.25z" fill="#3ba14b"/>
<path d="m5 63.125h11.25v1.875h-11.25z" fill="#45bc5a"/>
<path d="m5 59.375h11.25v1.875h-11.25z" fill="#45bc5a"/>
<path d="m5 55.625h11.25v1.875h-11.25z" fill="#b1e24e"/>
<path d="m5 51.875h11.25v1.875h-11.25z" fill="#b1e24e"/>
<path d="m18.125 93.125h11.25v1.875h-11.25z" fill="#142616"/>
<path d="m18.125 89.375h11.25v1.875h-11.25z" fill="#153a1b"/>
<path d="m18.125 85.625h11.25v1.875h-11.25z" fill="#1d5025"/>
<path d="m18.125 81.875h11.25v1.875h-11.25z" fill="#1d5025"/>
<path d="m18.125 78.125h11.25v1.875h-11.25z" fill="#297134"/>
<path d="m18.125 74.375h11.25v1.875h-11.25z" fill="#297134"/>
<path d="m18.125 70.625h11.25v1.875h-11.25z" fill="#3ba14b"/>
<path d="m18.125 66.875h11.25v1.875h-11.25z" fill="#3ba14b"/>
<path d="m18.125 63.125h11.25v1.875h-11.25z" fill="#45bc5a"/>
<path d="m18.125 59.375h11.25v1.875h-11.25z" fill="#45bc5a"/>
<path d="m31.25 93.125h11.25v1.875h-11.25z" fill="#142616"/>
<path d="m31.25 89.375h11.25v1.875h-11.25z" fill="#153a1b"/>
<path d="m31.25 85.625h11.25v1.875h-11.25z" fill="#1d5025"/>
<path d="m31.25 81.875h11.25v1.875h-11.25z" fill="#1d5025"/>
<path d="m31.25 78.125h11.25v1.875h-11.25z" fill="#297134"/>
<path d="m31.25 74.375h11.25v1.875h-11.25z" fill="#297134"/>
<path d="m31.25 70.625h11.25v1.875h-11.25z" fill="#3ba14b"/>
<path d="m31.25 66.875h11.25v1.875h-11.25z" fill="#3ba14b"/>
<path d="m31.25 63.125h11.25v1.875h-11.25z" fill="#45bc5a"/>
<path d="m31.25 59.375h11.25v1.875h-11.25z" fill="#45bc5a"/>
<path d="m44.375 93.125h11.25v1.875h-11.25z" fill="#142616"/>
<path d="m44.375 89.375h11.25v1.875h-11.25z" fill="#153a1b"/>
<path d="m44.375 85.625h11.25v1.875h-11.25z" fill="#1d5025"/>
<path d="m44.375 81.875h11.25v1.875h-11.25z" fill="#1d5025"/>
<path d="m44.375 78.125h11.25v1.875h-11.25z" fill="#297134"/>
<path d="m44.375 74.375h11.25v1.875h-11.25z" fill="#297134"/>
<path d="m44.375 70.625h11.25v1.875h-11.25z" fill="#3ba14b"/>
<path d="m44.375 66.875h11.25v1.875h-11.25z" fill="#3ba14b"/>
<path d="m44.375 63.125h11.25v1.875h-11.25z" fill="#45bc5a"/>
<path d="m44.375 59.375h11.25v1.875h-11.25z" fill="#45bc5a"/>
<path d="m31.25 55.625h11.25v1.875h-11.25z" fill="#b1e24e"/>
<path d="m31.25 51.875h11.25v1.875h-11.25z" fill="#b1e24e"/>
<path d="m31.25 48.125h11.25v1.875h-11.25z" fill="#e2f5bd"/>
<path d="m31.25 44.375h11.25v1.875h-11.25z" fill="#e2f5bd"/>
<path d="m44.375 55.625h11.25v1.875h-11.25z" fill="#b1e24e"/>
<path d="m44.375 51.875h11.25v1.875h-11.25z" fill="#b1e24e"/>
<path d="m44.375 48.125h11.25v1.875h-11.25z" fill="#e2f5bd"/>
<path d="m44.375 44.375h11.25v1.875h-11.25z" fill="#e2f5bd"/>
<path d="m44.375 40.625h11.25v1.875h-11.25z" fill="#eef8d9"/>
<path d="m44.375 36.875h11.25v1.875h-11.25z" fill="#eef8d9"/>
<path d="m44.375 33.125h11.25v1.875h-11.25z" fill="#f2fbe0"/>
<path d="m44.375 29.375h11.25v1.875h-11.25z" fill="#f2fbe0"/>
<path d="m44.375 25.625h11.25v1.875h-11.25z" fill="#f4fee3"/>
<path d="m57.5 93.125h11.25v1.875h-11.25z" fill="#142616"/>
<path d="m57.5 89.375h11.25v1.875h-11.25z" fill="#153a1b"/>
<path d="m57.5 85.625h11.25v1.875h-11.25z" fill="#1d5025"/>
<path d="m57.5 81.875h11.25v1.875h-11.25z" fill="#1d5025"/>
<path d="m57.5 78.125h11.25v1.875h-11.25z" fill="#297134"/>
<path d="m57.5 74.375h11.25v1.875h-11.25z" fill="#297134"/>
<path d="m57.5 70.625h11.25v1.875h-11.25z" fill="#3ba14b"/>
<path d="m57.5 66.875h11.25v1.875h-11.25z" fill="#3ba14b"/>
<path d="m57.5 63.125h11.25v1.875h-11.25z" fill="#45bc5a"/>
<path d="m57.5 59.375h11.25v1.875h-11.25z" fill="#45bc5a"/>
<path d="m70.625 93.125h11.25v1.875h-11.25z" fill="#142616"/>
<path d="m70.625 89.375h11.25v1.875h-11.25z" fill="#153a1b"/>
<path d="m70.625 85.625h11.25v1.875h-11.25z" fill="#1d5025"/>
<path d="m70.625 81.875h11.25v1.875h-11.25z" fill="#1d5025"/>
<path d="m70.625 78.125h11.25v1.875h-11.25z" fill="#297134"/>
<path d="m70.625 74.375h11.25v1.875h-11.25z" fill="#297134"/>
<path d="m70.625 70.625h11.25v1.875h-11.25z" fill="#3ba14b"/>
<path d="m70.625 66.875h11.25v1.875h-11.25z" fill="#3ba14b"/>
<path d="m70.625 63.125h11.25v1.875h-11.25z" fill="#45bc5a"/>
<path d="m70.625 59.375h11.25v1.875h-11.25z" fill="#45bc5a"/>
<path d="m57.5 55.625h11.25v1.875h-11.25z" fill="#b1e24e"/>
<path d="m57.5 51.875h11.25v1.875h-11.25z" fill="#b1e24e"/>
<path d="m70.625 55.625h11.25v1.875h-11.25z" fill="#b1e24e"/>
<path d="m70.625 51.875h11.25v1.875h-11.25z" fill="#b1e24e"/>
<path d="m70.625 48.125h11.25v1.875h-11.25z" fill="#e2f5bd"/>
<path d="m70.625 44.375h11.25v1.875h-11.25z" fill="#e2f5bd"/>
<path d="m70.625 40.625h11.25v1.875h-11.25z" fill="#eef8d9"/>
<path d="m83.75 93.125h11.25v1.875h-11.25z" fill="#142616"/>
<path d="m83.75 89.375h11.25v1.875h-11.25z" fill="#153a1b"/>
<path d="m83.75 85.625h11.25v1.875h-11.25z" fill="#1d5025"/>
<path d="m83.75 81.875h11.25v1.875h-11.25z" fill="#1d5025"/>
<path d="m83.75 78.125h11.25v1.875h-11.25z" fill="#297134"/>
<path d="m83.75 74.375h11.25v1.875h-11.25z" fill="#297134"/>
<path d="m83.75 70.625h11.25v1.875h-11.25z" fill="#3ba14b"/>
<path d="m83.75 66.875h11.25v1.875h-11.25z" fill="#3ba14b"/>
<path d="m83.75 63.125h11.25v1.875h-11.25z" fill="#45bc5a"/>
</svg>