<?xml version="1.0" encoding="UTF-8" standalone="no"?>
<svg
   xmlns:dc="http://purl.org/dc/elements/1.1/"
   xmlns:cc="http://creativecommons.org/ns#"
   xmlns:rdf="http://www.w3.org/1999/02/22-rdf-syntax-ns#"
   xmlns:svg="http://www.w3.org/2000/svg"
   xmlns="http://www.w3.org/2000/svg"
   xmlns:sodipodi="http://sodipodi.sourceforge.net/DTD/sodipodi-0.dtd"
   xmlns:inkscape="http://www.inkscape.org/namespaces/inkscape"
   width="232.83333mm"
   height="232.70351mm"
   viewBox="0 0 232.83333 232.70351"
   version="1.1"
   id="svg8"
   inkscape:version="1.0.1 (c497b03c, 2020-09-10)"
   sodipodi:docname="flower.svg">
  <defs
     id="defs2">
    <clipPath
       clipPathUnits="userSpaceOnUse"
       id="clipPath26">
      <path
         d="M 0,660 H 660 V 0 H 0 Z"
         id="path24" />
    </clipPath>
  </defs>
  <sodipodi:namedview
     id="base"
     pagecolor="#ffffff"
     bordercolor="#666666"
     borderopacity="1.0"
     inkscape:pageopacity="0.0"
     inkscape:pageshadow="2"
     inkscape:zoom="0.35"
     inkscape:cx="291.42856"
     inkscape:cy="862.61179"
     inkscape:document-units="mm"
     inkscape:current-layer="layer1"
     inkscape:document-rotation="0"
     showgrid="false"
     fit-margin-top="0"
     fit-margin-left="0"
     fit-margin-right="0"
     fit-margin-bottom="0"
     inkscape:window-width="1920"
     inkscape:window-height="1035"
     inkscape:window-x="0"
     inkscape:window-y="23"
     inkscape:window-maximized="1" />
  <metadata
     id="metadata5">
    <rdf:RDF>
      <cc:Work
         rdf:about="">
        <dc:format>image/svg+xml</dc:format>
        <dc:type
           rdf:resource="http://purl.org/dc/dcmitype/StillImage" />
        <dc:title></dc:title>
      </cc:Work>
    </rdf:RDF>
  </metadata>
  <g
     inkscape:label="Layer 1"
     inkscape:groupmode="layer"
     id="layer1"
     transform="translate(-28.726193,80.066036)">
    <g
       id="g22"
       clip-path="url(#clipPath26)"
       transform="matrix(0.35277777,0,0,-0.35277777,28.726193,152.63747)">
      <path
         d="M 0,-1 H 660.633 V 659.632 H 0 Z"
         style="fill:#313033;fill-opacity:1;fill-rule:evenodd;stroke:none"
         id="path28" />
      <path
         d="m 266.152,85.846 c -23.626,37.722 -38.484,84.516 -42.706,135.709 -51.229,3.799 -98.146,18.278 -136.064,41.593 20.858,39.325 53.951,75.595 96.179,104.849 -22.326,46.264 -33.247,94.128 -32.013,138.621 44.483,1.6 92.438,-8.924 138.884,-30.866 28.905,42.466 64.9,75.855 104.049,97.034 23.627,-37.723 38.486,-84.516 42.706,-135.71 51.23,-3.801 98.145,-18.277 136.063,-41.593 -20.855,-39.324 -53.948,-75.595 -96.178,-104.849 22.325,-46.265 33.246,-94.128 32.013,-138.622 -44.481,-1.6 -92.437,8.925 -138.883,30.866 -28.906,-42.465 -64.901,-75.854 -104.05,-97.032"
         style="fill:#3e3d40;fill-opacity:1;fill-rule:evenodd;stroke:none"
         id="path30" />
      <path
         d="m 153.013,150.547 c -1.599,44.483 8.924,92.438 30.865,138.884 -42.463,28.907 -75.853,64.899 -97.032,104.048 37.722,23.626 84.515,38.486 135.709,42.706 3.799,51.231 18.277,98.146 41.593,136.065 39.324,-20.856 75.593,-53.95 104.849,-96.177 46.263,22.324 94.129,33.245 138.622,32.012 1.6,-44.482 -8.923,-92.438 -30.864,-138.886 42.465,-28.904 75.854,-64.899 97.031,-104.048 -37.722,-23.628 -84.515,-38.485 -135.71,-42.706 -3.799,-51.23 -18.278,-98.146 -41.593,-136.063 -39.325,20.857 -75.595,53.951 -104.847,96.178 -46.264,-22.324 -94.131,-33.247 -138.623,-32.013"
         style="fill:#3e3d40;fill-opacity:1;fill-rule:evenodd;stroke:none"
         id="path32" />
      <path
         d="m 216.041,134.41 c -11.304,38.31 -12.84,82.337 -4.118,127.599 -43.356,15.661 -80.402,39.51 -107.539,68.82 27.528,28.944 64.89,52.296 108.45,67.374 -8.116,45.374 -5.986,89.378 5.829,127.531 38.828,-9.365 77.729,-30.046 112.566,-60.23 35.24,29.715 74.414,49.872 113.364,58.717 11.304,-38.309 12.84,-82.337 4.118,-127.6 43.354,-15.661 80.401,-39.508 107.537,-68.818 -27.525,-28.947 -64.889,-52.296 -108.45,-67.376 8.115,-45.372 5.989,-89.377 -5.826,-127.531 -38.829,9.365 -77.73,30.047 -112.568,60.23 C 294.163,163.412 254.99,143.254 216.041,134.41"
         style="fill:#852c58;fill-opacity:1;fill-rule:evenodd;stroke:none"
         id="path34" />
      <path
         d="m 133.897,217.662 c 9.366,38.828 30.047,77.73 60.229,112.567 -29.713,35.238 -49.871,74.413 -58.715,113.363 38.308,11.303 82.337,12.84 127.599,4.118 15.661,43.355 39.508,80.402 68.818,107.537 28.946,-27.525 52.296,-64.888 67.374,-108.449 45.374,8.115 89.379,5.989 127.534,-5.827 -9.367,-38.828 -30.048,-77.729 -60.231,-112.568 29.715,-35.241 49.874,-74.415 58.717,-113.365 -38.309,-11.303 -82.336,-12.838 -127.6,-4.117 -15.661,-43.356 -39.509,-80.401 -68.819,-107.536 -28.946,27.526 -52.294,64.888 -67.373,108.448 -45.375,-8.114 -89.38,-5.986 -127.533,5.829"
         style="fill:#731946;fill-opacity:1;fill-rule:evenodd;stroke:none"
         id="path36" />
      <path
         d="m 184.139,179.387 c -1.646,36.979 6.768,76.932 24.685,115.716 -35.521,23.736 -63.547,53.433 -81.44,85.841 31.205,19.917 70.015,32.612 112.56,36.487 2.796,42.628 14.499,81.745 33.617,113.443 32.851,-17.065 63.249,-44.327 87.877,-79.234 38.315,18.894 78.045,28.315 115.056,27.607 1.647,-36.982 -6.767,-76.936 -24.685,-115.718 35.521,-23.737 63.547,-53.433 81.44,-85.841 C 502.044,257.771 463.234,245.076 420.688,241.199 417.894,198.571 406.19,159.456 387.07,127.756 354.223,144.82 323.825,172.084 299.196,206.99 260.879,188.097 221.15,178.677 184.139,179.387"
         style="fill:#a34474;fill-opacity:1;fill-rule:evenodd;stroke:none"
         id="path38" />
      <path
         d="m 128.758,272.561 c 17.064,32.85 44.326,63.248 79.233,87.877 -18.894,38.315 -28.313,78.044 -27.605,115.054 36.979,1.648 76.934,-6.766 115.716,-24.684 23.734,35.523 53.433,63.548 85.842,81.441 19.917,-31.204 32.613,-70.015 36.488,-112.561 42.628,-2.794 81.745,-14.499 113.443,-33.617 -17.065,-32.849 -44.326,-63.247 -79.234,-87.876 18.893,-38.317 28.314,-78.048 27.606,-115.057 -36.98,-1.646 -76.934,6.768 -115.717,24.685 -23.737,-35.522 -53.434,-63.547 -85.843,-81.44 -19.916,31.205 -32.61,70.015 -36.487,112.562 -42.627,2.794 -81.745,14.497 -113.442,33.616"
         style="fill:#993567;fill-opacity:1;fill-rule:evenodd;stroke:none"
         id="path40" />
      <path
         d="m 238.94,171.05 c -17.043,56.367 -7.958,128.282 29.86,193.783 37.818,65.5 95.555,109.326 152.891,122.75 C 438.734,431.216 429.65,359.301 391.833,293.799 354.017,228.299 296.276,184.474 238.94,171.05"
         style="fill:#de7aac;fill-opacity:1;fill-rule:evenodd;stroke:none"
         id="path42" />
      <path
         d="m 172.05,237.939 c 13.425,57.338 57.249,115.076 122.751,152.894 65.501,37.816 137.416,46.901 193.783,29.858 C 475.16,363.354 431.335,305.615 365.834,267.798 300.333,229.981 228.417,220.897 172.05,237.939"
         style="fill:#f0a1c8;fill-opacity:1;fill-rule:evenodd;stroke:none"
         id="path44" />
      <path
         d="m 147.566,329.315 c 40.295,42.945 107.116,71.034 182.75,71.034 75.635,0 142.458,-28.089 182.751,-71.034 -40.293,-42.942 -107.116,-71.033 -182.751,-71.033 -75.634,0 -142.455,28.091 -182.75,71.033"
         style="fill:#de7aac;fill-opacity:1;fill-rule:evenodd;stroke:none"
         id="path46" />
      <path
         d="m 172.05,420.691 c 56.367,17.043 128.283,7.958 193.782,-29.858 65.503,-37.818 109.328,-95.556 122.751,-152.894 -56.366,-17.042 -128.281,-7.958 -193.784,29.859 -65.5,37.817 -109.324,95.556 -122.749,152.893"
         style="fill:#f0a1c8;fill-opacity:1;fill-rule:evenodd;stroke:none"
         id="path48" />
      <path
         d="m 238.94,487.582 c 57.338,-13.424 115.076,-57.249 152.893,-122.75 37.816,-65.502 46.901,-137.416 29.859,-193.784 -57.337,13.425 -115.076,57.249 -152.894,122.751 -37.816,65.501 -46.9,137.415 -29.858,193.783"
         style="fill:#de7aac;fill-opacity:1;fill-rule:evenodd;stroke:none"
         id="path50" />
      <path
         d="m 330.316,512.066 c 42.945,-40.294 71.033,-107.116 71.033,-182.751 0,-75.633 -28.088,-142.457 -71.033,-182.751 -42.942,40.294 -71.033,107.118 -71.033,182.751 0,75.635 28.091,142.457 71.033,182.751"
         style="fill:#f0a1c8;fill-opacity:1;fill-rule:evenodd;stroke:none"
         id="path52" />
      <path
         d="m 330.317,221.465 c 59.403,0 107.851,48.449 107.851,107.85 0,59.403 -48.448,107.852 -107.851,107.852 -59.402,0 -107.852,-48.449 -107.852,-107.852 0,-59.401 48.45,-107.85 107.852,-107.85"
         style="fill:#802050;fill-opacity:1;fill-rule:evenodd;stroke:none"
         id="path54" />
      <path
         d="m 330.317,316.811 c 35.474,0 64.404,25.612 64.404,57.016 0,31.402 -28.93,57.015 -64.404,57.015 -35.473,0 -64.402,-25.613 -64.402,-57.015 0,-31.404 28.929,-57.016 64.402,-57.016"
         style="fill:#9c3569;fill-opacity:1;fill-rule:evenodd;stroke:none"
         id="path56" />
    </g>
  </g>
</svg>
