<?xml version="1.0" encoding="UTF-8" standalone="no"?>
<svg
   xmlns:dc="http://purl.org/dc/elements/1.1/"
   xmlns:cc="http://creativecommons.org/ns#"
   xmlns:rdf="http://www.w3.org/1999/02/22-rdf-syntax-ns#"
   xmlns:svg="http://www.w3.org/2000/svg"
   xmlns="http://www.w3.org/2000/svg"
   xmlns:sodipodi="http://sodipodi.sourceforge.net/DTD/sodipodi-0.dtd"
   xmlns:inkscape="http://www.inkscape.org/namespaces/inkscape"
   version="1.1"
   id="svg402"
   xml:space="preserve"
   width="798.69867"
   height="647.04492"
   viewBox="0 0 798.69867 647.04492"
   sodipodi:docname="full-moon-landscale-publicdomain.ai.svg"
   inkscape:version="1.0.1 (c497b03c, 2020-09-10)"><metadata
     id="metadata408"><rdf:RDF><cc:Work
         rdf:about=""><dc:format>image/svg+xml</dc:format><dc:type
           rdf:resource="http://purl.org/dc/dcmitype/StillImage" /><dc:title></dc:title></cc:Work></rdf:RDF></metadata><defs
     id="defs406"><clipPath
       clipPathUnits="userSpaceOnUse"
       id="clipPath418"><path
         d="M 0,600 H 600 V 0 H 0 Z"
         id="path416" /></clipPath></defs><sodipodi:namedview
     pagecolor="#ffffff"
     bordercolor="#666666"
     borderopacity="1"
     objecttolerance="10"
     gridtolerance="10"
     guidetolerance="10"
     inkscape:pageopacity="0"
     inkscape:pageshadow="2"
     inkscape:window-width="1920"
     inkscape:window-height="1035"
     id="namedview404"
     showgrid="false"
     inkscape:zoom="1.08625"
     inkscape:cx="237.59395"
     inkscape:cy="362.34938"
     inkscape:window-x="0"
     inkscape:window-y="23"
     inkscape:window-maximized="1"
     inkscape:current-layer="g414"
     fit-margin-top="0"
     fit-margin-left="0"
     fit-margin-right="0"
     fit-margin-bottom="0" /><g
     id="g410"
     inkscape:groupmode="layer"
     inkscape:label="full-moon-landscale-publicdomain"
     transform="matrix(1.3333333,0,0,-1.3333333,-1.3013333,799.17331)"
     style="display:inline"><g
       id="g412"><g
         id="g414"
         clip-path="url(#clipPath418)"
         style="opacity:1;"><path
           d="m 0.976,114.09628 h 599.38 V 599.38 H 0.976 Z"
           style="fill:#5d5571;fill-opacity:1;fill-rule:evenodd;stroke:none;stroke-width:0.899801"
           id="path420" /><path
           d="m 300.667,136.331 c 121.692,0 220.946,99.252 220.946,220.945 0,121.694 -99.254,220.947 -220.946,220.947 -121.693,0 -220.947,-99.253 -220.947,-220.947 0,-121.693 99.254,-220.945 220.947,-220.945"
           style="fill:#695c86;fill-opacity:1;fill-rule:evenodd;stroke:none"
           id="path426" /><path
           d="m 300.667,176.879 c 103.893,0 188.628,84.735 188.628,188.63 0,103.894 -84.735,188.63 -188.628,188.63 -103.894,0 -188.631,-84.736 -188.631,-188.63 0,-103.895 84.737,-188.63 188.631,-188.63"
           style="fill:#f4eaf6;fill-opacity:1;fill-rule:evenodd;stroke:none"
           id="path428" /><path
           d="m 300.667,168.646 c 103.893,0 188.628,84.736 188.628,188.63 0,103.895 -84.735,188.631 -188.628,188.631 -103.894,0 -188.631,-84.736 -188.631,-188.631 0,-103.894 84.737,-188.63 188.631,-188.63"
           style="fill:#c2a5d9;fill-opacity:1;fill-rule:evenodd;stroke:none;"
           id="path430" /><path
           d="m 489.295,357.276 c 0,-104.177 -84.452,-188.63 -188.629,-188.63 -104.176,0 -188.63,84.453 -188.63,188.63 0,-69.45 84.454,-125.751 188.63,-125.751 104.177,0 188.629,56.301 188.629,125.751"
           style="fill:#ae8dce;fill-opacity:1;fill-rule:evenodd;stroke:none"
           id="path432" /><path
           d="m 265.391,358.288 c 16.798,0 30.498,13.698 30.498,30.496 0,16.796 -13.7,30.495 -30.498,30.495 -16.795,0 -30.495,-13.699 -30.495,-30.495 0,-16.798 13.7,-30.496 30.495,-30.496"
           style="fill:#ae8dce;fill-opacity:1;fill-rule:evenodd;stroke:none"
           id="path434" /><path
           d="m 228.599,388.784 18.207,6.235 -0.213,0.33 -10.826,16.709 18.797,-6.564 2.984,-1.041 1.24,3.615 6.603,19.286 6.607,-19.286 1.48,-4.328 3.269,0.982 18.744,5.629 -11.041,-15.494 17.733,-6.073 -18.207,-6.235 0.214,-0.329 10.827,-16.711 -18.8,6.563 -2.982,1.043 -1.237,-3.615 -6.607,-19.286 -6.603,19.286 -1.485,4.326 -3.267,-0.981 -18.744,-5.63 11.039,15.494 z"
           style="fill:#ae8dce;fill-opacity:1;fill-rule:evenodd;stroke:none"
           id="path448" /><path
           d="m 267.669,365.509 c 11.012,0 19.993,8.979 19.993,19.993 0,11.012 -8.981,19.992 -19.993,19.992 -11.012,0 -19.993,-8.98 -19.993,-19.992 0,-11.014 8.981,-19.993 19.993,-19.993"
           style="fill:#9b7ac4;fill-opacity:1;fill-rule:evenodd;stroke:none"
           id="path450" /><path
           d="m 367.106,502.7 c 16.181,-11.715 19.802,-34.328 8.088,-50.509 -11.715,-16.181 -34.328,-19.801 -50.508,-8.087 -16.18,11.713 -19.802,34.328 -8.088,50.509 11.714,16.18 34.328,19.801 50.508,8.087"
           style="fill:#ae8dce;fill-opacity:1;fill-rule:evenodd;stroke:none"
           id="path452" /><path
           d="m 310.549,498.992 21.83,-6.674 0.022,0.465 1.221,23.585 13.495,-19.381 2.143,-3.076 3.705,2.613 19.758,13.933 -7.069,-23.122 -1.586,-5.189 3.825,-1.33 21.92,-7.628 -21.383,-7.208 12.812,-18.167 -21.827,6.672 -0.025,-0.464 -1.22,-23.585 -13.493,19.38 -2.143,3.076 -3.705,-2.612 -19.76,-13.933 7.07,23.121 1.584,5.19 -3.822,1.33 -21.922,7.629 21.382,7.206 z"
           style="fill:#ae8dce;fill-opacity:1;fill-rule:evenodd;stroke:none"
           id="path454" /><path
           d="m 359.707,487.873 c 10.607,-7.68 12.981,-22.505 5.303,-33.113 -7.68,-10.609 -22.507,-12.982 -33.114,-5.302 -10.608,7.68 -12.984,22.505 -5.302,33.113 7.678,10.607 22.505,12.981 33.113,5.302"
           style="fill:#9b7ac4;fill-opacity:1;fill-rule:evenodd;stroke:none"
           id="path456" /><path
           d="m 470.576,374.672 c -2.795,-14.568 -16.871,-24.112 -31.439,-21.317 -14.567,2.796 -24.11,16.871 -21.315,31.439 2.796,14.568 16.871,24.111 31.44,21.315 14.568,-2.796 24.111,-16.871 21.314,-31.437"
           style="fill:#ae8dce;fill-opacity:1;fill-rule:evenodd;stroke:none"
           id="path458" /><path
           d="m 450.306,411.555 2.372,-16.782 0.319,0.13 16.252,6.591 -8.8,-15.169 -1.394,-2.408 2.922,-1.672 15.584,-8.914 -17.777,-2.512 -3.99,-0.564 0.306,-2.99 1.757,-17.147 -11.568,12.122 -8.197,-14.329 -2.369,16.781 -0.322,-0.129 -16.25,-6.59 8.797,15.169 1.397,2.406 -2.923,1.672 -15.584,8.913 17.778,2.514 3.99,0.563 -0.308,2.99 -1.756,17.147 11.567,-12.121 z"
           style="fill:#ae8dce;fill-opacity:1;fill-rule:evenodd;stroke:none"
           id="path460" /><path
           d="m 458.274,374.989 c -1.832,-9.549 -11.059,-15.807 -20.61,-13.975 -9.551,1.833 -15.807,11.062 -13.974,20.613 1.833,9.551 11.061,15.807 20.612,13.974 9.551,-1.833 15.807,-11.061 13.972,-20.612"
           style="fill:#9b7ac4;fill-opacity:1;fill-rule:evenodd;stroke:none"
           id="path462" /><path
           d="m 415.419,235.489 c -14.616,-14.961 -38.592,-15.242 -53.55,-0.626 -14.961,14.615 -15.241,38.59 -0.626,53.551 14.614,14.958 38.59,15.241 53.549,0.625 14.96,-14.614 15.241,-38.592 0.627,-53.55"
           style="fill:#ae8dce;fill-opacity:1;fill-rule:evenodd;stroke:none"
           id="path464" /><path
           d="m 420.255,294.631 -10.259,-21.581 0.479,-0.098 24.235,-4.884 -22.141,-11.001 -3.513,-1.746 2.135,-4.237 11.4,-22.602 -22.862,10.867 -5.131,2.441 -1.964,-3.757 -11.265,-21.533 -4.181,23.251 -20.782,-10.48 10.258,21.582 -0.477,0.095 -24.237,4.886 22.142,11.001 3.513,1.746 -2.136,4.237 -11.399,22.601 22.863,-10.865 5.13,-2.442 1.964,3.757 11.265,21.531 4.182,-23.25 z"
           style="fill:#ae8dce;fill-opacity:1;fill-rule:evenodd;stroke:none"
           id="path466" /><path
           d="m 401.199,245.428 c -9.582,-9.809 -25.302,-9.992 -35.108,-0.411 -9.808,9.582 -9.991,25.301 -0.409,35.108 9.579,9.808 25.298,9.991 35.106,0.411 9.809,-9.583 9.99,-25.301 0.411,-35.108"
           style="fill:#9b7ac4;fill-opacity:1;fill-rule:evenodd;stroke:none"
           id="path468" /><path
           d="m 179.571,306.251 c 3.624,6.758 12.041,9.3 18.797,5.675 6.76,-3.622 9.3,-12.039 5.677,-18.797 -3.624,-6.758 -12.041,-9.299 -18.799,-5.676 -6.758,3.623 -9.3,12.04 -5.675,18.798"
           style="fill:#ae8dce;fill-opacity:1;fill-rule:evenodd;stroke:none"
           id="path470" /><path
           d="m 183.892,284.927 1.415,8.647 -0.18,-0.014 -9.032,-0.75 6.678,6.132 1.06,0.972 -1.185,1.275 -6.316,6.801 9.159,-1.5 2.054,-0.337 0.31,1.523 1.775,8.732 3.841,-7.764 6.252,5.809 -1.414,-8.648 0.178,0.016 9.034,0.749 -6.678,-6.132 -1.059,-0.972 1.184,-1.274 6.316,-6.802 -9.159,1.5 -2.056,0.337 -0.31,-1.523 -1.773,-8.732 -3.843,7.764 z"
           style="fill:#ae8dce;fill-opacity:1;fill-rule:evenodd;stroke:none"
           id="path472" /><path
           d="m 185.592,304.198 c 2.376,4.431 7.895,6.099 12.325,3.723 4.43,-2.376 6.096,-7.895 3.72,-12.326 -2.375,-4.431 -7.894,-6.095 -12.324,-3.719 -4.43,2.376 -6.096,7.893 -3.721,12.322"
           style="fill:#9b7ac4;fill-opacity:1;fill-rule:evenodd;stroke:none"
           id="path474" /><path
           d="m 157.343,391.448 c 8.333,4.599 18.817,1.571 23.416,-6.762 4.598,-8.333 1.568,-18.817 -6.764,-23.415 -8.333,-4.599 -18.817,-1.569 -23.413,6.763 -4.599,8.332 -1.573,18.817 6.761,23.414"
           style="fill:#ae8dce;fill-opacity:1;fill-rule:evenodd;stroke:none"
           id="path476" /><path
           d="m 147.465,366.316 7.306,8.056 -0.195,0.105 -9.921,5.312 11.095,1.884 1.76,0.298 -0.375,2.127 -1.997,11.345 8.535,-7.738 1.913,-1.736 1.351,1.377 7.735,7.902 -1.232,-10.679 10.433,1.836 -7.306,-8.057 0.194,-0.103 9.92,-5.314 -11.093,-1.882 -1.762,-0.3 0.375,-2.128 1.997,-11.345 -8.531,7.74 -1.917,1.736 -1.35,-1.378 -7.736,-7.903 1.232,10.682 z"
           style="fill:#ae8dce;fill-opacity:1;fill-rule:evenodd;stroke:none"
           id="path478" /><path
           d="m 162.232,385.25 c 5.466,3.015 12.336,1.029 15.351,-4.434 3.015,-5.463 1.029,-12.336 -4.434,-15.349 -5.463,-3.015 -12.336,-1.031 -15.348,4.432 -3.015,5.465 -1.031,12.336 4.431,15.351"
           style="fill:#9b7ac4;fill-opacity:1;fill-rule:evenodd;stroke:none"
           id="path480" /><path
           d="m 261.087,277.024 c -4.763,10.425 -0.172,22.737 10.253,27.499 10.423,4.764 22.736,0.173 27.499,-10.252 4.763,-10.423 0.172,-22.736 -10.253,-27.5 -10.425,-4.76 -22.736,-0.171 -27.499,10.253"
           style="fill:#ae8dce;fill-opacity:1;fill-rule:evenodd;stroke:none"
           id="path482" /><path
           d="m 290.367,262.877 -9.008,9.505 -0.145,-0.226 -7.28,-11.426 -1.253,13.491 -0.198,2.141 -2.589,-0.256 -13.804,-1.366 10.068,9.542 2.259,2.142 -1.53,1.747 -8.784,10.008 12.71,-2.45 -1.254,12.691 9.007,-9.505 0.144,0.226 7.282,11.425 1.251,-13.491 0.199,-2.14 2.59,0.254 13.803,1.366 -10.069,-9.541 -2.259,-2.143 1.532,-1.744 8.784,-10.011 -12.713,2.453 z"
           style="fill:#ae8dce;fill-opacity:1;fill-rule:evenodd;stroke:none"
           id="path484" /><path
           d="m 268.976,282.331 c -3.122,6.836 -0.114,14.906 6.721,18.03 6.833,3.122 14.905,0.111 18.027,-6.721 3.124,-6.835 0.114,-14.906 -6.722,-18.029 -6.833,-3.122 -14.905,-0.113 -18.026,6.72"
           style="fill:#9b7ac4;fill-opacity:1;fill-rule:evenodd;stroke:none"
           id="path486" /><path
           d="m 225.11,499.093 c 9.197,1.928 18.214,-3.965 20.14,-13.16 1.928,-9.197 -3.965,-18.215 -13.16,-20.142 -9.197,-1.928 -18.215,3.965 -20.14,13.162 -1.929,9.195 3.963,18.213 13.16,20.14"
           style="fill:#ae8dce;fill-opacity:1;fill-rule:evenodd;stroke:none"
           id="path488" /><path
           d="m 208.51,478.231 9.228,5.488 -0.153,0.156 -7.824,7.885 11.014,-1.432 1.749,-0.227 0.262,2.115 1.398,11.286 5.815,-9.773 1.305,-2.195 1.672,0.91 9.59,5.219 -4.253,-9.724 10.375,-1.286 -9.228,-5.488 0.155,-0.156 7.823,-7.885 -11.014,1.433 -1.748,0.228 -0.262,-2.116 -1.4,-11.286 -5.813,9.774 -1.307,2.193 -1.672,-0.91 -9.589,-5.219 4.254,9.724 z"
           style="fill:#ae8dce;fill-opacity:1;fill-rule:evenodd;stroke:none"
           id="path490" /><path
           d="m 227.929,491.827 c 6.029,1.264 11.942,-2.598 13.207,-8.628 1.262,-6.029 -2.602,-11.941 -8.629,-13.204 -6.029,-1.265 -11.942,2.599 -13.205,8.628 -1.264,6.028 2.598,11.94 8.627,13.204"
           style="fill:#9b7ac4;fill-opacity:1;fill-rule:evenodd;stroke:none;"
           id="path492" /><path
           d="m 369.054,336.468 c -7.592,-1.086 -14.626,4.187 -15.712,11.78 -1.087,7.59 4.187,14.625 11.779,15.71 7.59,1.088 14.625,-4.187 15.71,-11.778 1.087,-7.592 -4.185,-14.625 -11.777,-15.712"
           style="fill:#ae8dce;fill-opacity:1;fill-rule:evenodd;stroke:none"
           id="path494" /><path
           d="m 383.67,352.586 -7.805,-3.984 0.119,-0.134 5.956,-6.835 -8.896,1.746 -1.412,0.278 -0.325,-1.71 -1.733,-9.117 -4.22,8.265 -0.947,1.856 -1.409,-0.652 -8.086,-3.748 3.977,7.696 -8.384,1.593 7.803,3.985 -0.118,0.133 -5.956,6.835 8.895,-1.746 1.411,-0.276 0.325,1.708 1.734,9.119 4.221,-8.267 0.948,-1.856 1.409,0.654 8.086,3.746 -3.977,-7.694 z"
           style="fill:#ae8dce;fill-opacity:1;fill-rule:evenodd;stroke:none"
           id="path496" /><path
           d="m 367.139,342.534 c -4.977,-0.712 -9.589,2.745 -10.301,7.722 -0.713,4.977 2.745,9.589 7.723,10.301 4.975,0.714 9.586,-2.745 10.3,-7.723 0.711,-4.977 -2.745,-9.586 -7.722,-10.3"
           style="fill:#9b7ac4;fill-opacity:1;fill-rule:evenodd;stroke:none"
           id="path498" /><path
           d="m 273.719,191.834 c -3.986,8.729 -0.145,19.035 8.581,23.023 8.729,3.987 19.037,0.143 23.023,-8.583 3.987,-8.728 0.146,-19.035 -8.581,-23.023 -8.728,-3.986 -19.036,-0.144 -23.023,8.583"
           style="fill:#9b7ac4;fill-opacity:1;fill-rule:evenodd;stroke:none"
           id="path500" /><path
           d="m 298.23,179.989 -7.54,7.958 -0.119,-0.187 -6.098,-9.567 -1.048,11.294 -0.166,1.792 -2.168,-0.215 -11.555,-1.141 8.43,7.988 1.889,1.792 -1.281,1.462 -7.353,8.38 10.641,-2.053 -1.05,10.626 7.541,-7.957 0.118,0.188 6.098,9.565 1.049,-11.293 0.166,-1.792 2.167,0.212 11.556,1.144 -8.43,-7.988 -1.89,-1.793 1.282,-1.461 7.352,-8.38 -10.641,2.052 z"
           style="fill:#9b7ac4;fill-opacity:1;fill-rule:evenodd;stroke:none"
           id="path502" /><path
           d="m 280.322,196.277 c -2.613,5.722 -0.093,12.48 5.628,15.093 5.721,2.614 12.479,0.096 15.092,-5.626 2.613,-5.722 0.096,-12.479 -5.625,-15.093 -5.722,-2.614 -12.48,-0.095 -15.095,5.626"
           style="fill:#8462b7;fill-opacity:1;fill-rule:evenodd;stroke:none"
           id="path504" /></g></g></g></svg>
