<?xml version="1.0" encoding="UTF-8" standalone="no"?>
<svg
   xmlns:dc="http://purl.org/dc/elements/1.1/"
   xmlns:cc="http://creativecommons.org/ns#"
   xmlns:rdf="http://www.w3.org/1999/02/22-rdf-syntax-ns#"
   xmlns:svg="http://www.w3.org/2000/svg"
   xmlns="http://www.w3.org/2000/svg"
   xmlns:sodipodi="http://sodipodi.sourceforge.net/DTD/sodipodi-0.dtd"
   xmlns:inkscape="http://www.inkscape.org/namespaces/inkscape"
   width="232.83333mm"
   height="232.70351mm"
   viewBox="0 0 232.83333 232.70351"
   version="1.1"
   id="svg8"
   inkscape:version="1.0.1 (c497b03c, 2020-09-10)"
   sodipodi:docname="moonflower2.svg">
  <style
     id="style1212"></style>
  <style></style>
  <defs
     id="defs2">
    <clipPath
       clipPathUnits="userSpaceOnUse"
       id="clipPath26">
      <path
         d="M 0,660 H 660 V 0 H 0 Z"
         id="path24" />
    </clipPath>
  </defs>
  <sodipodi:namedview
     id="base"
     pagecolor="#ffffff"
     bordercolor="#666666"
     borderopacity="1.0"
     inkscape:pageopacity="0.0"
     inkscape:pageshadow="2"
     inkscape:zoom="0.98994949"
     inkscape:cx="370.35463"
     inkscape:cy="482.04783"
     inkscape:document-units="mm"
     inkscape:current-layer="g22"
     inkscape:document-rotation="0"
     showgrid="false"
     fit-margin-top="0"
     fit-margin-left="0"
     fit-margin-right="0"
     fit-margin-bottom="0"
     inkscape:window-width="1920"
     inkscape:window-height="1035"
     inkscape:window-x="0"
     inkscape:window-y="23"
     inkscape:window-maximized="0" />
  <metadata
     id="metadata5">
    <rdf:RDF>
      <cc:Work
         rdf:about="">
        <dc:format>image/svg+xml</dc:format>
        <dc:type
           rdf:resource="http://purl.org/dc/dcmitype/StillImage" />
        <dc:title />
      </cc:Work>
    </rdf:RDF>
  </metadata>
  <g
     inkscape:label="Layer 1"
     inkscape:groupmode="layer"
     id="layer1"
     transform="translate(-28.726193,80.066036)">
    <g
       id="g22"
       clip-path="url(#clipPath26)"
       transform="matrix(0.35277777,0,0,-0.35277777,28.726193,152.63747)">
      <path
         d="M 0,-1 H 660.633 V 659.632 H 0 Z"
         style="display:inline;mix-blend-mode:normal;fill:#313033;fill-opacity:1;fill-rule:evenodd;stroke:none"
         id="path28" />
      <path
         d="m 266.152,85.846 c -23.626,37.722 -38.484,84.516 -42.706,135.709 -51.229,3.799 -98.146,18.278 -136.064,41.593 20.858,39.325 53.951,75.595 96.179,104.849 -22.326,46.264 -33.247,94.128 -32.013,138.621 44.483,1.6 92.438,-8.924 138.884,-30.866 28.905,42.466 64.9,75.855 104.049,97.034 23.627,-37.723 38.486,-84.516 42.706,-135.71 51.23,-3.801 98.145,-18.277 136.063,-41.593 -20.855,-39.324 -53.948,-75.595 -96.178,-104.849 22.325,-46.265 33.246,-94.128 32.013,-138.622 -44.481,-1.6 -92.437,8.925 -138.883,30.866 -28.906,-42.465 -64.901,-75.854 -104.05,-97.032"
         style="fill:#3e3d40;fill-opacity:1;fill-rule:evenodd;stroke:none"
         id="path30" />
      <path
         d="m 153.013,150.547 c -1.599,44.483 8.924,92.438 30.865,138.884 -42.463,28.907 -75.853,64.899 -97.032,104.048 37.722,23.626 84.515,38.486 135.709,42.706 3.799,51.231 18.277,98.146 41.593,136.065 39.324,-20.856 75.593,-53.95 104.849,-96.177 46.263,22.324 94.129,33.245 138.622,32.012 1.6,-44.482 -8.923,-92.438 -30.864,-138.886 42.465,-28.904 75.854,-64.899 97.031,-104.048 -37.722,-23.628 -84.515,-38.485 -135.71,-42.706 -3.799,-51.23 -18.278,-98.146 -41.593,-136.063 -39.325,20.857 -75.595,53.951 -104.847,96.178 -46.264,-22.324 -94.131,-33.247 -138.623,-32.013"
         style="fill:#3e3d40;fill-opacity:1;fill-rule:evenodd;stroke:none"
         id="path32" />
      <path
         d="m 216.041,134.41 c -11.304,38.31 -12.84,82.337 -4.118,127.599 -43.356,15.661 -80.402,39.51 -107.539,68.82 27.528,28.944 64.89,52.296 108.45,67.374 -8.116,45.374 -5.986,89.378 5.829,127.531 38.828,-9.365 77.729,-30.046 112.566,-60.23 35.24,29.715 74.414,49.872 113.364,58.717 11.304,-38.309 12.84,-82.337 4.118,-127.6 43.354,-15.661 80.401,-39.508 107.537,-68.818 -27.525,-28.947 -64.889,-52.296 -108.45,-67.376 8.115,-45.372 5.989,-89.377 -5.826,-127.531 -38.829,9.365 -77.73,30.047 -112.568,60.23 C 294.163,163.412 254.99,143.254 216.041,134.41"
         style="fill:#852c58;fill-opacity:1;fill-rule:evenodd;stroke:none"
         id="path34" />
      <path
         d="m 133.897,217.662 c 9.366,38.828 30.047,77.73 60.229,112.567 -29.713,35.238 -49.871,74.413 -58.715,113.363 38.308,11.303 82.337,12.84 127.599,4.118 15.661,43.355 39.508,80.402 68.818,107.537 28.946,-27.525 52.296,-64.888 67.374,-108.449 45.374,8.115 89.379,5.989 127.534,-5.827 -9.367,-38.828 -30.048,-77.729 -60.231,-112.568 29.715,-35.241 49.874,-74.415 58.717,-113.365 -38.309,-11.303 -82.336,-12.838 -127.6,-4.117 -15.661,-43.356 -39.509,-80.401 -68.819,-107.536 -28.946,27.526 -52.294,64.888 -67.373,108.448 -45.375,-8.114 -89.38,-5.986 -127.533,5.829"
         style="fill:#731946;fill-opacity:1;fill-rule:evenodd;stroke:none"
         id="path36" />
      <path
         d="m 184.139,179.387 c -1.646,36.979 6.768,76.932 24.685,115.716 -35.521,23.736 -63.547,53.433 -81.44,85.841 31.205,19.917 70.015,32.612 112.56,36.487 2.796,42.628 14.499,81.745 33.617,113.443 32.851,-17.065 63.249,-44.327 87.877,-79.234 38.315,18.894 78.045,28.315 115.056,27.607 1.647,-36.982 -6.767,-76.936 -24.685,-115.718 35.521,-23.737 63.547,-53.433 81.44,-85.841 C 502.044,257.771 463.234,245.076 420.688,241.199 417.894,198.571 406.19,159.456 387.07,127.756 354.223,144.82 323.825,172.084 299.196,206.99 260.879,188.097 221.15,178.677 184.139,179.387"
         style="fill:#a34474;fill-opacity:1;fill-rule:evenodd;stroke:none"
         id="path38" />
      <path
         d="m 128.758,272.561 c 17.064,32.85 44.326,63.248 79.233,87.877 -18.894,38.315 -28.313,78.044 -27.605,115.054 36.979,1.648 76.934,-6.766 115.716,-24.684 23.734,35.523 53.433,63.548 85.842,81.441 19.917,-31.204 32.613,-70.015 36.488,-112.561 42.628,-2.794 81.745,-14.499 113.443,-33.617 -17.065,-32.849 -44.326,-63.247 -79.234,-87.876 18.893,-38.317 28.314,-78.048 27.606,-115.057 -36.98,-1.646 -76.934,6.768 -115.717,24.685 -23.737,-35.522 -53.434,-63.547 -85.843,-81.44 -19.916,31.205 -32.61,70.015 -36.487,112.562 -42.627,2.794 -81.745,14.497 -113.442,33.616"
         style="fill:#993567;fill-opacity:1;fill-rule:evenodd;stroke:none"
         id="path40" />
      <path
         d="m 238.94,171.05 c -17.043,56.367 -7.958,128.282 29.86,193.783 37.818,65.5 95.555,109.326 152.891,122.75 C 438.734,431.216 429.65,359.301 391.833,293.799 354.017,228.299 296.276,184.474 238.94,171.05"
         style="fill:#de7aac;fill-opacity:1;fill-rule:evenodd;stroke:none"
         id="path42" />
      <path
         d="m 172.05,237.939 c 13.425,57.338 57.249,115.076 122.751,152.894 65.501,37.816 137.416,46.901 193.783,29.858 C 475.16,363.354 431.335,305.615 365.834,267.798 300.333,229.981 228.417,220.897 172.05,237.939"
         style="fill:#f0a1c8;fill-opacity:1;fill-rule:evenodd;stroke:none"
         id="path44" />
      <path
         d="m 147.566,329.315 c 40.295,42.945 107.116,71.034 182.75,71.034 75.635,0 142.458,-28.089 182.751,-71.034 -40.293,-42.942 -107.116,-71.033 -182.751,-71.033 -75.634,0 -142.455,28.091 -182.75,71.033"
         style="fill:#de7aac;fill-opacity:1;fill-rule:evenodd;stroke:none"
         id="path46" />
      <path
         d="m 172.05,420.691 c 56.367,17.043 128.283,7.958 193.782,-29.858 65.503,-37.818 109.328,-95.556 122.751,-152.894 -56.366,-17.042 -128.281,-7.958 -193.784,29.859 -65.5,37.817 -109.324,95.556 -122.749,152.893"
         style="fill:#f0a1c8;fill-opacity:1;fill-rule:evenodd;stroke:none"
         id="path48" />
      <path
         d="m 238.94,487.582 c 57.338,-13.424 115.076,-57.249 152.893,-122.75 37.816,-65.502 46.901,-137.416 29.859,-193.784 -57.337,13.425 -115.076,57.249 -152.894,122.751 -37.816,65.501 -46.9,137.415 -29.858,193.783"
         style="fill:#de7aac;fill-opacity:1;fill-rule:evenodd;stroke:none"
         id="path50" />
      <path
         d="m 330.316,512.066 c 42.945,-40.294 71.033,-107.116 71.033,-182.751 0,-75.633 -28.088,-142.457 -71.033,-182.751 -42.942,40.294 -71.033,107.118 -71.033,182.751 0,75.635 28.091,142.457 71.033,182.751"
         style="fill:#f0a1c8;fill-opacity:1;fill-rule:evenodd;stroke:none"
         id="path52" />
      <path
         d="m 330.317,221.465 c 59.403,0 107.851,48.449 107.851,107.85 0,59.403 -48.448,107.852 -107.851,107.852 -59.402,0 -107.852,-48.449 -107.852,-107.852 0,-59.401 48.45,-107.85 107.852,-107.85"
         style="fill:#802050;fill-opacity:1;fill-rule:evenodd;stroke:none"
         id="path54" />
      <path
         d="m 330.317,316.811 c 35.474,0 64.404,25.612 64.404,57.016 0,31.402 -28.93,57.015 -64.404,57.015 -35.473,0 -64.402,-25.613 -64.402,-57.015 0,-31.404 28.929,-57.016 64.402,-57.016"
         style="fill:#9c3569;fill-opacity:1;fill-rule:evenodd;stroke:none"
         id="path56" />
    </g>
    <path
       d="m 143.30519,76.484373 c 22.68946,0 41.19536,-18.505529 41.19536,-41.195176 0,-22.689839 -18.5059,-41.1955545 -41.19536,-41.1955545 -22.68966,0 -41.19556,18.5057155 -41.19556,41.1955545 0,22.689647 18.5059,41.195176 41.19556,41.195176"
       style="display:inline;opacity:1;fill:#695c86;fill-opacity:1;fill-rule:evenodd;stroke:none;stroke-width:0.186449"
       id="path426" />
    <path
       d="m 143.30519,68.924199 c 19.37084,0 35.16967,-15.798835 35.16967,-35.170047 0,-19.371028 -15.79883,-35.1700484 -35.16967,-35.1700484 -19.37104,0 -35.17024,15.7990204 -35.17024,35.1700484 0,19.371212 15.7992,35.170047 35.17024,35.170047"
       style="display:inline;opacity:1;fill:#f4eaf6;fill-opacity:1;fill-rule:evenodd;stroke:none;stroke-width:0.186449"
       id="path428" />
    <path
       d="m 143.30519,68.871741 c 19.37084,0 35.16967,-15.799014 35.16967,-35.170045 0,-19.371217 -15.79883,-35.1702371 -35.16967,-35.1702371 -19.37104,0 -35.17024,15.7990201 -35.17024,35.1702371 0,19.371031 15.7992,35.170045 35.17024,35.170045"
       style="display:inline;opacity:1;fill:#c2a5d9;fill-opacity:1;fill-rule:evenodd;stroke:none;stroke-width:0.186449"
       id="path430" />
    <path
       d="m 178.47486,35.289197 c 0,19.423789 -15.74606,35.170045 -35.16986,35.170045 -19.42361,0 -35.17005,-15.746256 -35.17005,-35.170045 0,12.948947 15.74644,23.446257 35.17005,23.446257 19.4238,0 35.16986,-10.49731 35.16986,-23.446257"
       style="display:inline;opacity:1;fill:#ae8dce;fill-opacity:1;fill-rule:evenodd;stroke:none;stroke-width:0.186449"
       id="path432" />
    <path
       d="m 136.72797,35.100503 c 3.132,0 5.68636,-2.553987 5.68636,-5.685972 0,-3.131614 -2.55436,-5.685791 -5.68636,-5.685791 -3.13142,0 -5.68579,2.554177 -5.68579,5.685791 0,3.131985 2.55437,5.685972 5.68579,5.685972"
       style="display:inline;opacity:1;fill:#ae8dce;fill-opacity:1;fill-rule:evenodd;stroke:none;stroke-width:0.186449"
       id="path434" />
    <path
       d="m 129.8681,29.414531 3.39471,-1.162517 -0.0397,-0.06152 -2.01852,-3.115392 3.50471,1.223858 0.55636,0.194094 0.2312,-0.674017 1.23112,-3.595874 1.23188,3.595874 0.27595,0.806955 0.60951,-0.183094 3.49482,-1.049526 -2.0586,2.888854 3.30631,1.132312 -3.39468,1.162515 0.0399,0.06134 2.0187,3.115764 -3.50526,-1.223672 -0.556,-0.194466 -0.23063,0.674016 -1.23188,3.595882 -1.23113,-3.595882 -0.27687,-0.806582 -0.60913,0.182907 -3.49482,1.049712 2.05821,-2.888853 z"
       style="display:inline;opacity:1;fill:#ae8dce;fill-opacity:1;fill-rule:evenodd;stroke:none;stroke-width:0.186449"
       id="path448" />
    <path
       d="m 137.1527,33.754152 c 2.05319,0 3.7277,-1.674134 3.7277,-3.727692 0,-2.053188 -1.67451,-3.727508 -3.7277,-3.727508 -2.05318,0 -3.72768,1.67432 -3.72768,3.727508 0,2.053558 1.6745,3.727692 3.72768,3.727692"
       style="display:inline;opacity:1;fill:#9b7ac4;fill-opacity:1;fill-rule:evenodd;stroke:none;stroke-width:0.186449"
       id="path450" />
    <path
       d="m 155.69272,8.1749001 c 3.01695,2.1842609 3.69209,6.4004549 1.50801,9.4173989 -2.18425,3.016947 -6.40045,3.691896 -9.41721,1.507822 -3.01675,-2.183888 -3.69207,-6.400455 -1.50799,-9.4173997 2.18406,-3.0167594 6.40044,-3.6918948 9.41719,-1.5078212"
       style="display:inline;opacity:1;fill:#ae8dce;fill-opacity:1;fill-rule:evenodd;stroke:none;stroke-width:0.186449"
       id="path452" />
    <path
       d="m 145.14768,8.8662565 4.0702,1.2443685 0.004,-0.0867 0.22766,-4.3974219 2.51614,3.6135853 0.39957,0.5735214 0.69079,-0.4871937 3.68388,-2.5978076 -1.31802,4.3110965 -0.29571,0.967487 0.71318,0.24798 4.08697,1.422238 -3.98685,1.343931 2.38879,3.387237 -4.06964,-1.243994 -0.005,0.08651 -0.22747,4.397423 -2.51577,-3.613401 -0.39956,-0.573519 -0.6908,0.487006 -3.68425,2.597808 1.3182,-4.310909 0.29534,-0.967675 -0.71262,-0.247979 -4.08734,-1.422427 3.98667,-1.343558 z"
       style="display:inline;opacity:1;fill:#ae8dce;fill-opacity:1;fill-rule:evenodd;stroke:none;stroke-width:0.186449"
       id="path454" />
    <path
       d="m 154.31318,10.939393 c 1.97768,1.431936 2.42031,4.196056 0.98875,6.173917 -1.43193,1.978047 -4.19643,2.420492 -6.1741,0.988557 -1.97786,-1.431936 -2.42087,-4.196054 -0.98856,-6.173915 1.43156,-1.9776748 4.19606,-2.4203066 6.17391,-0.988559"
       style="display:inline;opacity:1;fill:#9b7ac4;fill-opacity:1;fill-rule:evenodd;stroke:none;stroke-width:0.186449"
       id="path456" />
    <path
       d="m 174.9847,32.045713 c -0.52113,2.716201 -3.14559,4.495676 -5.86179,3.974548 -2.71602,-0.521307 -4.49531,-3.145592 -3.97418,-5.861795 0.52131,-2.716202 3.14559,-4.495495 5.86198,-3.97418 2.7162,0.521314 4.49549,3.145595 3.97399,5.861427"
       style="display:inline;opacity:1;fill:#ae8dce;fill-opacity:1;fill-rule:evenodd;stroke:none;stroke-width:0.186449"
       id="path458" />
    <path
       d="m 171.20536,25.168878 0.44226,3.129004 0.0595,-0.02424 3.03018,-1.228891 -1.64076,2.828258 -0.25991,0.448972 0.54481,0.311744 2.90563,1.662016 -3.31452,0.468362 -0.74394,0.105158 0.0571,0.557486 0.32759,3.197059 -2.15685,-2.260147 -1.52833,2.671634 -0.4417,-3.128811 -0.06,0.02406 -3.02981,1.22871 1.6402,-2.828264 0.26047,-0.448598 -0.545,-0.311746 -2.90563,-1.661827 3.31471,-0.468736 0.74393,-0.104968 -0.0574,-0.557485 -0.32741,-3.197059 2.15667,2.259962 z"
       style="display:inline;opacity:1;fill:#ae8dce;fill-opacity:1;fill-rule:evenodd;stroke:none;stroke-width:0.186449"
       id="path460" />
    <path
       d="m 172.691,31.986607 c -0.34158,1.78041 -2.06195,2.947215 -3.84274,2.605638 -1.78077,-0.341764 -2.94721,-2.062509 -2.60545,-3.843293 0.34177,-1.780783 2.06232,-2.947215 3.84311,-2.605451 1.78078,0.341762 2.94721,2.062322 2.60508,3.843106"
       style="display:inline;opacity:1;fill:#9b7ac4;fill-opacity:1;fill-rule:evenodd;stroke:none;stroke-width:0.186449"
       id="path462" />
    <path
       d="m 164.70068,57.996373 c -2.72514,2.789472 -7.19547,2.841872 -9.98438,0.116718 -2.78949,-2.724963 -2.8417,-7.195106 -0.11672,-9.984577 2.72477,-2.788923 7.19509,-2.841692 9.98421,-0.116539 2.78928,2.724784 2.84168,7.195475 0.11689,9.984398"
       style="display:inline;opacity:1;fill:#ae8dce;fill-opacity:1;fill-rule:evenodd;stroke:none;stroke-width:0.186449"
       id="path464" />
    <path
       d="m 165.60236,46.96935 -1.9128,4.023775 0.0893,0.01825 4.51861,0.910624 -4.12819,2.05114 -0.65499,0.325536 0.39807,0.789993 2.12553,4.214136 -4.26262,-2.026143 -0.95668,-0.455133 -0.36618,0.700498 -2.10036,4.014821 -0.77955,-4.335147 -3.8748,1.953999 1.9126,-4.023966 -0.0889,-0.01772 -4.51898,-0.910994 4.12837,-2.051139 0.655,-0.325537 -0.39825,-0.789993 -2.12535,-4.213956 4.26281,2.025784 0.95648,0.455312 0.3662,-0.700498 2.10035,-4.014451 0.77974,4.334956 z"
       style="display:inline;opacity:1;fill:#ae8dce;fill-opacity:1;fill-rule:evenodd;stroke:none;stroke-width:0.186449"
       id="path466" />
    <path
       d="m 162.04937,56.143251 c -1.78657,1.828884 -4.71755,1.863005 -6.54589,0.07657 -1.82869,-1.786568 -1.86282,-4.717376 -0.0763,-6.545891 1.78601,-1.828694 4.71682,-1.862815 6.54551,-0.07657 1.82889,1.786747 1.86264,4.717375 0.0767,6.54589"
       style="display:inline;opacity:1;fill:#9b7ac4;fill-opacity:1;fill-rule:evenodd;stroke:none;stroke-width:0.186449"
       id="path468" />
    <path
       d="m 120.72684,44.8028 c 0.6757,-1.26003 2.24505,-1.733979 3.5047,-1.058099 1.2604,0.675321 1.73399,2.244665 1.05848,3.504694 -0.67569,1.260029 -2.24505,1.733799 -3.50508,1.058288 -1.26002,-0.6755 -1.73398,-2.244854 -1.0581,-3.504883"
       style="display:inline;opacity:1;fill:#ae8dce;fill-opacity:1;fill-rule:evenodd;stroke:none;stroke-width:0.186449"
       id="path470" />
    <path
       d="m 121.53249,48.778658 0.26384,-1.612229 -0.0335,0.0021 -1.68401,0.139838 1.2451,-1.143311 0.19764,-0.181226 -0.22094,-0.237718 -1.17762,-1.268056 1.7077,0.279676 0.38296,0.06286 0.0578,-0.283969 0.33095,-1.628082 0.71616,1.447605 1.16568,-1.083096 -0.26364,1.612419 0.0332,-0.0032 1.6844,-0.139659 -1.24512,1.143311 -0.19745,0.181237 0.22075,0.237539 1.17763,1.268224 -1.7077,-0.279676 -0.38333,-0.06286 -0.0578,0.283969 -0.33057,1.628072 -0.71653,-1.447594 z"
       style="display:inline;opacity:1;fill:#ae8dce;fill-opacity:1;fill-rule:evenodd;stroke:none;stroke-width:0.186449"
       id="path472" />
    <path
       d="m 121.84946,45.185587 c 0.44301,-0.82616 1.47203,-1.137162 2.298,-0.694158 0.82597,0.443003 1.13659,1.472022 0.69358,2.298182 -0.44281,0.82616 -1.47183,1.136413 -2.2978,0.69341 -0.82598,-0.443004 -1.1366,-1.471653 -0.69378,-2.297434"
       style="display:inline;opacity:1;fill:#9b7ac4;fill-opacity:1;fill-rule:evenodd;stroke:none;stroke-width:0.186449"
       id="path474" />
    <path
       d="m 116.58243,28.917829 c 1.55369,-0.857484 3.50844,-0.292915 4.36591,1.260773 0.85731,1.553687 0.29236,3.508429 -1.26114,4.365726 -1.55368,0.857484 -3.50843,0.292539 -4.36536,-1.260962 -0.85748,-1.553501 -0.29328,-3.508428 1.26059,-4.365537"
       style="display:inline;opacity:1;fill:#ae8dce;fill-opacity:1;fill-rule:evenodd;stroke:none;stroke-width:0.186449"
       id="path476" />
    <path
       d="m 114.74068,33.603687 1.36221,-1.50204 -0.0364,-0.01958 -1.84977,-0.990423 2.06866,-0.351272 0.32815,-0.05556 -0.0699,-0.39658 -0.37233,-2.115274 1.59134,1.442749 0.35669,0.323677 0.25189,-0.256741 1.44219,-1.473327 -0.22971,1.991099 1.94524,-0.342322 -1.36221,1.502226 0.0362,0.01921 1.84959,0.990794 -2.06829,0.350898 -0.32853,0.05593 0.0699,0.396767 0.37234,2.115279 -1.5906,-1.443129 -0.35742,-0.323676 -0.25172,0.256928 -1.44237,1.47352 0.22971,-1.991664 z"
       style="display:inline;opacity:1;fill:#ae8dce;fill-opacity:1;fill-rule:evenodd;stroke:none;stroke-width:0.186449"
       id="path478" />
    <path
       d="m 117.49399,30.073444 c 1.01913,-0.562146 2.30004,-0.191857 2.86219,0.826719 0.56214,1.018576 0.19186,2.300047 -0.82671,2.86182 -1.01859,0.562147 -2.30005,0.19223 -2.86164,-0.826346 -0.56215,-1.018948 -0.19224,-2.300046 0.82616,-2.862193"
       style="display:inline;opacity:1;fill:#9b7ac4;fill-opacity:1;fill-rule:evenodd;stroke:none;stroke-width:0.186449"
       id="path480" />
    <path
       d="m 135.9255,50.252178 c -0.88807,-1.943746 -0.0321,-4.239313 1.91167,-5.127196 1.94337,-0.888243 4.23912,-0.03228 5.12719,1.911492 0.88806,1.943366 0.0321,4.239122 -1.91168,5.127375 -1.94374,0.887493 -4.23912,0.03185 -5.12718,-1.911671"
       style="display:inline;opacity:1;fill:#ae8dce;fill-opacity:1;fill-rule:evenodd;stroke:none;stroke-width:0.186449"
       id="path482" />
    <path
       d="m 141.38475,52.889882 -1.67954,-1.772202 -0.027,0.04208 -1.35737,2.130372 -0.23362,-2.515396 -0.0369,-0.399189 -0.48272,0.04778 -2.57376,0.2547 1.87718,-1.779111 0.42119,-0.399379 -0.28526,-0.325726 -1.63778,-1.86599 2.36977,0.456799 -0.2338,-2.366234 1.67936,1.772212 0.0269,-0.04208 1.35773,-2.130193 0.23324,2.515396 0.0371,0.398999 0.4829,-0.04736 2.57357,-0.254689 -1.87737,1.778921 -0.42118,0.399559 0.28563,0.325167 1.63778,1.866559 -2.37034,-0.457368 z"
       style="display:inline;opacity:1;fill:#ae8dce;fill-opacity:1;fill-rule:evenodd;stroke:none;stroke-width:0.186449"
       id="path484" />
    <path
       d="m 137.39639,49.26268 c -0.58209,-1.274563 -0.0212,-2.779219 1.25313,-3.361691 1.27402,-0.582093 2.77904,-0.02067 3.36115,1.253131 0.58246,1.274384 0.0212,2.77923 -1.25332,3.361512 -1.27402,0.582092 -2.77904,0.0211 -3.36096,-1.252952"
       style="display:inline;opacity:1;fill:#9b7ac4;fill-opacity:1;fill-rule:evenodd;stroke:none;stroke-width:0.186449"
       id="path486" />
    <path
       d="m 129.21759,8.8474251 c 1.71478,-0.3594748 3.39599,0.7392744 3.75509,2.4536809 0.35948,1.714781 -0.73927,3.396187 -2.45367,3.755474 -1.71478,0.359477 -3.39619,-0.739274 -3.7551,-2.454052 -0.35966,-1.714408 0.7389,-3.3958128 2.45368,-3.7551029"
       style="display:inline;opacity:1;fill:#ae8dce;fill-opacity:1;fill-rule:evenodd;stroke:none;stroke-width:0.186449"
       id="path488" />
    <path
       d="m 126.12252,12.737144 1.72056,-1.023237 -0.0286,-0.02908 -1.45879,-1.470158 2.05356,0.266996 0.3261,0.04233 0.0488,-0.394341 0.26066,-2.1042741 1.0842,1.822175 0.24332,0.4092571 0.31174,-0.169669 1.78805,-0.9730825 -0.79296,1.8130385 1.93441,0.239775 -1.72055,1.023237 0.0289,0.02908 1.45859,1.470159 -2.05357,-0.267183 -0.3259,-0.04251 -0.0488,0.394528 -0.26103,2.104273 -1.08384,-1.822361 -0.24369,-0.408885 -0.31174,0.16967 -1.78786,0.973082 0.79316,-1.813039 z"
       style="display:inline;opacity:1;fill:#ae8dce;fill-opacity:1;fill-rule:evenodd;stroke:none;stroke-width:0.186449"
       id="path490" />
    <path
       d="m 129.74319,10.20217 c 1.1241,-0.2356719 2.22659,0.484397 2.46245,1.608691 0.23529,1.124106 -0.48515,2.226399 -1.60889,2.461885 -1.1241,0.235858 -2.22657,-0.484585 -2.46207,-1.60869 -0.23567,-1.123922 0.4844,-2.226212 1.60851,-2.461886"
       style="display:inline;opacity:1;fill:#9b7ac4;fill-opacity:1;fill-rule:evenodd;stroke:none;stroke-width:0.186449"
       id="path492" />
    <path
       d="m 156.05594,39.168841 c -1.41553,0.20249 -2.72702,-0.780658 -2.9295,-2.196378 -0.20268,-1.41515 0.78066,-2.726828 2.19619,-2.929127 1.41516,-0.202858 2.72683,0.780667 2.92913,2.196006 0.20266,1.41553 -0.7803,2.72683 -2.19582,2.929499"
       style="display:inline;opacity:1;fill:#ae8dce;fill-opacity:1;fill-rule:evenodd;stroke:none;stroke-width:0.186449"
       id="path494" />
    <path
       d="m 158.78109,36.163643 -1.45524,0.742814 0.0222,0.025 1.11049,1.274385 -1.65866,-0.325537 -0.26327,-0.05179 -0.0605,0.318828 -0.32312,1.699858 -0.78682,-1.541003 -0.17656,-0.346051 -0.26272,0.12156 -1.50763,0.69882 0.74152,-1.434916 -1.56321,-0.297016 1.45487,-0.743004 -0.0219,-0.02479 -1.1105,-1.27439 1.65847,0.325542 0.26308,0.05147 0.0606,-0.318456 0.3233,-1.700236 0.78701,1.541381 0.17675,0.346049 0.26271,-0.121939 1.50764,-0.698438 -0.74152,1.434544 z"
       style="display:inline;opacity:1;fill:#ae8dce;fill-opacity:1;fill-rule:evenodd;stroke:none;stroke-width:0.186449"
       id="path496" />
    <path
       d="m 155.69888,38.037839 c -0.92796,0.13275 -1.78786,-0.511804 -1.92062,-1.439768 -0.13294,-0.927964 0.51181,-1.787866 1.43996,-1.920619 0.92758,-0.133124 1.7873,0.511808 1.92043,1.439951 0.13256,0.927964 -0.5118,1.787306 -1.43977,1.920436"
       style="display:inline;opacity:1;fill:#9b7ac4;fill-opacity:1;fill-rule:evenodd;stroke:none;stroke-width:0.186449"
       id="path498" />
    <path
       d="m 138.28073,66.135845 c -0.74319,-1.627523 -0.0271,-3.549077 1.59992,-4.29264 1.62753,-0.743373 3.54945,-0.02669 4.29264,1.6003 0.74338,1.627333 0.0272,3.549077 -1.59992,4.29264 -1.62733,0.743184 -3.54926,0.02679 -4.29264,-1.6003"
       style="display:inline;opacity:1;fill:#9b7ac4;fill-opacity:1;fill-rule:evenodd;stroke:none;stroke-width:0.186449"
       id="path500" />
    <path
       d="m 142.8508,68.344342 -1.40582,-1.483772 -0.0223,0.03491 -1.13697,1.783773 -0.1954,-2.105765 -0.031,-0.334122 -0.40423,0.04008 -2.15443,0.212732 1.57178,-1.489362 0.3522,-0.334112 -0.23884,-0.272598 -1.37097,-1.562446 1.98402,0.382788 -0.19577,-1.981221 1.40601,1.483582 0.0219,-0.03502 1.13696,-1.783393 0.1956,2.105586 0.031,0.334121 0.40405,-0.03955 2.15461,-0.213291 -1.57177,1.489362 -0.35239,0.334301 0.23902,0.272399 1.37079,1.562456 -1.98402,-0.382598 z"
       style="display:inline;opacity:1;fill:#9b7ac4;fill-opacity:1;fill-rule:evenodd;stroke:none;stroke-width:0.186449"
       id="path502" />
  </g>
</svg>
