<?xml version="1.0" standalone="no"?>
<!DOCTYPE svg PUBLIC "-//W3C//DTD SVG 20010904//EN"
 "http://www.w3.org/TR/2001/REC-SVG-20010904/DTD/svg10.dtd">
<svg version="1.0" xmlns="http://www.w3.org/2000/svg"
 width="700.000000pt" height="700.000000pt" viewBox="0 0 700.000000 700.000000"
 preserveAspectRatio="xMidYMid meet">
<metadata>
Created by potrace 1.11, written by Peter Selinger 2001-2013
</metadata>
<g transform="translate(0.000000,700.000000) scale(0.100000,-0.100000)"
fill="#000000" stroke="none">
<path d="M0 3500 l0 -3500 3500 0 3500 0 0 3500 0 3500 -3500 0 -3500 0 0
-3500z m3593 1841 c92 -95 177 -206 252 -325 l46 -75 92 49 c162 86 467 195
487 174 28 -29 77 -307 87 -486 l6 -128 91 0 c117 0 273 -21 412 -55 60 -15
111 -28 112 -30 5 -5 -35 -149 -65 -234 -15 -40 -57 -135 -94 -211 l-68 -139
82 -51 c117 -75 230 -163 325 -254 l83 -80 -48 -49 c-78 -81 -216 -192 -333
-269 l-109 -72 38 -70 c59 -107 125 -268 160 -390 17 -60 31 -112 31 -117 0
-11 -206 -58 -328 -74 -59 -8 -148 -15 -198 -15 l-91 0 -7 -122 c-9 -178 -62
-478 -87 -493 -27 -18 -323 89 -486 175 l-93 48 -37 -61 c-81 -135 -184 -265
-288 -367 l-67 -65 -75 80 c-87 93 -200 240 -263 342 l-44 71 -116 -58 c-63
-32 -144 -70 -180 -84 -67 -28 -255 -86 -275 -86 -29 0 -84 285 -94 485 l-6
130 -80 2 c-202 6 -535 68 -535 99 0 61 96 321 174 471 l53 102 -102 65 c-127
81 -207 145 -307 243 -60 59 -75 79 -69 92 26 48 308 273 427 342 l51 29 -55
106 c-29 58 -67 138 -83 177 -31 75 -89 264 -89 290 0 33 348 96 526 97 l91 0
6 138 c9 185 64 482 90 482 5 0 57 -14 115 -31 116 -33 304 -111 396 -163 l58
-34 88 132 c79 117 279 356 299 356 5 0 47 -40 94 -89z"/>
<path d="M3330 4760 c-539 -49 -979 -443 -1096 -982 -22 -102 -29 -306 -15
-409 64 -448 361 -826 774 -988 289 -113 619 -113 902 0 344 137 597 400 716
744 111 321 86 669 -68 968 -233 451 -709 712 -1213 667z m375 -154 c131 -34
296 -116 402 -201 281 -225 426 -571 394 -942 -18 -205 -69 -355 -172 -512
-298 -452 -882 -608 -1364 -364 -267 135 -471 390 -546 681 -38 150 -45 351
-18 502 81 441 442 788 895 860 102 16 296 4 409 -24z"/>
</g>
</svg>
