<?xml version="1.0" encoding="UTF-8" standalone="no"?>
<svg
   xmlns:dc="http://purl.org/dc/elements/1.1/"
   xmlns:cc="http://creativecommons.org/ns#"
   xmlns:rdf="http://www.w3.org/1999/02/22-rdf-syntax-ns#"
   xmlns:svg="http://www.w3.org/2000/svg"
   xmlns="http://www.w3.org/2000/svg"
   xmlns:sodipodi="http://sodipodi.sourceforge.net/DTD/sodipodi-0.dtd"
   xmlns:inkscape="http://www.inkscape.org/namespaces/inkscape"
   version="1.1"
   id="logo"
   viewBox="0 0 98.547984 96.85328"
   sodipodi:docname="logo.svg"
   width="98.547981"
   height="96.853279"
   inkscape:version="1.0.1 (c497b03c, 2020-09-10)">
  <defs
     id="defs904">
    <rect
       x="94.277756"
       y="210.95815"
       width="247.82915"
       height="67.674629"
       id="rect949" />
    <rect
       x="48.539043"
       y="182.02141"
       width="267.89819"
       height="49.472496"
       id="rect943" />
    <rect
       x="48.539043"
       y="182.02141"
       width="267.89819"
       height="49.472496"
       id="rect961" />
  </defs>
  <sodipodi:namedview
     pagecolor="#ffffff"
     bordercolor="#666666"
     borderopacity="1"
     objecttolerance="10"
     gridtolerance="10"
     guidetolerance="10"
     inkscape:pageopacity="0"
     inkscape:pageshadow="2"
     inkscape:window-width="1920"
     inkscape:window-height="1035"
     id="namedview902"
     showgrid="false"
     fit-margin-top="0"
     fit-margin-left="0"
     fit-margin-right="0"
     fit-margin-bottom="0"
     inkscape:zoom="2.1426051"
     inkscape:cx="36.650542"
     inkscape:cy="75.826797"
     inkscape:window-x="0"
     inkscape:window-y="23"
     inkscape:window-maximized="1"
     inkscape:current-layer="logo"
     inkscape:document-rotation="0" />
  <metadata
     id="metadata833">
    <rdf:RDF>
      <cc:Work
         rdf:about="">
        <dc:format>image/svg+xml</dc:format>
        <dc:type
           rdf:resource="http://purl.org/dc/dcmitype/StillImage" />
        <dc:title></dc:title>
      </cc:Work>
    </rdf:RDF>
  </metadata>
  <g
     id="g939"
     transform="matrix(0.31608917,0,0,0.31608917,-9.8991118e-6,-0.00141148)">
    <path
       d="M 137.31,132.84 C 124.589,115.793 113.27,97.597 99.596,81.328 87.042,72.0877 78.646,54.791 63.153,51.243 53.8361,50.46219 38.785,42.0176 42.342,57.9011 c 1.4123,13.722 12.903,25.648 22.061,35.763 9.5945,10.272 19.853,19.931 32.155,26.889 l 34.799,23.199 c 6.6115,0.13104 6.6311,-6.1075 5.9523,-10.913 z"
       fill="#f2f2f2"
       fill-rule="evenodd"
       stroke="#000000"
       stroke-linecap="round"
       stroke-linejoin="round"
       stroke-width="2.5"
       id="path835" />
    <path
       d="m 138.3,131.85 c 13.127,5.4884 11.532,-17.075 6.7523,-24.112 -5.9871,-17.629 -11.718,-35.348 -18.068,-52.853 -8.8813,-10.475 -14.027,-25.02 -25.923,-32.296 -8.166,-6.4667 -24.569,-14.839 -22.275,2.959 -4.7342,13.441 4.1292,26.256 8.9971,38.357 5.6164,11.411 16.053,18.856 22.553,29.68 l 27.963,38.265 z"
       fill="#ffffff"
       fill-rule="evenodd"
       stroke="#000000"
       stroke-linecap="round"
       stroke-linejoin="round"
       stroke-width="2.5"
       id="path837" />
    <path
       d="m 148.53,122.43 c 8.7615,11.054 7.1337,-12.303 10.406,-17.067 3.1742,-12.992 8.0206,-25.944 5.3254,-39.44 -1.045,-16.896 -1.9741,-33.922 -7.3887,-50.098 -2.6334,-8.0983 -13.102,-22.262 -19.071,-9.374 -8.6594,7.8508 -9.2198,20.615 -10.253,31.53 -2.9333,14.317 3.1517,27.423 7.63,40.657 4.4104,13.995 10.241,27.77 13.351,42.038 v 1.7532 z"
       fill="#cccccc"
       fill-rule="evenodd"
       stroke="#000000"
       stroke-linecap="round"
       stroke-linejoin="round"
       stroke-width="2.5"
       id="path839" />
    <path
       d="m 155.54,121.73 c 5.4937,10.959 20.626,7.2675 24.389,-3.1891 14.298,-17.143 27.938,-34.83 39.689,-53.829 6.5279,-7.5449 8.6093,-17.127 10.557,-26.615 3.2446,-8.3719 -0.70457,-21.608 -5.3445,-25.906 -7.8634,2.4445 -15.105,-4.8962 -20.47,4.8584 -10.507,8.5983 -17.744,20.654 -24.528,32.202 -8.3901,18.351 -16.489,36.961 -20.113,56.94 -1.3377,5.1942 -2.8461,10.342 -4.1799,15.538 z"
       fill="#f2f2f2"
       fill-rule="evenodd"
       stroke="#000000"
       stroke-linecap="round"
       stroke-linejoin="round"
       stroke-width="2.5"
       id="path841" />
    <path
       d="m 176.59,126.64 c -6.1081,11.713 6.3533,14.448 15.144,11.463 15.23,-9.213 30.71,-18.21 43.701,-30.54 10.992,-8.7718 17.385,-21.645 26.162,-32.399 6.3991,-8.9506 8.7999,-19.937 13.202,-29.898 -13.753,-4.9402 -26.212,-0.67984 -37.818,7.0795 -12.081,6.5472 -21.606,17.208 -28.015,29.262 -10.167,12.88 -21.327,24.987 -30.473,38.69 l -1.9026,6.3421 z"
       fill="#f9f9f9"
       fill-rule="evenodd"
       stroke="#000000"
       stroke-linecap="round"
       stroke-linejoin="round"
       stroke-width="2.5"
       id="path843" />
    <path
       d="m 189.92,138.56 c -10.443,1.504 -6.5659,14.024 3.0288,8.8575 15.292,-1.5019 30.718,-2.4573 45.958,0.0795 14.062,-0.5737 29.164,0.76625 41.991,-5.8133 11.868,-4.1047 22.914,-11.915 29.614,-22.38 0.5715,-11.328 -18.538,-5.6671 -26.48,-9.4959 -11.457,-0.71927 -20.288,10.5 -31.998,11.275 -20.868,5.2714 -40.961,13.298 -62.113,17.478 z"
       fill="#f9f9f9"
       fill-rule="evenodd"
       stroke="#000000"
       stroke-linecap="round"
       stroke-linejoin="round"
       stroke-width="2.5"
       id="path845" />
    <path
       d="m 192.02,138.56 c 22.229,-4.6036 43.434,-12.807 64.802,-20.178 15.65,-3.7324 28.284,-14.04 40.423,-24.017 2.5342,-8.6051 7.6354,-18.29 -5.4014,-18.439 -11.72,-1.3914 -23.752,4.7186 -33.974,10.228 -11.999,2.9419 -12.932,16.616 -22.863,22.241 -13.359,11.411 -28.265,20.656 -42.986,30.164 z"
       fill="#cccccc"
       fill-rule="evenodd"
       stroke="#000000"
       stroke-linecap="round"
       stroke-linejoin="round"
       stroke-width="2.5"
       id="path847" />
    <path
       d="m 183.6,148.38 c 18,-1.2967 36.055,-5.1724 54.028,-1.4958 16.413,2.0413 32.81,6.0912 46.827,15.213 8.1007,2.0844 27.005,14.857 10.859,19.516 -8.7425,4.6906 -19.185,3.9566 -28.766,5.0282 -20.075,-2.5223 -40.298,-4.9311 -59.671,-11.096 -10.711,-3.2994 -22.695,-6.9524 -30.139,-15.632 -3.5412,-5.5977 3.8053,-8.2378 6.8624,-11.533 z"
       fill="#f9f9f9"
       fill-rule="evenodd"
       stroke="#000000"
       stroke-linecap="round"
       stroke-linejoin="round"
       stroke-width="2.5"
       id="path849" />
    <path
       d="m 270.59,188.37 c 9.8761,6.3847 20.156,28.197 2.5813,29.784 -14.113,0.58949 -29.26,-0.29361 -41.043,-8.9796 -17.688,-10.438 -37.986,-18.391 -50.807,-35.131 -6.4804,-9.2319 4.4674,-11.916 9.9008,-4.5682 12.821,6.6217 27.497,8.5015 41.474,11.916 12.655,2.1951 25.269,4.6177 37.895,6.9781 z"
       fill="#e6e6e6"
       fill-rule="evenodd"
       stroke="#000000"
       stroke-linecap="round"
       stroke-linejoin="round"
       stroke-width="2.5"
       id="path851" />
    <path
       d="m 248.84,217.13 c 8.2671,9.003 16.164,27.597 6.1245,35.852 -12.5,-1.5846 -29.365,-1.7865 -34.676,-15.762 -4.6147,-11.925 -7.9588,-24.737 -16.876,-34.371 -5.538,-8.2416 -17.63,-23.189 -19.96,-26.596 7.3416,8.4701 16.045,15.49 26.26,20.161 11.738,6.3713 22.874,14.137 34.907,19.777 l 4.2208,0.93795 z"
       fill="#ececec"
       fill-rule="evenodd"
       stroke="#000000"
       stroke-linecap="round"
       stroke-linejoin="round"
       stroke-width="2.5"
       id="path853" />
    <path
       d="m 222.18,241.68 c -1.638,9.2243 2.6,20.916 -4.173,28.282 -12.627,3.0595 -21.86,-9.195 -29.112,-17.685 -8.0623,-14.437 -17.626,-28.271 -21.776,-44.513 -3.1371,-9.8992 -5.2627,-20.653 -5.2918,-30.791 10.439,-11.954 24.105,0.003 29.688,10.501 8.6126,11.841 20.503,22.017 24.239,36.643 l 6.4257,17.563 z"
       fill="#ffffff"
       fill-rule="evenodd"
       stroke="#000000"
       stroke-linecap="round"
       stroke-linejoin="round"
       stroke-width="2.5"
       id="path855" />
    <path
       d="m 203.24,266.94 c 1.5911,9.5855 -3.3905,29.062 -16.171,22.716 -12.728,-0.67663 -13.592,-16.984 -19.832,-25.594 -2.8081,-9.0456 -5.6262,-18.888 -5.471,-28.342 2.7422,-9.3511 4.127,-19.315 4.5474,-28.821 5.2197,16.849 14.448,32.057 23.869,46.823 3.9453,4.7977 8.9368,8.5842 13.057,13.218 z"
       fill="#f9f9f9"
       fill-rule="evenodd"
       stroke="#000000"
       stroke-linecap="round"
       stroke-linejoin="round"
       stroke-width="2.5"
       id="path857" />
    <path
       d="m 178.69,287.98 c -2.6488,8.1556 -11.486,25.57 -19.035,12.437 -6.9338,-9.8865 -8.6585,-21.273 -7.6808,-33.056 -0.24801,-10.294 5.9796,-19.213 7.7756,-29.187 3.3782,13.585 6.2567,27.481 13.798,39.52 l 5.1428,10.286 z"
       fill="#b3b3b3"
       fill-rule="evenodd"
       stroke="#000000"
       stroke-linecap="round"
       stroke-linejoin="round"
       stroke-width="2.5"
       id="path859" />
    <path
       d="m 166.07,203.8 c -2.2594,16.234 -3.8527,32.826 -11.371,47.7 -5.5496,12.341 -12.718,28.524 -25.637,32.875 -11.807,2.8716 -12.614,-17.366 -14.092,-25.521 1.035,-16.093 1.6423,-33.205 10.716,-47.162 5.9096,-11.666 11.516,-23.487 17.235,-35.249 10.949,-5.6175 20.615,1.1118 19.837,13.003 l 3.3127,14.355 z"
       fill="#f2f2f2"
       fill-rule="evenodd"
       stroke="#000000"
       stroke-linecap="round"
       stroke-linejoin="round"
       stroke-width="2.5"
       id="path861" />
    <path
       d="m 114.86,265.53 c -7.0751,5.5026 -14.001,13.95 -23.703,13.417 -12.396,-2.8947 -7.5719,-22.67 3.0161,-25.932 9.3493,-4.8857 20.466,-22.863 23.852,-23.795 -1.9659,12.004 -3.9967,24.1 -3.1653,36.31 z"
       fill="#b3b3b3"
       fill-rule="evenodd"
       stroke="#000000"
       stroke-linecap="round"
       stroke-linejoin="round"
       stroke-width="2.5"
       id="path863" />
    <path
       d="m 142.92,175.04 c -12.286,23.954 -20.975,50.318 -39.593,70.412 -7.0098,8.9296 -18.308,12.484 -27.049,19.38 -14.878,3.0561 -11.319,-13.884 -7.5024,-22.15 2.6146,-10.627 7.0325,-21.031 13.58,-29.753 11.54,-5.4256 23.046,-11.435 31.995,-20.792 8.8402,-4.5245 18.686,-21.753 28.57,-17.096 z"
       fill="#f9f9f9"
       fill-rule="evenodd"
       stroke="#000000"
       stroke-linecap="round"
       stroke-linejoin="round"
       stroke-width="2.5"
       id="path865" />
    <path
       d="m 138.71,171.53 c -13.154,11.223 -25.358,23.571 -39.233,33.937 -18.535,7.4537 -37.03,16.867 -57.527,16.506 -6.6072,0.51142 -18.779,0.48075 -10.228,-8.698 4.7008,-12.223 15.303,-20.748 25.303,-28.629 10.985,-7.004 21.443,-15.211 34.263,-18.619 11.31,-5.3579 23.918,-7.2335 36.256,-7.3532 4.9894,2.1449 9.8308,7.486 11.166,12.857 z"
       fill="#f9f9f9"
       fill-rule="evenodd"
       stroke="#000000"
       stroke-linecap="round"
       stroke-linejoin="round"
       stroke-width="2.5"
       id="path867" />
    <path
       d="m 40.497,198.19 c -12.567,1.5194 -31.619,1.1232 -39.247,-8.6327 5.9745,-8.2787 16.308,-14.644 25.409,-19.928 14.429,-5.6168 28.888,-11.451 44.391,-13.314 14.26,-2.1968 28.807,-4.2687 43.131,-4.6944 9.5145,-3.279 15.769,9.7956 2.7738,6.9347 -12.411,-0.0466 -24.161,5.736 -34.967,11.228 -15.292,7.3455 -28.624,17.483 -41.491,28.406 z"
       fill="#cccccc"
       fill-rule="evenodd"
       stroke="#000000"
       stroke-linecap="round"
       stroke-linejoin="round"
       stroke-width="2.5"
       id="path869" />
    <path
       d="M 61.542,157.5 C 51.535,156.97459 41.341,156.4241 32.399,151.391 22.287,147.5217 13.246,141.23 4.837,134.638 c -6.0456,-12.756 15.614,-15.869 24.656,-14.357 16.555,-0.36791 33.103,0.69216 49.586,2.1445 16.396,8.0294 33.84,14.414 48.61,25.362 3.5282,12.026 -15.253,1.4245 -22.353,4.7682 -14.748,-0.28563 -29.234,3.0082 -43.794,4.9443 z"
       fill="#ffffff"
       fill-rule="evenodd"
       stroke="#000000"
       stroke-linecap="round"
       stroke-linejoin="round"
       stroke-width="2.5"
       id="path871" />
    <path
       d="M 55.228,119.62 C 44.247,113.2367 31.312,109.242 23.609,98.513 17.7065,93.966 6.45,74.954 20.843,76.631 c 11.985,4.2838 31.447,-5.0747 35.845,9.908 8.5868,9.8899 17.717,19.967 28.749,27.272 15.094,9.4123 30.042,19.093 44.852,28.958 -0.42955,13.502 -14.441,-5.2714 -21.266,-5.8475 -12.824,-4.0337 -23.44,-14.786 -36.988,-15.501 -5.6295,-0.26712 -11.272,-0.6939 -16.806,-1.8011 z"
       fill="#cccccc"
       fill-rule="evenodd"
       stroke="#000000"
       stroke-linecap="round"
       stroke-linejoin="round"
       stroke-width="2.5"
       id="path873" />
    <path
       d="m 148.53,122.43 c -1.8556,5.6767 -3.7811,11.514 -10.613,8.9409 0.66985,9.8271 -9.0467,12.252 -10.622,21.159 -6.7308,7.7989 15.147,11.826 11.855,20.992 6.213,5.5937 16.537,-0.95753 22.149,4.5237 5.4252,-8.8949 22.392,-1.7472 18.183,-15.503 -10.146,-6.7443 16.581,-25.028 -0.0964,-24.678 -10.092,2.0925 4.3536,-28.202 -5.3102,-12.212 -6.3742,5.2147 -15.899,0.47731 -19.47,-4.1415 -0.78984,7.7053 -2.0676,5.4218 -6.0757,0.9209 z"
       fill-rule="evenodd"
       stroke="#000000"
       stroke-linecap="round"
       stroke-linejoin="round"
       stroke-width="2.5"
       id="path875" />
    <path
       d="m 148.53,122.43 c -1.8556,5.6767 -3.7811,11.514 -10.613,8.9409 0.66985,9.8271 -9.0467,12.252 -10.622,21.159 -6.7308,7.7989 15.147,11.826 11.855,20.992 6.213,5.5937 16.537,-0.95753 22.149,4.5237 5.4252,-8.8949 22.392,-1.7472 18.183,-15.503 -10.146,-6.7443 16.581,-25.028 -0.0964,-24.678 -10.092,2.0925 4.3536,-28.202 -5.3102,-12.212 -6.3742,5.2147 -15.899,0.47731 -19.47,-4.1415 -0.78984,7.7053 -2.0676,5.4218 -6.0757,0.9209 z"
       fill-rule="evenodd"
       stroke="#000000"
       stroke-linecap="round"
       stroke-linejoin="round"
       stroke-width="2.5"
       id="path877" />
    <path
       d="m 148.53,122.43 c -1.8556,5.6767 -3.7811,11.514 -10.613,8.9409 0.66985,9.8271 -9.0467,12.252 -10.622,21.159 -6.7308,7.7989 15.147,11.826 11.855,20.992 6.213,5.5937 16.537,-0.95753 22.149,4.5237 5.4252,-8.8949 22.392,-1.7472 18.183,-15.503 -10.146,-6.7443 16.581,-25.028 -0.0964,-24.678 -10.092,2.0925 4.3536,-28.202 -5.3102,-12.212 -6.3742,5.2147 -15.899,0.47731 -19.47,-4.1415 -0.78984,7.7053 -2.0676,5.4218 -6.0757,0.9209 z"
       fill-rule="evenodd"
       stroke="#000000"
       stroke-linecap="round"
       stroke-linejoin="round"
       stroke-width="2.5"
       id="path879" />
    <path
       d="m 148.53,122.43 c -1.8556,5.6767 -3.7811,11.514 -10.613,8.9409 0.66985,9.8271 -9.0467,12.252 -10.622,21.159 -6.7308,7.7989 15.147,11.826 11.855,20.992 6.213,5.5937 16.537,-0.95753 22.149,4.5237 5.4252,-8.8949 22.392,-1.7472 18.183,-15.503 -10.146,-6.7443 16.581,-25.028 -0.0964,-24.678 -10.092,2.0925 4.3536,-28.202 -5.3102,-12.212 -6.3742,5.2147 -15.899,0.47731 -19.47,-4.1415 -0.78984,7.7053 -2.0676,5.4218 -6.0757,0.9209 z"
       fill-rule="evenodd"
       stroke="#000000"
       stroke-linecap="round"
       stroke-linejoin="round"
       stroke-width="2.5"
       id="path881" />
    <path
       d="m 148.53,122.43 c -1.8556,5.6767 -3.7811,11.514 -10.613,8.9409 0.66985,9.8271 -9.0467,12.252 -10.622,21.159 -6.7308,7.7989 15.147,11.826 11.855,20.992 6.213,5.5937 16.537,-0.95753 22.149,4.5237 5.4252,-8.8949 22.392,-1.7472 18.183,-15.503 -10.146,-6.7443 16.581,-25.028 -0.0964,-24.678 -10.092,2.0925 4.3536,-28.202 -5.3102,-12.212 -6.3742,5.2147 -15.899,0.47731 -19.47,-4.1415 -0.78984,7.7053 -2.0676,5.4218 -6.0757,0.9209 z"
       fill-rule="evenodd"
       stroke="#000000"
       stroke-linecap="round"
       stroke-linejoin="round"
       stroke-width="2.5"
       id="path883" />
    <path
       d="m 148.53,122.43 c -1.8556,5.6767 -3.7811,11.514 -10.613,8.9409 0.66985,9.8271 -9.0467,12.252 -10.622,21.159 -6.7308,7.7989 15.147,11.826 11.855,20.992 6.213,5.5937 16.537,-0.95753 22.149,4.5237 5.4252,-8.8949 22.392,-1.7472 18.183,-15.503 -10.146,-6.7443 16.581,-25.028 -0.0964,-24.678 -10.092,2.0925 4.3536,-28.202 -5.3102,-12.212 -6.3742,5.2147 -15.899,0.47731 -19.47,-4.1415 -0.78984,7.7053 -2.0676,5.4218 -6.0757,0.9209 z"
       fill-rule="evenodd"
       stroke="#000000"
       stroke-linecap="round"
       stroke-linejoin="round"
       stroke-width="2.5"
       id="path885" />
    <path
       d="m 148.53,122.43 c -1.8556,5.6767 -3.7811,11.514 -10.613,8.9409 0.66985,9.8271 -9.0467,12.252 -10.622,21.159 -6.7308,7.7989 15.147,11.826 11.855,20.992 6.213,5.5937 16.537,-0.95753 22.149,4.5237 5.4252,-8.8949 22.392,-1.7472 18.183,-15.503 -10.146,-6.7443 16.581,-25.028 -0.0964,-24.678 -10.092,2.0925 4.3536,-28.202 -5.3102,-12.212 -6.3742,5.2147 -15.899,0.47731 -19.47,-4.1415 -0.78984,7.7053 -2.0676,5.4218 -6.0757,0.9209 z"
       fill-rule="evenodd"
       stroke="#000000"
       stroke-linecap="round"
       stroke-linejoin="round"
       stroke-width="2.5"
       id="path887" />
    <path
       d="m 148.53,122.43 c -1.8556,5.6767 -3.7811,11.514 -10.613,8.9409 0.66985,9.8271 -9.0467,12.252 -10.622,21.159 -6.7308,7.7989 15.147,11.826 11.855,20.992 6.213,5.5937 16.537,-0.95753 22.149,4.5237 5.4252,-8.8949 22.392,-1.7472 18.183,-15.503 -10.146,-6.7443 16.581,-25.028 -0.0964,-24.678 -10.092,2.0925 4.3536,-28.202 -5.3102,-12.212 -6.3742,5.2147 -15.899,0.47731 -19.47,-4.1415 -0.78984,7.7053 -2.0676,5.4218 -6.0757,0.9209 z"
       fill-rule="evenodd"
       stroke="#000000"
       stroke-linecap="round"
       stroke-linejoin="round"
       stroke-width="2.5"
       id="path889" />
    <path
       d="m 148.53,122.43 c -1.8556,5.6767 -3.7811,11.514 -10.613,8.9409 0.66985,9.8271 -9.0467,12.252 -10.622,21.159 -6.7308,7.7989 15.147,11.826 11.855,20.992 6.213,5.5937 16.537,-0.95753 22.149,4.5237 5.4252,-8.8949 22.392,-1.7472 18.183,-15.503 -10.146,-6.7443 16.581,-25.028 -0.0964,-24.678 -10.092,2.0925 4.3536,-28.202 -5.3102,-12.212 -6.3742,5.2147 -15.899,0.47731 -19.47,-4.1415 -0.78984,7.7053 -2.0676,5.4218 -6.0757,0.9209 z"
       fill-rule="evenodd"
       stroke="#000000"
       stroke-linecap="round"
       stroke-linejoin="round"
       stroke-width="2.5"
       id="path891" />
    <path
       d="m 148.53,122.43 c -1.8556,5.6767 -3.7811,11.514 -10.613,8.9409 0.66985,9.8271 -9.0467,12.252 -10.622,21.159 -6.7308,7.7989 15.147,11.826 11.855,20.992 6.213,5.5937 16.537,-0.95753 22.149,4.5237 5.4252,-8.8949 22.392,-1.7472 18.183,-15.503 -10.146,-6.7443 16.581,-25.028 -0.0964,-24.678 -10.092,2.0925 4.3536,-28.202 -5.3102,-12.212 -6.3742,5.2147 -15.899,0.47731 -19.47,-4.1415 -0.78984,7.7053 -2.0676,5.4218 -6.0757,0.9209 z"
       fill-rule="evenodd"
       stroke="#000000"
       stroke-linecap="round"
       stroke-linejoin="round"
       stroke-width="2.5"
       id="path893" />
    <path
       d="m 152.3,125.35 c -1.8556,5.6767 -3.7811,11.514 -10.613,8.9409 0.66985,9.8271 -9.0467,12.252 -10.622,21.159 -6.7308,7.7989 15.147,11.826 11.855,20.992 6.213,5.5937 16.537,-0.95753 22.149,4.5237 5.4252,-8.8949 22.392,-1.7472 18.183,-15.503 -10.146,-6.7443 16.581,-25.028 -0.0964,-24.678 -10.092,2.0925 4.3536,-28.202 -5.3102,-12.212 -6.3742,5.2147 -15.899,0.47731 -19.47,-4.1415 -0.78984,7.7053 -2.0676,5.4218 -6.0757,0.9209 z"
       fill-rule="evenodd"
       stroke="#000000"
       stroke-linecap="round"
       stroke-linejoin="round"
       stroke-width="2.5"
       id="path895" />
    <circle
       cx="155.41"
       cy="149.08"
       r="47.998001"
       fill="#ffffff"
       stroke="#000000"
       stroke-width="10"
       style="paint-order:stroke fill markers"
       id="circle897" />
    <circle
       cx="154.56"
       cy="140.38"
       r="37.581001"
       stroke="#000000"
       stroke-width="14.553"
       style="paint-order:stroke fill markers"
       id="circle899" />
  </g>
</svg>
